<svg width="48" height="48" viewBox="0 0 48 48" fill="none" xmlns="http://www.w3.org/2000/svg">
<path d="M8.66617 0C7.1942 0 6 1.19353 6 2.66616V45.3333C6 46.806 7.1942 48 8.66617 48H39.3338C40.8065 48 42 46.8058 42 45.3333V14.0333C42 12.9574 41.5615 11.9279 40.7856 11.1825L30.2938 1.10251C29.5574 0.395086 28.576 0 27.5549 0H8.66617Z" fill="#6DA0D5"/>
<path d="M40.2121 12.6845C40.645 13.1005 40.3506 13.8319 39.7502 13.8319H31.0983C29.6083 13.8319 28.4006 12.6236 28.4006 11.1337V2.90155C28.4006 2.31407 29.1055 2.01383 29.5291 2.42084L40.2121 12.6845Z" fill="#588DBF"/>
<path d="M30 28.8347C30 30.583 28.5558 32 26.7745 32H3.22552C1.44354 32 0 30.583 0 28.8347V19.1653C0 17.417 1.44371 16 3.22552 16H26.7745C28.5558 16 30 17.417 30 19.1653V28.8347Z" fill="#588DBF"/>
<path d="M17.7329 25.9371C17.6726 26.6141 17.4068 27.1422 16.9353 27.5215C16.4674 27.8972 15.8489 28.0851 15.0798 28.0851C14.2432 28.0851 13.5804 27.8192 13.0913 27.2875C12.6021 26.7559 12.3575 26.0168 12.3575 25.0704V24.7089C12.3575 24.1098 12.4692 23.5853 12.6925 23.1351C12.9158 22.6814 13.2366 22.3322 13.6548 22.0877C14.0731 21.8431 14.5587 21.7208 15.1117 21.7208C15.8702 21.7208 16.4799 21.914 16.9406 22.3003C17.4014 22.6867 17.6673 23.2237 17.7382 23.9113H16.4462C16.4036 23.5144 16.2707 23.2237 16.0474 23.0394C15.8277 22.8515 15.5157 22.7576 15.1117 22.7576C14.1369 22.7576 13.6495 23.4133 13.6495 24.7248V25.1076C13.6495 25.7634 13.7683 26.2525 14.0058 26.5751C14.2432 26.8941 14.6012 27.0536 15.0798 27.0536C15.5051 27.0536 15.8277 26.9668 16.0474 26.7931C16.2672 26.6194 16.4001 26.3341 16.4462 25.9371H17.7329Z" fill="white"/>
<path opacity="0.8" d="M17.891 39.6451L21.0279 40.836V42.128L16.5777 40.1449V39.1187L21.0279 37.1408V38.4328L17.891 39.6451ZM22.809 43.6646H21.7935L24.8401 35.2587H25.8556L22.809 43.6646ZM30.0559 39.6185L26.7701 38.4116V37.1408L31.3638 39.1187V40.1449L26.7701 42.1227V40.852L30.0559 39.6185Z" fill="#588DBF"/>
</svg>
