<svg width="48" height="48" viewBox="0 0 48 48" fill="none" xmlns="http://www.w3.org/2000/svg">
<g clip-path="url(#clip0)">
<path d="M8.66617 0C7.1942 0 6 1.19353 6 2.66616V45.3333C6 46.806 7.1942 48 8.66617 48H39.3338C40.8065 48 42 46.8058 42 45.3333V14.0333C42 12.9574 41.5615 11.9279 40.7856 11.1825L30.2938 1.10251C29.5574 0.395086 28.576 0 27.5549 0H8.66617Z" fill="#260600"/>
<path d="M40.2121 12.6845C40.645 13.1005 40.3506 13.8319 39.7502 13.8319H31.0983C29.6083 13.8319 28.4006 12.6236 28.4006 11.1337V2.90155C28.4006 2.31407 29.1055 2.01383 29.5291 2.42084L40.2121 12.6845Z" fill="#FF4A19"/>
<path d="M20.6471 43.0999H22.4471L23.4783 40.3812H27.2846L28.3346 43.0999H30.1908L26.3096 32.7874H24.5283L20.6471 43.0999ZM24.0596 38.7312L25.3721 34.8687L26.6846 38.7312H24.0596ZM31.3187 35.8999V43.0999H33.1V37.7187C33.825 37.4562 34.4062 37.3249 34.8437 37.3249C35.3312 37.3249 35.6687 37.4749 35.8562 37.7749C36.0437 38.0749 36.1375 38.4124 36.1375 38.7874V43.0999H37.9188V39.0124C37.9188 38.4499 37.8625 37.9437 37.75 37.4937C37.65 37.0437 37.4062 36.6499 37.0187 36.3124C36.6438 35.9749 36.075 35.8062 35.3125 35.8062C34.5 35.8062 33.6687 36.0124 32.8187 36.4249L32.5937 35.8999H31.3187Z" fill="#FFDED9"/>
</g>
<defs>
<clipPath id="clip0">
<rect x="6" width="36" height="48" rx="3" fill="white"/>
</clipPath>
</defs>
</svg>
