<svg width="48" height="48" viewBox="0 0 48 48" fill="none" xmlns="http://www.w3.org/2000/svg">
<path d="M8.66617 0C7.1942 0 6 1.19419 6 2.66666V45.3338C6 46.8065 7.1942 48 8.66617 48H39.3338C40.8065 48 42 46.8065 42 45.3338V14.0333C42 12.9574 41.5615 11.9279 40.7856 11.1825L30.2938 1.10251C29.5574 0.395086 28.576 0 27.5549 0H8.66617Z" fill="#7147BC"/>
<path d="M39.5739 12.6823C40.0069 13.0982 39.7124 13.8296 39.1121 13.8296H30.4601C28.9701 13.8296 27.7625 12.622 27.7625 11.1319V2.89868C27.7625 2.31119 28.4673 2.01095 28.8909 2.41798L39.5739 12.6823Z" fill="#B7A2DD"/>
<path fill-rule="evenodd" clip-rule="evenodd" d="M17.6667 27.4218C18.5871 27.4218 19.3333 26.6756 19.3333 25.7552C19.3333 24.8347 18.5871 24.0885 17.6667 24.0885C16.7462 24.0885 16 24.8347 16 25.7552C16 26.6756 16.7462 27.4218 17.6667 27.4218ZM32.6 24.7729H21.6V26.5911H32.6V24.7729ZM32.6 29.7416H21.6V31.5598H32.6V29.7416ZM21.6 34.7886H32.6V36.6068H21.6V34.7886ZM19.3333 30.7552C19.3333 31.6756 18.5871 32.4218 17.6667 32.4218C16.7462 32.4218 16 31.6756 16 30.7552C16 29.8347 16.7462 29.0885 17.6667 29.0885C18.5871 29.0885 19.3333 29.8347 19.3333 30.7552ZM17.6667 37.4218C18.5871 37.4218 19.3333 36.6756 19.3333 35.7552C19.3333 34.8347 18.5871 34.0885 17.6667 34.0885C16.7462 34.0885 16 34.8347 16 35.7552C16 36.6756 16.7462 37.4218 17.6667 37.4218Z" fill="white"/>
</svg>
