<svg width="48" height="48" viewBox="0 0 48 48" fill="none" xmlns="http://www.w3.org/2000/svg">
<path d="M8.66617 0C7.1942 0 6 1.19353 6 2.66616V45.3333C6 46.806 7.1942 48 8.66617 48H39.3338C40.8065 48 42 46.8058 42 45.3333V14.0333C42 12.9574 41.5615 11.9279 40.7856 11.1825L30.2938 1.10251C29.5574 0.395086 28.576 0 27.5549 0H8.66617Z" fill="#2C9DD8"/>
<path d="M40.2121 12.6845C40.645 13.1005 40.3506 13.8319 39.7502 13.8319H31.0983C29.6083 13.8319 28.4006 12.6236 28.4006 11.1337V2.90155C28.4006 2.31407 29.1055 2.01383 29.5291 2.42084L40.2121 12.6845Z" fill="#2489B7"/>
<path d="M30 28.8347C30 30.583 28.5558 32 26.7745 32H3.22552C1.44354 32 0 30.583 0 28.8347V19.1653C0 17.417 1.44371 16 3.22552 16H26.7745C28.5558 16 30 17.417 30 19.1653V28.8347Z" fill="#2489B7"/>
<path d="M10.6934 26.4103L11.6238 21.8059H12.8786L11.3792 28H10.1298L8.98134 23.5711L7.81695 28H6.56749L5.06814 21.8059H6.32292L7.264 26.4209L8.41244 21.8059H9.55024L10.6934 26.4103ZM17.483 26.6761H14.9202L14.4151 28H13.1125L15.6168 21.8059H16.8024L19.296 28H17.9881L17.483 26.6761ZM15.2977 25.6925H17.1055L16.2016 23.3424L15.2977 25.6925ZM21.9863 26.3411L22.0873 26.7505L22.1831 26.3518L23.7249 21.8059H25.0914L22.7413 28H21.4334L19.0886 21.8059H20.4551L21.9863 26.3411Z" fill="white"/>
<path opacity="0.8" d="M30.6888 35.2655V42.4638C30.4317 42.4339 30.1457 42.4406 29.8432 42.4931C28.7402 42.6839 27.8462 43.3892 27.8462 44.0682C27.8462 44.7472 28.7402 45.1429 29.8432 44.952C30.9461 44.7612 31.84 44.0559 31.84 43.3769V37.5653L36.8488 36.6982V41.3972C36.5919 41.3673 36.306 41.3742 36.0032 41.4266C34.9 41.6175 34.0062 42.3228 34.0062 43.0018C34.0062 43.6808 34.9 44.0765 36.0032 43.8856C37.1059 43.6948 38 42.9895 38 42.3105V34L30.6888 35.2655Z" fill="#2489B7"/>
</svg>
