<svg width="48" height="48" viewBox="0 0 48 48" fill="none" xmlns="http://www.w3.org/2000/svg">
<path d="M8.66617 0C7.1942 0 6 1.19353 6 2.66616V45.3333C6 46.806 7.1942 48 8.66617 48H39.3338C40.8065 48 42 46.8058 42 45.3333V14.0333C42 12.9574 41.5615 11.9279 40.7856 11.1825L30.2938 1.10251C29.5574 0.395086 28.576 0 27.5549 0H8.66617Z" fill="#BBBBBB"/>
<path d="M40.2118 12.6845C40.6447 13.1005 40.3503 13.8319 39.75 13.8319H31.0981C29.608 13.8319 28.4004 12.6236 28.4004 11.1337V2.90155C28.4004 2.31407 29.1052 2.01383 29.5289 2.42084L40.2118 12.6845Z" fill="#AAAAAA"/>
<path d="M30 28.8347C30 30.583 28.5558 32 26.7745 32H3.22552C1.44354 32 0 30.583 0 28.8347V19.1653C0 17.417 1.44371 16 3.22552 16H26.7745C28.5558 16 30 17.417 30 19.1653V28.8347Z" fill="#AAAAAA"/>
<path d="M11.2603 24.9126H9.07178V27H8.00391V21.8804H11.5547V22.7417H9.07178V24.0557H11.2603V24.9126ZM13.3784 27H12.3149V21.8804H13.3784V27ZM15.5493 26.1475H17.9883V27H14.4814V21.8804H15.5493V26.1475ZM21.9478 24.7852H19.7417V26.1475H22.3257V27H18.6738V21.8804H22.3125V22.7417H19.7417V23.9282H21.9478V24.7852Z" fill="white"/>
</svg>
