<svg width="48" height="48" viewBox="0 0 48 48" fill="none" xmlns="http://www.w3.org/2000/svg">
<path d="M8.66617 0C7.1942 0 6 1.19353 6 2.66616V45.3333C6 46.806 7.1942 48 8.66617 48H39.3338C40.8065 48 42 46.8058 42 45.3333V14.0333C42 12.9574 41.5615 11.9279 40.7856 11.1825L30.2938 1.10251C29.5574 0.395086 28.576 0 27.5549 0H8.66617Z" fill="#E37A26"/>
<path d="M40.2121 12.6845C40.645 13.1005 40.3506 13.8319 39.7502 13.8319H31.0983C29.6083 13.8319 28.4006 12.6236 28.4006 11.1337V2.90155C28.4006 2.31407 29.1055 2.01383 29.5291 2.42084L40.2121 12.6845Z" fill="#D06A28"/>
<path d="M30 28.8347C30 30.583 28.5558 32 26.7745 32H3.22552C1.44354 32 0 30.583 0 28.8347V19.1653C0 17.417 1.44371 16 3.22552 16H26.7745C28.5558 16 30 17.417 30 19.1653V28.8347Z" fill="#D06A28"/>
<path d="M11.7408 25.0438C11.7408 25.9796 11.4838 26.7204 10.9698 27.2663C10.4594 27.8121 9.78418 28.0851 8.94412 28.0851C8.1076 28.0851 7.42882 27.8121 6.90777 27.2663C6.38672 26.7169 6.12619 25.9672 6.12619 25.0173V24.7727C6.12619 24.163 6.24316 23.626 6.47711 23.1617C6.71459 22.6938 7.04601 22.3376 7.47135 22.093C7.8967 21.8449 8.38408 21.7208 8.93349 21.7208C9.78418 21.7208 10.4647 21.9991 10.9752 22.5556C11.4856 23.1085 11.7408 23.8582 11.7408 24.8046V25.0438ZM10.4541 24.762C10.4541 24.1134 10.3212 23.6189 10.0553 23.2786C9.7895 22.9384 9.41555 22.7682 8.93349 22.7682C8.45851 22.7682 8.08634 22.9384 7.81695 23.2786C7.54756 23.6189 7.41287 24.1134 7.41287 24.762V25.0438C7.41287 25.6748 7.54756 26.1675 7.81695 26.5219C8.08988 26.8728 8.4656 27.0483 8.94412 27.0483C9.42618 27.0483 9.79836 26.8764 10.0607 26.5326C10.323 26.1852 10.4541 25.6889 10.4541 25.0438V24.762ZM12.7988 28V21.8059H14.8139C15.3952 21.8059 15.9145 21.9282 16.3717 22.1727C16.8325 22.4173 17.1905 22.7629 17.4457 23.2095C17.701 23.6526 17.8321 24.1559 17.8392 24.7195V25.0438C17.8392 25.6216 17.7116 26.1356 17.4564 26.5857C17.2047 27.0359 16.8449 27.385 16.3771 27.6331C15.9127 27.8777 15.3828 28 14.7873 28H12.7988ZM14.0908 22.848V26.9685H14.782C15.9411 26.9685 16.5313 26.3518 16.5525 25.1183V24.762C16.5525 23.5144 16.0013 22.8763 14.899 22.848H14.0908ZM20.1839 25.8254V28H18.8919V21.8059H21.4706C22.222 21.8059 22.8211 21.9955 23.2677 22.3748C23.7178 22.7505 23.9429 23.245 23.9429 23.8582C23.9429 24.4572 23.7285 24.9322 23.2996 25.2831C22.8742 25.634 22.2858 25.8148 21.5344 25.8254H20.1839ZM20.1839 24.7833H21.4706C21.8392 24.7833 22.1281 24.7053 22.3372 24.5494C22.5499 24.3934 22.6563 24.1666 22.6563 23.8688C22.6563 23.5604 22.5481 23.3141 22.3319 23.1298C22.1193 22.9419 21.8339 22.848 21.4759 22.848H20.1839V24.7833Z" fill="white"/>
</svg>
