<svg width="48" height="48" viewBox="0 0 48 48" fill="none" xmlns="http://www.w3.org/2000/svg">
<path d="M8.66617 0C7.1942 0 6 1.19353 6 2.66616V45.3333C6 46.806 7.1942 48 8.66617 48H39.3338C40.8065 48 42 46.8058 42 45.3333V14.0333C42 12.9574 41.5615 11.9279 40.7856 11.1825L30.2938 1.10251C29.5574 0.395086 28.576 0 27.5549 0H8.66617Z" fill="#0E7DC1"/>
<path d="M40.2121 12.6845C40.645 13.1005 40.3506 13.8319 39.7502 13.8319H31.0983C29.6083 13.8319 28.4006 12.6236 28.4006 11.1337V2.90155C28.4006 2.31407 29.1055 2.01383 29.5291 2.42084L40.2121 12.6845Z" fill="#0C6EAA"/>
<path d="M30 28.8347C30 30.583 28.5558 32 26.7745 32H3.22552C1.44354 32 0 30.583 0 28.8347V19.1653C0 17.417 1.44371 16 3.22552 16H26.7745C28.5558 16 30 17.417 30 19.1653V28.8347Z" fill="#0C6EAA"/>
<path d="M7.3916 21.8059L9.18338 26.288L10.9592 21.8059H12.65V28H11.3633V26.3252L11.4962 23.2946L9.62467 28H8.73144L6.86523 23.3212L6.99815 26.3252V28H5.71148V21.8059H7.3916ZM15.202 25.8254V28H13.91V21.8059H16.4887C17.2402 21.8059 17.8392 21.9955 18.2858 22.3748C18.736 22.7505 18.961 23.245 18.961 23.8582C18.961 24.4572 18.7466 24.9322 18.3177 25.2831C17.8924 25.634 17.304 25.8148 16.5525 25.8254H15.202ZM15.202 24.7833H16.4887C16.8573 24.7833 17.1462 24.7053 17.3554 24.5494C17.568 24.3934 17.6744 24.1666 17.6744 23.8688C17.6744 23.5604 17.5663 23.3141 17.35 23.1298C17.1374 22.9419 16.852 22.848 16.494 22.848H15.202V24.7833ZM21.2207 24.3792H21.9013C22.2734 24.3792 22.5481 24.303 22.7254 24.1506C22.9061 23.9946 22.9965 23.7926 22.9965 23.5445C22.9965 23.2928 22.9097 23.0996 22.736 22.965C22.5623 22.8267 22.3177 22.7576 22.0023 22.7576C21.7116 22.7576 21.4741 22.8214 21.2898 22.949C21.1055 23.0766 21.0133 23.2432 21.0133 23.4488H19.7214C19.7214 22.9348 19.9323 22.5183 20.3541 22.1993C20.7794 21.8803 21.3217 21.7208 21.981 21.7208C22.7006 21.7208 23.2641 21.8785 23.6718 22.194C24.0829 22.5059 24.2885 22.9384 24.2885 23.4913C24.2885 23.7713 24.1999 24.0301 24.0227 24.2676C23.849 24.5051 23.5902 24.6894 23.2464 24.8205C24.012 25.0367 24.3949 25.5188 24.3949 26.2667C24.3949 26.8232 24.1716 27.2663 23.7249 27.5959C23.2783 27.922 22.697 28.0851 21.981 28.0851C21.2827 28.0851 20.7174 27.922 20.2849 27.5959C19.856 27.2663 19.6416 26.8214 19.6416 26.2614H20.9389C20.9389 26.4953 21.0399 26.6867 21.242 26.8356C21.444 26.9809 21.7045 27.0536 22.0235 27.0536C22.3745 27.0536 22.6421 26.9756 22.8264 26.8197C23.0107 26.6637 23.1029 26.4581 23.1029 26.2029C23.1029 25.6074 22.697 25.3097 21.8853 25.3097H21.2207V24.3792Z" fill="white"/>
<path opacity="0.8" d="M30.6888 35.2655V42.4638C30.4317 42.4339 30.1457 42.4406 29.8432 42.4931C28.7402 42.6839 27.8462 43.3892 27.8462 44.0682C27.8462 44.7472 28.7402 45.1429 29.8432 44.952C30.9461 44.7612 31.84 44.0559 31.84 43.3769V37.5653L36.8488 36.6982V41.3972C36.5919 41.3673 36.306 41.3742 36.0032 41.4266C34.9 41.6175 34.0062 42.3228 34.0062 43.0018C34.0062 43.6808 34.9 44.0765 36.0032 43.8856C37.1059 43.6948 38 42.9895 38 42.3105V34L30.6888 35.2655Z" fill="#0C6EAA"/>
</svg>
