<svg width="48" height="48" viewBox="0 0 48 48" fill="none" xmlns="http://www.w3.org/2000/svg">
<path d="M18.2959 4C17.0283 4 16 4.96974 16 6.16625V40.8333C16 42.0299 17.0283 43 18.2959 43H44.7041C45.9722 43 47 42.0297 47 40.8333V15.4021V7.00001C47 5.34315 45.6569 4 44 4.00001L34.5611 4.00002L18.2959 4Z" fill="#573869"/>
<path d="M14.444 2C13.0947 2 12 3.09407 12 4.44398V43.5556C12 44.9055 13.0947 46 14.444 46H42.556C43.9059 46 45 44.9053 45 43.5556V14.8639V5C45 3.34314 43.6569 2 42 2L31.7586 2L14.444 2Z" fill="#6E3A83"/>
<path d="M8.66617 0C7.1942 0 6 1.19353 6 2.66616V45.3333C6 46.806 7.1942 48 8.66617 48H39.3338C40.8065 48 42 46.8058 42 45.3333V14.0333V3.00001C42 1.34315 40.6569 2.44688e-06 39 5.46526e-06L27.5549 2.63155e-05L8.66617 0Z" fill="#82469A"/>
<path d="M30 28.8347C30 30.583 28.5558 32 26.7745 32H3.22552C1.44354 32 0 30.583 0 28.8347V19.1653C0 17.417 1.44371 16 3.22552 16H26.7745C28.5558 16 30 17.417 30 19.1653V28.8347Z" fill="#6E3A83"/>
<path d="M9.02919 25.7403H7.84353V28H6.55154V21.8059H8.97602C9.74873 21.8059 10.3478 21.9689 10.7731 22.295C11.1985 22.6176 11.4111 23.0802 11.4111 23.6827C11.4111 24.5157 11.0124 25.0935 10.2148 25.416L11.6717 27.9415V28H10.2893L9.02919 25.7403ZM7.84353 24.7089H8.97602C9.35883 24.7089 9.64594 24.6256 9.83735 24.459C10.0288 24.2888 10.1245 24.0655 10.1245 23.7891C10.1245 23.502 10.0305 23.2733 9.84266 23.1032C9.65835 22.9331 9.36947 22.848 8.97602 22.848H7.84353V24.7089ZM16.276 26.6761H13.7133L13.2082 28H11.9056L14.4098 21.8059H15.5955L18.0891 28H16.7811L16.276 26.6761ZM14.0908 25.6925H15.8985L14.9947 23.3424L14.0908 25.6925ZM21.2473 25.7403H20.0616V28H18.7696V21.8059H21.1941C21.9668 21.8059 22.5659 21.9689 22.9912 22.295C23.4166 22.6176 23.6292 23.0802 23.6292 23.6827C23.6292 24.5157 23.2305 25.0935 22.4329 25.416L23.8898 27.9415V28H22.5074L21.2473 25.7403ZM20.0616 24.7089H21.1941C21.5769 24.7089 21.864 24.6256 22.0554 24.459C22.2469 24.2888 22.3426 24.0655 22.3426 23.7891C22.3426 23.502 22.2486 23.2733 22.0608 23.1032C21.8764 22.9331 21.5876 22.848 21.1941 22.848H20.0616V24.7089Z" fill="white"/>
<path fill-rule="evenodd" clip-rule="evenodd" d="M19.5787 35.8759C19.8011 35.8759 19.9813 35.6857 19.9813 35.4511V34.9249C19.9813 34.6903 20.1616 34.5001 20.3838 34.5001H28.71C28.9323 34.5001 29.1126 34.6903 29.1126 34.9249V35.4511C29.1126 35.6857 29.2928 35.8759 29.5151 35.8759C29.5151 35.8759 36.673 35.8759 41.9995 35.8759C41.9995 38.0383 41.9996 42.2627 41.9996 42.2627H29.5151C29.2928 42.2627 29.1126 42.4529 29.1126 42.6875V43.0751C29.1126 43.3097 28.9323 43.4999 28.71 43.4999H20.3838C20.1616 43.4999 19.9813 43.3097 19.9813 43.0751V42.6875C19.9813 42.4529 19.8011 42.2627 19.5787 42.2627H6.00018L6.00014 35.8759H19.5787ZM29.1126 40.1732C29.1126 40.4079 29.2928 40.5981 29.5151 40.5981C29.5151 40.5981 41.7771 40.5981 41.9995 40.5981L41.9996 37.5406H29.5151C29.2928 37.5406 29.1126 37.7308 29.1126 37.9654V40.1732ZM21.5587 38.1599H22.8409C23.0631 38.1599 23.2435 38.3501 23.2435 38.5847V39.3997C23.2435 39.6343 23.0631 39.8245 22.8409 39.8245H21.9613C21.739 39.8245 21.5587 40.0148 21.5587 40.2494V41.4104C21.5587 41.645 21.739 41.8352 21.9613 41.8352H27.1326C27.3548 41.8352 27.5351 41.645 27.5351 41.4104V36.5895C27.5351 36.3549 27.3548 36.1647 27.1326 36.1647H21.9613C21.739 36.1647 21.5587 36.3549 21.5587 36.5895V38.1599ZM18.3115 39.7647C18.3115 40.2242 18.6657 40.5981 19.1011 40.5981H19.5787C19.8011 40.5981 19.9813 40.4079 19.9813 40.1732V37.9654C19.9813 37.7308 19.8011 37.5406 19.5787 37.5406H19.1011C18.6657 37.5406 18.3115 37.9144 18.3115 38.3739V39.7647ZM6.00021 40.5002L16.3 40.5981C16.578 40.5981 16.7733 40.3044 16.7458 40.0125C16.7381 39.931 16.734 39.8483 16.734 39.7647V38.374C16.734 38.2904 16.7381 38.2078 16.7458 38.1263C16.7733 37.8343 16.578 37.5406 16.2999 37.5406H6L6.00021 40.5002ZM30.3583 38.5322H30.8032C30.9613 38.5322 31.0895 38.6675 31.0895 38.8344V39.3039C31.0895 39.4708 30.9613 39.606 30.8032 39.606H30.3583C30.2002 39.606 30.072 39.4708 30.072 39.3039V38.8344C30.072 38.6675 30.2002 38.5322 30.3583 38.5322ZM32.6961 38.5322H32.2512C32.0931 38.5322 31.9649 38.6675 31.9649 38.8344V39.3039C31.9649 39.4708 32.0931 39.606 32.2512 39.606H32.6961C32.8542 39.606 32.9824 39.4708 32.9824 39.3039V38.8344C32.9824 38.6675 32.8542 38.5322 32.6961 38.5322Z" fill="#753D8B"/>
</svg>
