<svg width="48" height="48" viewBox="0 0 48 48" fill="none" xmlns="http://www.w3.org/2000/svg">
<path d="M8.66617 0C7.1942 0 6 1.19353 6 2.66616V45.3333C6 46.806 7.1942 48 8.66617 48H39.3338C40.8065 48 42 46.8058 42 45.3333V14.0333C42 12.9574 41.5615 11.9279 40.7856 11.1825L30.2938 1.10251C29.5574 0.395086 28.576 0 27.5549 0H8.66617Z" fill="#8B4097"/>
<path d="M40.2121 12.6845C40.645 13.1005 40.3506 13.8319 39.7502 13.8319H31.0983C29.6083 13.8319 28.4006 12.6236 28.4006 11.1337V2.90155C28.4006 2.31407 29.1055 2.01383 29.5291 2.42084L40.2121 12.6845Z" fill="#7B3A87"/>
<path d="M30 28.8347C30 30.583 28.5558 32 26.7745 32H3.22552C1.44354 32 0 30.583 0 28.8347V19.1653C0 17.417 1.44371 16 3.22552 16H26.7745C28.5558 16 30 17.417 30 19.1653V28.8347Z" fill="#7B3A87"/>
<path d="M7.57769 25.8254V28H6.2857V21.8059H8.86437C9.61581 21.8059 10.2148 21.9955 10.6615 22.3748C11.1116 22.7505 11.3367 23.245 11.3367 23.8582C11.3367 24.4572 11.1223 24.9322 10.6934 25.2831C10.268 25.634 9.67962 25.8148 8.92817 25.8254H7.57769ZM7.57769 24.7833H8.86437C9.233 24.7833 9.52188 24.7053 9.73101 24.5494C9.94369 24.3934 10.05 24.1666 10.05 23.8688C10.05 23.5604 9.94191 23.3141 9.72569 23.1298C9.51302 22.9419 9.22768 22.848 8.86968 22.848H7.57769V24.7833ZM17.685 28H16.393V25.4745H13.607V28H12.315V21.8059H13.607V24.4377H16.393V21.8059H17.685V28ZM20.2318 25.8254V28H18.9398V21.8059H21.5184C22.2699 21.8059 22.8689 21.9955 23.3155 22.3748C23.7657 22.7505 23.9908 23.245 23.9908 23.8582C23.9908 24.4572 23.7763 24.9322 23.3474 25.2831C22.9221 25.634 22.3337 25.8148 21.5822 25.8254H20.2318ZM20.2318 24.7833H21.5184C21.8871 24.7833 22.176 24.7053 22.3851 24.5494C22.5978 24.3934 22.7041 24.1666 22.7041 23.8688C22.7041 23.5604 22.596 23.3141 22.3798 23.1298C22.1671 22.9419 21.8818 22.848 21.5238 22.848H20.2318V24.7833Z" fill="white"/>
<path opacity="0.8" d="M17.891 40.6451L21.0279 41.836V43.128L16.5777 41.1449V40.1187L21.0279 38.1408V39.4328L17.891 40.6451ZM22.809 44.6646H21.7935L24.8401 36.2587H25.8556L22.809 44.6646ZM30.0559 40.6185L26.7701 39.4116V38.1408L31.3638 40.1187V41.1449L26.7701 43.1227V41.852L30.0559 40.6185Z" fill="#7B3A87"/>
</svg>
