<svg width="48" height="48" viewBox="0 0 48 48" fill="none" xmlns="http://www.w3.org/2000/svg">
<path d="M8.66617 0C7.1942 0 6 1.19353 6 2.66616V45.3333C6 46.806 7.1942 48 8.66617 48H39.3338C40.8065 48 42 46.8058 42 45.3333V14.0333C42 12.9574 41.5615 11.9279 40.7856 11.1825L30.2938 1.10251C29.5574 0.395086 28.576 0 27.5549 0H8.66617Z" fill="#00599C"/>
<path d="M40.2121 12.6845C40.645 13.1005 40.3506 13.8319 39.7502 13.8319H31.0983C29.6083 13.8319 28.4006 12.6236 28.4006 11.1337V2.90155C28.4006 2.31407 29.1055 2.01383 29.5291 2.42084L40.2121 12.6845Z" fill="#194680"/>
<path d="M30 28.8347C30 30.583 28.5558 32 26.7745 32H3.22552C1.44354 32 0 30.583 0 28.8347V19.1653C0 17.417 1.44371 16 3.22552 16H26.7745C28.5558 16 30 17.417 30 19.1653V28.8347Z" fill="#194680"/>
<path d="M11.7036 25.9371C11.6433 26.6141 11.3775 27.1422 10.906 27.5215C10.4382 27.8972 9.81963 28.0851 9.05046 28.0851C8.21394 28.0851 7.55111 27.8192 7.06196 27.2875C6.57281 26.7559 6.32823 26.0168 6.32823 25.0704V24.7089C6.32823 24.1098 6.43989 23.5853 6.66319 23.1351C6.8865 22.6814 7.20728 22.3322 7.62554 22.0877C8.0438 21.8431 8.52941 21.7208 9.08236 21.7208C9.84089 21.7208 10.4506 21.914 10.9114 22.3003C11.3721 22.6867 11.638 23.2237 11.7089 23.9113H10.4169C10.3743 23.5144 10.2414 23.2237 10.0181 23.0394C9.79836 22.8515 9.48644 22.7576 9.08236 22.7576C8.1076 22.7576 7.62023 23.4133 7.62023 24.7248V25.1076C7.62023 25.7634 7.73897 26.2525 7.97645 26.5751C8.21394 26.8941 8.57194 27.0536 9.05046 27.0536C9.4758 27.0536 9.79836 26.9668 10.0181 26.7931C10.2379 26.6194 10.3708 26.3341 10.4169 25.9371H11.7036ZM13.9526 25.8254V28H12.6606V21.8059H15.2393C15.9907 21.8059 16.5897 21.9955 17.0364 22.3748C17.4865 22.7505 17.7116 23.245 17.7116 23.8582C17.7116 24.4572 17.4971 24.9322 17.0683 25.2831C16.6429 25.634 16.0545 25.8148 15.3031 25.8254H13.9526ZM13.9526 24.7833H15.2393C15.6079 24.7833 15.8968 24.7053 16.1059 24.5494C16.3186 24.3934 16.4249 24.1666 16.4249 23.8688C16.4249 23.5604 16.3168 23.3141 16.1006 23.1298C15.8879 22.9419 15.6026 22.848 15.2446 22.848H13.9526V24.7833ZM19.9819 25.8254V28H18.6899V21.8059H21.2686C22.02 21.8059 22.619 21.9955 23.0656 22.3748C23.5158 22.7505 23.7409 23.245 23.7409 23.8582C23.7409 24.4572 23.5264 24.9322 23.0975 25.2831C22.6722 25.634 22.0838 25.8148 21.3324 25.8254H19.9819ZM19.9819 24.7833H21.2686C21.6372 24.7833 21.9261 24.7053 22.1352 24.5494C22.3479 24.3934 22.4542 24.1666 22.4542 23.8688C22.4542 23.5604 22.3461 23.3141 22.1299 23.1298C21.9172 22.9419 21.6319 22.848 21.2739 22.848H19.9819V24.7833Z" fill="white"/>
</svg>
