<svg width="48" height="48" viewBox="0 0 48 48" fill="none" xmlns="http://www.w3.org/2000/svg">
<path d="M8.66617 0C7.1942 0 6 1.19353 6 2.66616V45.3333C6 46.806 7.1942 48 8.66617 48H39.3338C40.8065 48 42 46.8058 42 45.3333V14.0333C42 12.9574 41.5615 11.9279 40.7856 11.1825L30.2938 1.10251C29.5574 0.395086 28.576 0 27.5549 0H8.66617Z" fill="#EDC92C"/>
<path d="M40.2121 12.6845C40.645 13.1005 40.3506 13.8319 39.7502 13.8319H31.0983C29.6083 13.8319 28.4006 12.6236 28.4006 11.1337V2.90155C28.4006 2.31407 29.1055 2.01383 29.5291 2.42084L40.2121 12.6845Z" fill="#D7B528"/>
<path d="M30 28.8347C30 30.583 28.5558 32 26.7745 32H3.22552C1.44354 32 0 30.583 0 28.8347V19.1653C0 17.417 1.44371 16 3.22552 16H26.7745C28.5558 16 30 17.417 30 19.1653V28.8347Z" fill="#D7B528"/>
<path d="M11.023 25.8254V28H9.73101V21.8059H12.3097C13.0611 21.8059 13.6602 21.9955 14.1068 22.3748C14.5569 22.7505 14.782 23.245 14.782 23.8582C14.782 24.4572 14.5676 24.9322 14.1387 25.2831C13.7133 25.634 13.1249 25.8148 12.3735 25.8254H11.023ZM11.023 24.7833H12.3097C12.6783 24.7833 12.9672 24.7053 13.1763 24.5494C13.389 24.3934 13.4953 24.1666 13.4953 23.8688C13.4953 23.5604 13.3872 23.3141 13.171 23.1298C12.9583 22.9419 12.673 22.848 12.315 22.848H11.023V24.7833ZM18.0093 24.6291L19.4449 21.8059H20.8645L18.6367 25.852V28H17.35V25.7829L15.1595 21.8059H16.5791L18.0093 24.6291Z" fill="white"/>
</svg>
