<svg width="48" height="48" viewBox="0 0 48 48" fill="none" xmlns="http://www.w3.org/2000/svg">
<path d="M8.66617 0C7.1942 0 6 1.19353 6 2.66616V45.3333C6 46.806 7.1942 48 8.66617 48H39.3338C40.8065 48 42 46.8058 42 45.3333V14.0333C42 12.9574 41.5615 11.9279 40.7856 11.1825L30.2938 1.10251C29.5574 0.395086 28.576 0 27.5549 0H8.66617Z" fill="#A11D2A"/>
<path d="M40.2121 12.6845C40.645 13.1005 40.3506 13.8319 39.7502 13.8319H31.0983C29.6083 13.8319 28.4006 12.6236 28.4006 11.1337V2.90155C28.4006 2.31407 29.1055 2.01383 29.5291 2.42084L40.2121 12.6845Z" fill="#7F1325"/>
<path d="M30 28.8347C30 30.583 28.5558 32 26.7745 32H3.22552C1.44354 32 0 30.583 0 28.8347V19.1653C0 17.417 1.44371 16 3.22552 16H26.7745C28.5558 16 30 17.417 30 19.1653V28.8347Z" fill="#7F1325"/>
<path d="M11.6079 25.4745H8.96007V28H7.66808V21.8059H11.9641V22.848H8.96007V24.4377H11.6079V25.4745ZM14.0961 26.9685H17.047V28H12.8041V21.8059H14.0961V26.9685ZM19.8011 26.3411L19.9021 26.7505L19.9978 26.3518L21.5397 21.8059H22.9061L20.5561 28H19.2482L16.9034 21.8059H18.2699L19.8011 26.3411Z" fill="white"/>
<path d="M34.9304 33.8056C33.2252 35.0836 32.1457 38.5517 31.2365 40.4556C30.3267 42.3588 28.6506 42.133 28.6506 42.133V44.3769C28.6506 44.3769 29.7016 44.4057 30.5816 44.038C31.4643 43.6688 32.4865 42.8428 33.0848 41.8216C33.3171 41.422 33.6733 40.5998 34.0601 39.6896H36.7509V37.3866H35.0442C35.3068 36.8016 35.5444 36.3061 35.7251 36.0241C36.3796 35.002 37.9999 35.0279 37.9999 35.0279V32.839C38 32.8391 36.6353 32.5268 34.9304 33.8056Z" fill="#7F1325"/>
</svg>
