<svg width="48" height="48" viewBox="0 0 48 48" fill="none" xmlns="http://www.w3.org/2000/svg">
<path d="M18.2959 4C17.0283 4 16 4.96974 16 6.16625V40.8333C16 42.0299 17.0283 43 18.2959 43H44.7041C45.9722 43 47 42.0297 47 40.8333V15.4021V7.00001C47 5.34315 45.6569 4 44 4.00001L34.5611 4.00002L18.2959 4Z" fill="#203138"/>
<path d="M14.444 2C13.0947 2 12 3.09407 12 4.44398V43.5556C12 44.9055 13.0947 46 14.444 46H42.556C43.9059 46 45 44.9053 45 43.5556V14.8639V5C45 3.34314 43.6569 2 42 2L31.7586 2L14.444 2Z" fill="#2A4049"/>
<path d="M8.66617 0C7.1942 0 6 1.19353 6 2.66616V45.3333C6 46.806 7.1942 48 8.66617 48H39.3338C40.8065 48 42 46.8058 42 45.3333V14.0333V3.00001C42 1.34315 40.6569 2.44688e-06 39 5.46526e-06L27.5549 2.63155e-05L8.66617 0Z" fill="#344E5D"/>
<path d="M30 28.8347C30 30.583 28.5558 32 26.7745 32H3.22552C1.44354 32 0 30.583 0 28.8347V19.1653C0 17.417 1.44371 16 3.22552 16H26.7745C28.5558 16 30 17.417 30 19.1653V28.8347Z" fill="#2A4049"/>
<path d="M14.6491 22.529L11.9162 28H10.5551L13.288 22.848H9.76291V21.8059H14.6491V22.529ZM17.1055 26.9685H20.168V28H15.4998V27.1546L18.4187 23.2893H15.553V22.2472H20.0563V23.066L17.1055 26.9685Z" fill="white"/>
<path opacity="0.8" fill-rule="evenodd" clip-rule="evenodd" d="M32.2009 33.9586L32.2009 33.2131C32.2009 33.0954 32.2885 33 32.3967 33L36.2947 33C36.4027 33 36.4904 33.0954 36.4904 33.2131L36.4904 33.3462L38.0969 33.3462C38.205 33.3462 38.2927 33.4417 38.2927 33.5593L38.2927 36.9777L38.5454 36.9777L38.5454 37.315L38.2927 37.315L38.2927 37.7766L38.5454 37.7766L38.5454 38.1139L38.2927 38.1139L38.2927 38.5222L38.5454 38.5222L38.5454 38.8595L38.2927 38.8595L38.2927 39.3211L38.5454 39.3211L38.5454 39.6584L38.2927 39.6584L38.2927 41.3714C38.2927 41.4892 38.205 41.5845 38.0969 41.5845L36.4903 41.5845L36.4903 41.9307C36.4903 42.0484 36.4026 42.1437 36.2946 42.1437L32.3967 42.1437C32.2887 42.1437 32.201 42.0484 32.201 41.9307L32.201 41.1852C32.201 41.0674 32.2887 40.9721 32.3967 40.9721L32.9105 40.9721L32.9105 40.3862L33.9427 40.3862L33.9427 39.2071L33.5472 39.2071L33.5472 38.925L35.0982 38.925L35.0982 39.2071L34.6488 39.2071L34.6488 40.386L36.9227 40.386C37.0307 40.386 37.1184 40.2907 37.1184 40.173L37.1184 39.6583L36.8003 39.6583L36.8003 39.321L37.1184 39.321L37.1184 38.8594L36.8003 38.8594L36.8003 38.5221L37.1184 38.5221L37.1184 38.1138L36.8003 38.1138L36.8003 37.7764L37.1184 37.7764L37.1184 37.3149L36.8003 37.3149L36.8003 36.9775L37.1184 36.9775L37.1184 34.7042C37.1184 34.5866 37.0307 34.4912 36.9227 34.4912L32.9104 34.4912L32.9104 34.1717L32.3966 34.1717C32.2885 34.1717 32.2009 34.0763 32.2009 33.9586ZM34.652 42.4347L33.9426 42.4347L33.9427 44.2898L33.4655 44.2898L33.4655 44.7247L33.9427 44.7247L34.6521 44.7247L35.0069 44.7247L35.0069 44.2898L34.652 44.2898L34.652 42.4347ZM33.1882 43.988L33.123 43.988C33.015 43.988 32.9273 44.0834 32.9273 44.2011L32.9273 44.7869C32.9273 44.9046 33.015 45 33.123 45L33.1882 45C33.2963 45 33.3838 44.9046 33.3838 44.7869L33.3838 44.2011C33.3838 44.0834 33.2963 43.988 33.1882 43.988ZM35.3656 43.988L35.3005 43.988C35.1924 43.988 35.1046 44.0834 35.1048 44.2011L35.1048 44.7869C35.1048 44.9046 35.1924 45 35.3005 45L35.3656 45C35.4737 45 35.5613 44.9046 35.5613 44.7869L35.5613 44.2011C35.5613 44.0834 35.4736 43.988 35.3656 43.988ZM36.1318 38.1089C36.1318 38.2372 36.0362 38.3413 35.9183 38.3413L32.2135 38.3413C32.0956 38.3413 32 38.2372 32 38.1089L32 35.436C32 35.3076 32.0956 35.2036 32.2135 35.2036L35.0081 35.2036C35.0942 35.2036 35.1766 35.2418 35.2363 35.3094L36.0435 36.2239C36.1001 36.2881 36.1318 36.3736 36.1318 36.4626L36.1318 38.1089ZM35.065 35.4208C35.0317 35.383 34.9731 35.4087 34.9731 35.461L34.9731 36.2154C34.9731 36.3453 35.0699 36.4506 35.1892 36.4506L35.8486 36.4506C35.8957 36.4506 35.9197 36.3891 35.8871 36.3522L35.065 35.4208Z" fill="#2A4049"/>
</svg>
