<svg width="48" height="48" viewBox="0 0 48 48" fill="none" xmlns="http://www.w3.org/2000/svg">
<g clip-path="url(#clip0)">
<path d="M8.66617 0C7.1942 0 6 1.19353 6 2.66616V45.3333C6 46.806 7.1942 48 8.66617 48H39.3338C40.8065 48 42 46.8058 42 45.3333V14.0333C42 12.9574 41.5615 11.9279 40.7856 11.1825L30.2938 1.10251C29.5574 0.395086 28.576 0 27.5549 0H8.66617Z" fill="#2A0034"/>
<path d="M40.2121 12.6845C40.645 13.1005 40.3506 13.8319 39.7502 13.8319H31.0983C29.6083 13.8319 28.4006 12.6236 28.4006 11.1337V2.90155C28.4006 2.31407 29.1055 2.01383 29.5291 2.42084L40.2121 12.6845Z" fill="#EA77FF"/>
<path d="M24.3609 43.0999H26.1984V39.0687C26.2859 39.0812 26.4109 39.0937 26.5734 39.1062C26.7359 39.1187 26.8859 39.1249 27.0234 39.1249C28.4734 39.1124 29.6609 38.8874 30.5859 38.4499C31.5234 37.9999 31.9859 37.1249 31.9734 35.8249C31.9734 33.7999 30.5609 32.7874 27.7359 32.7874H24.3609V43.0999ZM27.5484 34.4374C28.3484 34.4374 28.9734 34.5374 29.4234 34.7374C29.8859 34.9249 30.1172 35.2999 30.1172 35.8624C30.1172 36.5124 29.8484 36.9437 29.3109 37.1562C28.7859 37.3562 28.0484 37.4562 27.0984 37.4562L26.6672 37.4374C26.4672 37.4124 26.3109 37.3999 26.1984 37.3999V34.4374H27.5484ZM33.3187 35.8999V43.0999H35.1V37.5499C35.475 37.4124 35.8687 37.3437 36.2812 37.3437C36.8812 37.3437 37.3937 37.4687 37.8187 37.7187L37.8937 37.6999L38.25 36.0687C37.8375 35.8812 37.4 35.7874 36.9375 35.7874C36.1875 35.7874 35.4812 35.9999 34.8187 36.4249L34.5937 35.8999H33.3187Z" fill="#F7D9FF"/>
</g>
<defs>
<clipPath id="clip0">
<rect x="6" width="36" height="48" rx="3" fill="white"/>
</clipPath>
</defs>
</svg>
