<svg width="48" height="48" viewBox="0 0 48 48" fill="none" xmlns="http://www.w3.org/2000/svg">
<path d="M8.66617 0C7.1942 0 6 1.19353 6 2.66616V45.3333C6 46.806 7.1942 48 8.66617 48H39.3338C40.8065 48 42 46.8058 42 45.3333V14.0333C42 12.9574 41.5615 11.9279 40.7856 11.1825L30.2938 1.10251C29.5574 0.395086 28.576 0 27.5549 0H8.66617Z" fill="#F7B52E"/>
<path d="M40.2121 12.6845C40.645 13.1005 40.3506 13.8319 39.7502 13.8319H31.0983C29.6083 13.8319 28.4006 12.6236 28.4006 11.1337V2.90155C28.4006 2.31407 29.1055 2.01383 29.5291 2.42084L40.2121 12.6845Z" fill="#DE9D27"/>
<path d="M30 28.8347C30 30.583 28.5558 32 26.7745 32H3.22552C1.44354 32 0 30.583 0 28.8347V19.1653C0 17.417 1.44371 16 3.22552 16H26.7745C28.5558 16 30 17.417 30 19.1653V28.8347Z" fill="#DE9D27"/>
<path d="M5.34462 28V21.8059H7.3597C7.94101 21.8059 8.46029 21.9282 8.91753 22.1727C9.37833 22.4173 9.73633 22.7629 9.99154 23.2095C10.2467 23.6526 10.3779 24.1559 10.385 24.7195V25.0438C10.385 25.6216 10.2574 26.1356 10.0022 26.5857C9.75051 27.0359 9.39073 27.385 8.92285 27.6331C8.45851 27.8777 7.9286 28 7.33312 28H5.34462ZM6.63661 22.848V26.9685H7.3278C8.48687 26.9685 9.07704 26.3518 9.09831 25.1183V24.762C9.09831 23.5144 8.54713 22.8763 7.44477 22.848H6.63661ZM16.5844 26.4103L17.5149 21.8059H18.7696L17.2703 28H16.0208L14.8724 23.5711L13.708 28H12.4586L10.9592 21.8059H12.214L13.1551 26.4209L14.3035 21.8059H15.4413L16.5844 26.4103ZM24.783 27.2184L24.6607 27.346C24.129 27.8387 23.3333 28.0851 22.2734 28.0851C21.3944 28.0851 20.6961 27.8175 20.1786 27.2822C19.6611 26.747 19.4023 26.0097 19.4023 25.0704V24.7248C19.4023 23.7855 19.6487 23.05 20.1414 22.5183C20.6341 21.9867 21.3129 21.7208 22.1777 21.7208C22.9398 21.7208 23.5424 21.8945 23.9855 22.2419C24.4285 22.5857 24.6944 23.0979 24.783 23.7784H23.5229C23.4591 23.424 23.3191 23.1652 23.1029 23.0022C22.8902 22.8391 22.5924 22.7576 22.2096 22.7576C21.203 22.7576 20.6997 23.4222 20.6997 24.7514V25.0917C20.6997 25.7403 20.8414 26.2295 21.125 26.5591C21.4086 26.8888 21.8126 27.0536 22.3372 27.0536C22.8618 27.0536 23.2482 26.9526 23.4963 26.7505V25.6872H22.1724V24.7461H24.783V27.2184Z" fill="white"/>
</svg>
