<svg width="48" height="48" viewBox="0 0 48 48" fill="none" xmlns="http://www.w3.org/2000/svg">
<g clip-path="url(#clip0)">
<path d="M8.66617 0C7.1942 0 6 1.19353 6 2.66616V45.3333C6 46.806 7.1942 48 8.66617 48H39.3338C40.8065 48 42 46.8058 42 45.3333V14.0333C42 12.9574 41.5615 11.9279 40.7856 11.1825L30.2938 1.10251C29.5574 0.395086 28.576 0 27.5549 0H8.66617Z" fill="#061E26"/>
<path d="M40.2121 12.6845C40.645 13.1005 40.3506 13.8319 39.7502 13.8319H31.0983C29.6083 13.8319 28.4006 12.6236 28.4006 11.1337V2.90155C28.4006 2.31407 29.1055 2.01383 29.5291 2.42084L40.2121 12.6845Z" fill="#2381B6"/>
<path d="M23.275 43H25.1125V38.9688C25.2 38.9813 25.325 38.9938 25.4875 39.0063C25.65 39.0188 25.8 39.025 25.9375 39.025C27.3875 39.0125 28.575 38.7875 29.5 38.35C30.4375 37.9 30.9 37.025 30.8875 35.725C30.8875 33.7 29.475 32.6875 26.65 32.6875H23.275V43ZM26.4625 34.3375C27.2625 34.3375 27.8875 34.4375 28.3375 34.6375C28.8 34.825 29.0312 35.2 29.0312 35.7625C29.0312 36.4125 28.7625 36.8438 28.225 37.0563C27.7 37.2563 26.9625 37.3563 26.0125 37.3563L25.5813 37.3375C25.3812 37.3125 25.225 37.3 25.1125 37.3V34.3375H26.4625ZM31.9328 42.5125C32.8703 42.95 33.8016 43.1687 34.7266 43.1687C35.9266 43.1687 36.7641 42.9438 37.2391 42.4938C37.7266 42.0313 37.9703 41.5187 37.9703 40.9562C37.9703 40.4938 37.8391 40.1125 37.5766 39.8125C37.3266 39.5125 37.0203 39.2813 36.6578 39.1188C36.3078 38.9562 35.8578 38.7937 35.3078 38.6313C34.8078 38.4812 34.4391 38.3437 34.2016 38.2188C33.9766 38.0938 33.8641 37.9313 33.8641 37.7313C33.8641 37.5437 33.9578 37.4 34.1453 37.3C34.3328 37.2 34.7016 37.15 35.2516 37.15C35.7516 37.15 36.3891 37.2625 37.1641 37.4875L37.6141 36.1C37.3016 36 36.9203 35.9063 36.4703 35.8188C36.0328 35.7313 35.6203 35.6875 35.2328 35.6875C34.0203 35.6875 33.2078 35.8938 32.7953 36.3063C32.3828 36.7063 32.1766 37.1563 32.1766 37.6563C32.1766 38.1687 32.3141 38.5938 32.5891 38.9313C32.8641 39.2563 33.1891 39.5063 33.5641 39.6813C33.9391 39.8438 34.4016 40.0063 34.9516 40.1688C35.4141 40.3188 35.7453 40.4438 35.9453 40.5438C36.1453 40.6438 36.2453 40.775 36.2453 40.9375C36.2453 41.175 36.1391 41.35 35.9266 41.4625C35.7141 41.575 35.3453 41.6313 34.8203 41.6313C34.5328 41.6313 34.1703 41.5813 33.7328 41.4812C33.2953 41.3813 32.8641 41.2563 32.4391 41.1063L31.9328 42.5125Z" fill="#D9F5FF"/>
</g>
<defs>
<clipPath id="clip0">
<rect x="6" width="36" height="48" rx="3" fill="white"/>
</clipPath>
</defs>
</svg>
