<svg width="48" height="48" viewBox="0 0 48 48" fill="none" xmlns="http://www.w3.org/2000/svg">
<g clip-path="url(#clip0)">
<path d="M8.66617 0C7.1942 0 6 1.19353 6 2.66616V45.3333C6 46.806 7.1942 48 8.66617 48H39.3338C40.8065 48 42 46.8058 42 45.3333V14.0333C42 12.9574 41.5615 11.9279 40.7856 11.1825L30.2938 1.10251C29.5574 0.395086 28.576 0 27.5549 0H8.66617Z" fill="#F7CE28"/>
<path d="M40.2121 12.6845C40.645 13.1005 40.3506 13.8319 39.7502 13.8319H31.0983C29.6083 13.8319 28.4006 12.6236 28.4006 11.1337V2.90155C28.4006 2.31407 29.1055 2.01383 29.5291 2.42084L40.2121 12.6845Z" fill="#DFBB26"/>
<path d="M37.1038 39.9052L37.1038 37.8104L34.5108 37.8104L34.5108 39.9052L37.1038 39.9052Z" fill="#DFBB26"/>
<path d="M42.186 39.9052L42.186 37.8104L39.593 37.8104L39.593 39.9052L42.186 39.9052Z" fill="#DFBB26"/>
<path d="M34.5107 42.0001L34.5107 39.9053L31.9177 39.9053L31.9177 42.0001L34.5107 42.0001Z" fill="#DFBB26"/>
<path d="M39.593 42.0001L39.593 39.9053L37 39.9053L37 42.0001L39.593 42.0001Z" fill="#DFBB26"/>
<path d="M31.9177 39.9052L31.9177 37.8104L29.3247 37.8104L29.3247 39.9052L31.9177 39.9052Z" fill="#DFBB26"/>
<path d="M29.325 42.0001L29.325 39.9053L26.732 39.9053L26.732 42.0001L29.325 42.0001Z" fill="#DFBB26"/>
<path d="M26.7307 39.9052L26.7307 37.8104L24.1377 37.8104L24.1377 39.9052L26.7307 39.9052Z" fill="#DFBB26"/>
<path d="M24.1389 42.0001L24.1389 39.9053L21.5459 39.9053L21.5459 42.0001L24.1389 42.0001Z" fill="#DFBB26"/>
<path fill-rule="evenodd" clip-rule="evenodd" d="M16.8617 38.318C15.8847 38.1623 15 38.9171 15 39.9065C15 40.8959 15.8847 41.6508 16.8617 41.4952L20.3923 40.9328L20.3923 38.8803L16.8617 38.318ZM16.6512 40.7779C16.1691 40.7779 15.7783 40.3871 15.7783 39.9051C15.7783 39.4229 16.1691 39.0322 16.6512 39.0322C17.1332 39.0322 17.524 39.4229 17.524 39.9051C17.524 40.3871 17.1332 40.7779 16.6512 40.7779Z" fill="#DFBB26"/>
</g>
<path d="M30 28.8347C30 30.583 28.5558 32 26.7745 32H3.22552C1.44354 32 0 30.583 0 28.8347V19.1653C0 17.417 1.44371 16 3.22552 16H26.7745C28.5558 16 30 17.417 30 19.1653V28.8347Z" fill="#DFBB26"/>
<path d="M9.80013 26.9685H13.1763V28H8.14659V27.2503L11.443 22.848H8.15191V21.8059H13.0859V22.5396L9.80013 26.9685ZM15.4626 28H14.1759V21.8059H15.4626V28ZM18.0891 25.8254V28H16.7971V21.8059H19.3758C20.1272 21.8059 20.7262 21.9955 21.1729 22.3748C21.623 22.7505 21.8481 23.245 21.8481 23.8582C21.8481 24.4572 21.6336 24.9322 21.2048 25.2831C20.7794 25.634 20.191 25.8148 19.4396 25.8254H18.0891ZM18.0891 24.7833H19.3758C19.7444 24.7833 20.0333 24.7053 20.2424 24.5494C20.4551 24.3934 20.5614 24.1666 20.5614 23.8688C20.5614 23.5604 20.4533 23.3141 20.2371 23.1298C20.0244 22.9419 19.7391 22.848 19.3811 22.848H18.0891V24.7833Z" fill="white"/>
<defs>
<clipPath id="clip0">
<rect x="6" width="36" height="48" rx="3" fill="white"/>
</clipPath>
</defs>
</svg>
