<svg width="48" height="48" viewBox="0 0 48 48" fill="none" xmlns="http://www.w3.org/2000/svg">
<g clip-path="url(#clip0)">
<path d="M8.66617 0C7.1942 0 6 1.19353 6 2.66616V45.3333C6 46.806 7.1942 48 8.66617 48H39.3338C40.8065 48 42 46.8058 42 45.3333V14.0333C42 12.9574 41.5615 11.9279 40.7856 11.1825L30.2938 1.10251C29.5574 0.395086 28.576 0 27.5549 0H8.66617Z" fill="#2B0028"/>
<path d="M40.2121 12.6845C40.645 13.1005 40.3506 13.8319 39.7502 13.8319H31.0983C29.6083 13.8319 28.4006 12.6236 28.4006 11.1337V2.90155C28.4006 2.31407 29.1055 2.01383 29.5291 2.42084L40.2121 12.6845Z" fill="#FF5FF8"/>
<path d="M27.3658 43.1H29.2033V32.7875H27.3658V43.1ZM32.7887 39.5375C32.7887 38.825 32.9699 38.2562 33.3324 37.8312C33.7074 37.4062 34.2512 37.1937 34.9637 37.1937C35.3012 37.1937 35.5949 37.2312 35.8449 37.3062C36.1074 37.3687 36.4637 37.475 36.9137 37.625L37.4199 36.4437C36.9699 36.2312 36.5387 36.0687 36.1262 35.9562C35.7262 35.8437 35.2387 35.7875 34.6637 35.7875C33.5262 35.7875 32.6199 36.125 31.9449 36.8C31.2699 37.4625 30.9324 38.375 30.9324 39.5375C30.9324 40.6625 31.2699 41.5687 31.9449 42.2562C32.6324 42.9437 33.5387 43.2875 34.6637 43.2875C35.2637 43.2875 35.7762 43.225 36.2012 43.1C36.6387 42.975 37.0449 42.8062 37.4199 42.5937L36.9137 41.4312C36.4637 41.5812 36.1074 41.6937 35.8449 41.7687C35.5949 41.8312 35.3012 41.8625 34.9637 41.8625C34.2887 41.8625 33.7574 41.65 33.3699 41.225C32.9824 40.7875 32.7887 40.225 32.7887 39.5375Z" fill="#EED9FF"/>
</g>
<defs>
<clipPath id="clip0">
<rect x="6" width="36" height="48" rx="3" fill="white"/>
</clipPath>
</defs>
</svg>
