<svg width="48" height="48" viewBox="0 0 48 48" fill="none" xmlns="http://www.w3.org/2000/svg">
<path d="M8.66617 0C7.1942 0 6 1.19353 6 2.66616V45.3333C6 46.806 7.1942 48 8.66617 48H39.3338C40.8065 48 42 46.8058 42 45.3333V14.0333C42 12.9574 41.5615 11.9279 40.7856 11.1825L30.2938 1.10251C29.5574 0.395086 28.576 0 27.5549 0H8.66617Z" fill="#4ABC96"/>
<path d="M40.2121 12.6845C40.645 13.1005 40.3506 13.8319 39.7502 13.8319H31.0983C29.6083 13.8319 28.4006 12.6236 28.4006 11.1337V2.90155C28.4006 2.31407 29.1055 2.01383 29.5291 2.42084L40.2121 12.6845Z" fill="#41A884"/>
<path d="M30 28.8347C30 30.583 28.5558 32 26.7745 32H3.22552C1.44354 32 0 30.583 0 28.8347V19.1653C0 17.417 1.44371 16 3.22552 16H26.7745C28.5558 16 30 17.417 30 19.1653V28.8347Z" fill="#41A884"/>
<path d="M9.53429 21.8059H10.8263V26.0594C10.8263 26.6761 10.6242 27.1688 10.2202 27.5374C9.81963 27.9025 9.30389 28.0851 8.67296 28.0851C7.95696 28.0851 7.39869 27.9149 6.99816 27.5747C6.60116 27.2344 6.40267 26.7541 6.40267 26.1338H7.69998C7.69998 26.747 8.02431 27.0536 8.67296 27.0536C8.9388 27.0536 9.14793 26.9703 9.30035 26.8037C9.45631 26.6371 9.53429 26.389 9.53429 26.0594V21.8059ZM13.3518 25.8254V28H12.0598V21.8059H14.6385C15.3899 21.8059 15.9889 21.9955 16.4355 22.3748C16.8857 22.7505 17.1108 23.245 17.1108 23.8582C17.1108 24.4572 16.8963 24.9322 16.4674 25.2831C16.0421 25.634 15.4537 25.8148 14.7023 25.8254H13.3518ZM13.3518 24.7833H14.6385C15.0071 24.7833 15.296 24.7053 15.5051 24.5494C15.7178 24.3934 15.8241 24.1666 15.8241 23.8688C15.8241 23.5604 15.716 23.3141 15.4998 23.1298C15.2871 22.9419 15.0018 22.848 14.6438 22.848H13.3518V24.7833ZM23.289 27.2184L23.1667 27.346C22.635 27.8387 21.8392 28.0851 20.7794 28.0851C19.9004 28.0851 19.2021 27.8175 18.6846 27.2822C18.1671 26.747 17.9083 26.0097 17.9083 25.0704V24.7248C17.9083 23.7855 18.1547 23.05 18.6474 22.5183C19.14 21.9867 19.8188 21.7208 20.6837 21.7208C21.4458 21.7208 22.0484 21.8945 22.4914 22.2419C22.9345 22.5857 23.2003 23.0979 23.289 23.7784H22.0289C21.9651 23.424 21.8251 23.1652 21.6088 23.0022C21.3962 22.8391 21.0984 22.7576 20.7156 22.7576C19.7089 22.7576 19.2056 23.4222 19.2056 24.7514V25.0917C19.2056 25.7403 19.3474 26.2295 19.631 26.5591C19.9145 26.8888 20.3186 27.0536 20.8432 27.0536C21.3678 27.0536 21.7542 26.9526 22.0023 26.7505V25.6872H20.6784V24.7461H23.289V27.2184Z" fill="white"/>
<path fill-rule="evenodd" clip-rule="evenodd" d="M39 43.6725C39 44.4058 38.4032 45 37.6725 45H28.3275C27.5942 45 27 44.4032 27 43.6725V34.3275C27 33.5942 27.5968 33 28.3275 33H37.6725C38.4058 33 39 33.5968 39 34.3275V43.6725ZM28.3275 44.2493H37.6725C37.9894 44.2493 38.2493 43.9894 38.2493 43.6725V42.1445L36.0827 39.9779L34.2197 41.8409C34.0727 41.9879 33.8364 41.9879 33.6894 41.8409L30.2802 38.4317L27.7507 40.9612V43.6725C27.7507 43.9894 28.0106 44.2493 28.3275 44.2493ZM37.6725 33.7507H28.3275C28.0106 33.7507 27.7507 34.0106 27.7507 34.3275V39.8984L30.0163 37.6351C30.1633 37.4881 30.3996 37.4881 30.5466 37.6351L33.9558 41.0443L35.8188 39.1813C35.9658 39.0343 36.2021 39.0343 36.3491 39.1813L38.2493 41.0815V34.3275C38.2493 34.0106 37.9894 33.7507 37.6725 33.7507ZM35.2504 37.903C34.3743 37.903 33.6639 37.19 33.6639 36.3165C33.6639 35.443 34.3768 34.7301 35.2504 34.7301C36.1239 34.7301 36.8368 35.443 36.8368 36.3165C36.8368 37.19 36.1264 37.903 35.2504 37.903ZM35.2504 35.4808C34.7884 35.4808 34.4147 35.8567 34.4147 36.3165C34.4147 36.7762 34.7907 37.1522 35.2504 37.1522C35.7101 37.1522 36.0861 36.7762 36.0861 36.3165C36.0861 35.8567 35.7124 35.4808 35.2504 35.4808Z" fill="#44B08B"/>
</svg>
