<svg width="48" height="48" viewBox="0 0 48 48" fill="none" xmlns="http://www.w3.org/2000/svg">
<path d="M8.66617 0C7.1942 0 6 1.19353 6 2.66616V45.3333C6 46.806 7.1942 48 8.66617 48H39.3338C40.8065 48 42 46.8058 42 45.3333V14.0333C42 12.9574 41.5615 11.9279 40.7856 11.1825L30.2938 1.10251C29.5574 0.395086 28.576 0 27.5549 0H8.66617Z" fill="#9DCB3B"/>
<path d="M40.2121 12.6845C40.645 13.1005 40.3506 13.8319 39.7502 13.8319H31.0983C29.6083 13.8319 28.4006 12.6236 28.4006 11.1337V2.90155C28.4006 2.31407 29.1055 2.01383 29.5291 2.42084L40.2121 12.6845Z" fill="#96B33D"/>
<path d="M30 28.8347C30 30.583 28.5558 32 26.7745 32H3.22552C1.44354 32 0 30.583 0 28.8347V19.1653C0 17.417 1.44371 16 3.22552 16H26.7745C28.5558 16 30 17.417 30 19.1653V28.8347Z" fill="#96B33D"/>
<path d="M6.58876 23.9486L7.87543 21.8059H9.38542L7.3916 24.879L9.49707 28H7.96582L6.61003 25.8254L5.28082 28H3.77083L5.81782 24.879L3.81868 21.8059H5.31803L6.58876 23.9486ZM11.5228 26.9685H14.4736V28H10.2308V21.8059H11.5228V26.9685ZM18.7696 26.373C18.7696 26.1391 18.6775 25.953 18.4932 25.8148C18.3088 25.673 17.9455 25.5348 17.4032 25.4001C16.8644 25.2654 16.4391 25.1112 16.1272 24.9375C15.8152 24.7638 15.5849 24.5618 15.436 24.3314C15.2907 24.0974 15.218 23.8174 15.218 23.4913C15.218 22.9738 15.436 22.5502 15.872 22.2206C16.3079 21.8874 16.8715 21.7208 17.5627 21.7208C18.3071 21.7208 18.9043 21.898 19.3545 22.2525C19.8047 22.607 20.0297 23.0677 20.0297 23.6349H18.7377C18.7377 23.3478 18.6314 23.1227 18.4187 22.9596C18.2061 22.793 17.9207 22.7097 17.5627 22.7097C17.226 22.7097 16.9601 22.7789 16.7652 22.9171C16.5702 23.0518 16.4728 23.2326 16.4728 23.4594C16.4728 23.665 16.572 23.8351 16.7705 23.9698C16.9725 24.1045 17.327 24.2339 17.8339 24.358C18.6172 24.5494 19.179 24.8028 19.5193 25.1183C19.8596 25.4337 20.0297 25.8431 20.0297 26.3465C20.0297 26.8888 19.81 27.3141 19.3704 27.6225C18.9309 27.9309 18.3496 28.0851 17.6265 28.0851C17.1374 28.0851 16.689 28.0035 16.2814 27.8405C15.8773 27.6739 15.5636 27.44 15.3403 27.1387C15.117 26.8374 15.0053 26.4865 15.0053 26.0859H16.3026C16.3026 26.7665 16.7563 27.1068 17.6637 27.1068C18.0076 27.1068 18.2769 27.0412 18.4719 26.91C18.6704 26.7789 18.7696 26.5999 18.7696 26.373ZM23.3262 23.9486L24.6128 21.8059H26.1228L24.129 24.879L26.2345 28H24.7032L23.3474 25.8254L22.0182 28H20.5082L22.5552 24.879L20.5561 21.8059H22.0554L23.3262 23.9486Z" fill="white"/>
</svg>
