<svg width="48" height="48" viewBox="0 0 48 48" fill="none" xmlns="http://www.w3.org/2000/svg">
<g clip-path="url(#clip0)">
<path d="M8.66617 0C7.1942 0 6 1.19353 6 2.66616V45.3333C6 46.806 7.1942 48 8.66617 48H39.3338C40.8065 48 42 46.8058 42 45.3333V14.0333C42 12.9574 41.5615 11.9279 40.7856 11.1825L30.2938 1.10251C29.5574 0.395086 28.576 0 27.5549 0H8.66617Z" fill="#120127"/>
<path d="M40.2121 12.6845C40.645 13.1005 40.3506 13.8319 39.7502 13.8319H31.0983C29.6083 13.8319 28.4006 12.6236 28.4006 11.1337V2.90155C28.4006 2.31407 29.1055 2.01383 29.5291 2.42084L40.2121 12.6845Z" fill="#D3A4FF"/>
<path d="M20.1271 43.0999H21.9271L22.9583 40.3812H26.7646L27.8146 43.0999H29.6708L25.7896 32.7874H24.0083L20.1271 43.0999ZM23.5396 38.7312L24.8521 34.8687L26.1646 38.7312H23.5396ZM33.7987 35.7874C33.2112 35.7874 32.6612 35.9437 32.1487 36.2562C31.6487 36.5562 31.2425 36.9937 30.93 37.5687C30.6175 38.1312 30.4612 38.7874 30.4612 39.5374C30.4612 40.6624 30.7862 41.5687 31.4362 42.2562C32.0862 42.9437 33.03 43.2874 34.2675 43.2874C35.155 43.2874 36.005 43.1437 36.8175 42.8562L36.4987 41.6374C35.8987 41.7874 35.2362 41.8624 34.5112 41.8624C33.8237 41.8624 33.2925 41.7437 32.9175 41.5062C32.5425 41.2687 32.33 40.8437 32.28 40.2312H37.1737V39.5374C37.1737 38.3749 36.88 37.4624 36.2925 36.7999C35.7175 36.1249 34.8862 35.7874 33.7987 35.7874ZM33.8362 37.1937C34.2987 37.1937 34.6737 37.3499 34.9612 37.6624C35.2487 37.9624 35.3925 38.3999 35.3925 38.9749H32.3175C32.3425 38.4124 32.505 37.9749 32.805 37.6624C33.1175 37.3499 33.4612 37.1937 33.8362 37.1937Z" fill="#E7D9FF"/>
</g>
<defs>
<clipPath id="clip0">
<rect x="6" width="36" height="48" rx="3" fill="white"/>
</clipPath>
</defs>
</svg>
