<svg width="48" height="48" viewBox="0 0 48 48" fill="none" xmlns="http://www.w3.org/2000/svg">
<path d="M8.66617 0C7.1942 0 6 1.19353 6 2.66616V45.3333C6 46.806 7.1942 48 8.66617 48H39.3338C40.8065 48 42 46.8058 42 45.3333V14.0333C42 12.9574 41.5615 11.9279 40.7856 11.1825L30.2938 1.10251C29.5574 0.395086 28.576 0 27.5549 0H8.66617Z" fill="#7D9D3E"/>
<path d="M40.2121 12.6845C40.645 13.1005 40.3506 13.8319 39.7502 13.8319H31.0983C29.6083 13.8319 28.4006 12.6236 28.4006 11.1337V2.90155C28.4006 2.31407 29.1055 2.01383 29.5291 2.42084L40.2121 12.6845Z" fill="#718839"/>
<path d="M30 28.8347C30 30.583 28.5558 32 26.7745 32H3.22552C1.44354 32 0 30.583 0 28.8347V19.1653C0 17.417 1.44371 16 3.22552 16H26.7745C28.5558 16 30 17.417 30 19.1653V28.8347Z" fill="#718839"/>
<path d="M9.56087 23.9486L10.8475 21.8059H12.3575L10.3637 24.879L12.4692 28H10.9379L9.58214 25.8254L8.25293 28H6.74295L8.78993 24.879L6.7908 21.8059H8.29015L9.56087 23.9486ZM14.4949 26.9685H17.4457V28H13.2029V21.8059H14.4949V26.9685ZM21.7418 26.373C21.7418 26.1391 21.6496 25.953 21.4653 25.8148C21.281 25.673 20.9176 25.5348 20.3753 25.4001C19.8366 25.2654 19.4112 25.1112 19.0993 24.9375C18.7874 24.7638 18.557 24.5618 18.4081 24.3314C18.2628 24.0974 18.1901 23.8174 18.1901 23.4913C18.1901 22.9738 18.4081 22.5502 18.8441 22.2206C19.2801 21.8874 19.8436 21.7208 20.5348 21.7208C21.2792 21.7208 21.8764 21.898 22.3266 22.2525C22.7768 22.607 23.0018 23.0677 23.0018 23.6349H21.7099C21.7099 23.3478 21.6035 23.1227 21.3908 22.9596C21.1782 22.793 20.8928 22.7097 20.5348 22.7097C20.1981 22.7097 19.9323 22.7789 19.7373 22.9171C19.5424 23.0518 19.4449 23.2326 19.4449 23.4594C19.4449 23.665 19.5441 23.8351 19.7426 23.9698C19.9447 24.1045 20.2991 24.2339 20.806 24.358C21.5893 24.5494 22.1511 24.8028 22.4914 25.1183C22.8317 25.4337 23.0018 25.8431 23.0018 26.3465C23.0018 26.8888 22.7821 27.3141 22.3426 27.6225C21.903 27.9309 21.3217 28.0851 20.5986 28.0851C20.1095 28.0851 19.6611 28.0035 19.2535 27.8405C18.8494 27.6739 18.5357 27.44 18.3124 27.1387C18.0891 26.8374 17.9774 26.4865 17.9774 26.0859H19.2747C19.2747 26.7665 19.7284 27.1068 20.6358 27.1068C20.9797 27.1068 21.2491 27.0412 21.444 26.91C21.6425 26.7789 21.7418 26.5999 21.7418 26.373Z" fill="white"/>
</svg>
