<svg width="48" height="48" viewBox="0 0 48 48" fill="none" xmlns="http://www.w3.org/2000/svg">
<path d="M8.66617 0C7.1942 0 6 1.19353 6 2.66616V45.3333C6 46.806 7.1942 48 8.66617 48H39.3338C40.8065 48 42 46.8058 42 45.3333V14.0333C42 12.9574 41.5615 11.9279 40.7856 11.1825L30.2938 1.10251C29.5574 0.395086 28.576 0 27.5549 0H8.66617Z" fill="#EB9682"/>
<path d="M40.2121 12.6845C40.645 13.1005 40.3506 13.8319 39.7502 13.8319H31.0983C29.6083 13.8319 28.4006 12.6236 28.4006 11.1337V2.90155C28.4006 2.31407 29.1055 2.01383 29.5291 2.42084L40.2121 12.6845Z" fill="#D68A7B"/>
<path d="M30 28.8347C30 30.583 28.5558 32 26.7745 32H3.22552C1.44354 32 0 30.583 0 28.8347V19.1653C0 17.417 1.44371 16 3.22552 16H26.7745C28.5558 16 30 17.417 30 19.1653V28.8347Z" fill="#D68A7B"/>
<path d="M7.35438 21.8059L9.14616 26.288L10.922 21.8059H12.6127V28H11.3261V26.3252L11.459 23.2946L9.58746 28H8.69423L6.82802 23.3212L6.96094 26.3252V28H5.67426V21.8059H7.35438ZM17.7648 25.6393H18.5836V26.6814H17.7648V28H16.4728V26.6814H13.5538L13.5007 25.8573L16.4462 21.8059H17.7648V25.6393ZM14.798 25.6393H16.4728V23.4594L16.3664 23.6349L14.798 25.6393ZM21.7949 26.3411L21.8959 26.7505L21.9916 26.3518L23.5335 21.8059H24.9L22.5499 28H21.242L18.8972 21.8059H20.2637L21.7949 26.3411Z" fill="white"/>
<path d="M38.625 45.25C38.8321 45.25 39 45.0821 39 44.875V34.375C39 34.1679 38.8321 34 38.625 34H27.375C27.1679 34 27 34.1679 27 34.375V44.875C27 45.0821 27.1679 45.25 27.375 45.25H38.625ZM30.75 44.5H29.625V43.375H30.75V44.5ZM32.625 44.5H31.5V43.375H32.625V44.5ZM34.5 44.5H33.375V43.375H34.5V44.5ZM36.375 44.5H35.25V43.375H36.375V44.5ZM38.25 44.5H37.125V43.375H38.25V44.5ZM27.75 34.9H38.25V42.625H27.75V34.9ZM27.75 43.375H28.875V44.5H27.75V43.375Z" fill="#D68A7B"/>
<path d="M35.0739 38.432L32.0739 36.557C31.9581 36.4849 31.8126 36.481 31.6932 36.5471C31.574 36.6132 31.5 36.7387 31.5 36.8751V40.6251C31.5 40.7615 31.574 40.8869 31.6932 40.953C31.8126 41.0191 31.9581 41.0153 32.0739 40.9431L35.0739 39.0681C35.1841 38.9997 35.2513 38.8792 35.2513 38.7494C35.2513 38.6195 35.1841 38.4991 35.0739 38.4306V38.432ZM32.25 39.9502V37.5539L34.1675 38.7501L32.25 39.9502Z" fill="#D68A7B"/>
</svg>
