<svg width="48" height="48" viewBox="0 0 48 48" fill="none" xmlns="http://www.w3.org/2000/svg">
<path d="M8.66617 0C7.1942 0 6 1.19353 6 2.66616V45.3333C6 46.806 7.1942 48 8.66617 48H39.3338C40.8065 48 42 46.8058 42 45.3333V14.0333C42 12.9574 41.5615 11.9279 40.7856 11.1825L30.2938 1.10251C29.5574 0.395086 28.576 0 27.5549 0H8.66617Z" fill="#F7981D"/>
<path d="M40.2121 12.6845C40.645 13.1005 40.3506 13.8319 39.7502 13.8319H31.0983C29.6083 13.8319 28.4006 12.6236 28.4006 11.1337V2.90155C28.4006 2.31407 29.1055 2.01383 29.5291 2.42084L40.2121 12.6845Z" fill="#E88524"/>
<path d="M30 28.8347C30 30.583 28.5558 32 26.7745 32H3.22552C1.44354 32 0 30.583 0 28.8347V19.1653C0 17.417 1.44371 16 3.22552 16H26.7745C28.5558 16 30 17.417 30 19.1653V28.8347Z" fill="#E88524"/>
<path d="M8.02962 25.8254V28H6.73763V21.8059H9.3163C10.0677 21.8059 10.6668 21.9955 11.1134 22.3748C11.5635 22.7505 11.7886 23.245 11.7886 23.8582C11.7886 24.4572 11.5742 24.9322 11.1453 25.2831C10.7199 25.634 10.1315 25.8148 9.3801 25.8254H8.02962ZM8.02962 24.7833H9.3163C9.68493 24.7833 9.97381 24.7053 10.1829 24.5494C10.3956 24.3934 10.502 24.1666 10.502 23.8688C10.502 23.5604 10.3938 23.3141 10.1776 23.1298C9.96495 22.9419 9.67962 22.848 9.32161 22.848H8.02962V24.7833ZM14.0589 25.8254V28H12.7669V21.8059H15.3456C16.097 21.8059 16.6961 21.9955 17.1427 22.3748C17.5928 22.7505 17.8179 23.245 17.8179 23.8582C17.8179 24.4572 17.6035 24.9322 17.1746 25.2831C16.7492 25.634 16.1608 25.8148 15.4094 25.8254H14.0589ZM14.0589 24.7833H15.3456C15.7142 24.7833 16.0031 24.7053 16.2122 24.5494C16.4249 24.3934 16.5312 24.1666 16.5312 23.8688C16.5312 23.5604 16.4231 23.3141 16.2069 23.1298C15.9942 22.9419 15.7089 22.848 15.3509 22.848H14.0589V24.7833ZM22.2628 26.373C22.2628 26.1391 22.1706 25.953 21.9863 25.8148C21.802 25.673 21.4387 25.5348 20.8964 25.4001C20.3576 25.2654 19.9323 25.1112 19.6203 24.9375C19.3084 24.7638 19.078 24.5618 18.9291 24.3314C18.7838 24.0974 18.7112 23.8174 18.7112 23.4913C18.7112 22.9738 18.9291 22.5502 19.3651 22.2206C19.8011 21.8874 20.3647 21.7208 21.0559 21.7208C21.8002 21.7208 22.3975 21.898 22.8477 22.2525C23.2978 22.607 23.5229 23.0677 23.5229 23.6349H22.2309C22.2309 23.3478 22.1246 23.1227 21.9119 22.9596C21.6992 22.793 21.4139 22.7097 21.0559 22.7097C20.7191 22.7097 20.4533 22.7789 20.2584 22.9171C20.0634 23.0518 19.9659 23.2326 19.9659 23.4594C19.9659 23.665 20.0652 23.8351 20.2637 23.9698C20.4657 24.1045 20.8202 24.2339 21.327 24.358C22.1104 24.5494 22.6722 24.8028 23.0125 25.1183C23.3528 25.4337 23.5229 25.8431 23.5229 26.3465C23.5229 26.8888 23.3031 27.3141 22.8636 27.6225C22.4241 27.9309 21.8428 28.0851 21.1197 28.0851C20.6305 28.0851 20.1821 28.0035 19.7745 27.8405C19.3704 27.6739 19.0567 27.44 18.8334 27.1387C18.6101 26.8374 18.4985 26.4865 18.4985 26.0859H19.7958C19.7958 26.7665 20.2495 27.1068 21.1569 27.1068C21.5007 27.1068 21.7701 27.0412 21.9651 26.91C22.1636 26.7789 22.2628 26.5999 22.2628 26.373Z" fill="white"/>
</svg>
