<svg width="48" height="48" viewBox="0 0 48 48" fill="none" xmlns="http://www.w3.org/2000/svg">
<path d="M8.66617 0C7.1942 0 6 1.19353 6 2.66616V45.3333C6 46.806 7.1942 48 8.66617 48H39.3338C40.8065 48 42 46.8058 42 45.3333V14.0333C42 12.9574 41.5615 11.9279 40.7856 11.1825L30.2938 1.10251C29.5574 0.395086 28.576 0 27.5549 0H8.66617Z" fill="#F7981D"/>
<path d="M40.2121 12.6845C40.645 13.1005 40.3506 13.8319 39.7502 13.8319H31.0983C29.6083 13.8319 28.4006 12.6236 28.4006 11.1337V2.90155C28.4006 2.31407 29.1055 2.01383 29.5291 2.42084L40.2121 12.6845Z" fill="#E88524"/>
<path d="M30 28.8347C30 30.583 28.5558 32 26.7745 32H3.22552C1.44354 32 0 30.583 0 28.8347V19.1653C0 17.417 1.44371 16 3.22552 16H26.7745C28.5558 16 30 17.417 30 19.1653V28.8347Z" fill="#E88524"/>
<path d="M5.31803 28V21.8059H7.33312C7.91442 21.8059 8.4337 21.9282 8.89095 22.1727C9.35174 22.4173 9.70974 22.7629 9.96495 23.2095C10.2202 23.6526 10.3513 24.1559 10.3584 24.7195V25.0438C10.3584 25.6216 10.2308 26.1356 9.97559 26.5857C9.72392 27.0359 9.36415 27.385 8.89627 27.6331C8.43193 27.8777 7.90202 28 7.30653 28H5.31803ZM6.61003 22.848V26.9685H7.30121C8.46029 26.9685 9.05046 26.3518 9.07172 25.1183V24.762C9.07172 23.5144 8.52054 22.8763 7.41819 22.848H6.61003ZM13.0913 21.8059L14.883 26.288L16.6589 21.8059H18.3496V28H17.0629V26.3252L17.1959 23.2946L15.3243 28H14.4311L12.5649 23.3212L12.6978 26.3252V28H11.4111V21.8059H13.0913ZM24.8096 27.2184L24.6873 27.346C24.1556 27.8387 23.3598 28.0851 22.3 28.0851C21.421 28.0851 20.7227 27.8175 20.2052 27.2822C19.6877 26.747 19.4289 26.0097 19.4289 25.0704V24.7248C19.4289 23.7855 19.6753 23.05 20.168 22.5183C20.6607 21.9867 21.3394 21.7208 22.2043 21.7208C22.9664 21.7208 23.569 21.8945 24.012 22.2419C24.4551 22.5857 24.721 23.0979 24.8096 23.7784H23.5495C23.4857 23.424 23.3457 23.1652 23.1295 23.0022C22.9168 22.8391 22.619 22.7576 22.2362 22.7576C21.2296 22.7576 20.7262 23.4222 20.7262 24.7514V25.0917C20.7262 25.7403 20.868 26.2295 21.1516 26.5591C21.4352 26.8888 21.8392 27.0536 22.3638 27.0536C22.8884 27.0536 23.2748 26.9526 23.5229 26.7505V25.6872H22.199V24.7461H24.8096V27.2184Z" fill="white"/>
</svg>
