<svg width="48" height="48" viewBox="0 0 48 48" fill="none" xmlns="http://www.w3.org/2000/svg">
<g clip-path="url(#clip0)">
<path d="M8.66617 0C7.1942 0 6 1.19353 6 2.66616V45.3333C6 46.806 7.1942 48 8.66617 48H39.3338C40.8065 48 42 46.8058 42 45.3333V14.0333C42 12.9574 41.5615 11.9279 40.7856 11.1825L30.2938 1.10251C29.5574 0.395086 28.576 0 27.5549 0H8.66617Z" fill="#260D40"/>
<path d="M40.2121 12.6845C40.645 13.1005 40.3506 13.8319 39.7502 13.8319H31.0983C29.6083 13.8319 28.4006 12.6236 28.4006 11.1337V2.90155C28.4006 2.31407 29.1055 2.01383 29.5291 2.42084L40.2121 12.6845Z" fill="#BF80FF"/>
<path d="M21.0865 43.0999H22.924V39.0687C23.299 39.0937 23.574 39.1062 23.749 39.1062C24.099 39.1062 24.3678 39.0999 24.5553 39.0874L26.9178 43.0999H28.999L26.4115 38.7874C27.9365 38.2749 28.699 37.2874 28.699 35.8249C28.699 33.7999 27.2865 32.7874 24.4615 32.7874H21.0865V43.0999ZM24.274 34.4374C25.074 34.4374 25.699 34.5374 26.149 34.7374C26.6115 34.9249 26.8428 35.2999 26.8428 35.8624C26.8428 36.5124 26.574 36.9437 26.0365 37.1562C25.5115 37.3562 24.774 37.4562 23.824 37.4562C23.5365 37.4562 23.2365 37.4374 22.924 37.3999V34.4374H24.274ZM36.7686 43.1187V35.8999H35.0061V41.2999C34.5061 41.5874 33.9811 41.7312 33.4311 41.7312C32.9311 41.7312 32.5873 41.5812 32.3998 41.2812C32.2123 40.9812 32.1186 40.6374 32.1186 40.2499V35.8999H30.3373V40.0062C30.3373 40.9187 30.4998 41.6937 30.8248 42.3312C31.1623 42.9562 31.8748 43.2687 32.9623 43.2687C33.3873 43.2687 33.7623 43.2124 34.0873 43.0999C34.4248 42.9874 34.8311 42.8187 35.3061 42.5937L35.5311 43.1187H36.7686Z" fill="#EAD9FF"/>
</g>
<defs>
<clipPath id="clip0">
<rect x="6" width="36" height="48" rx="3" fill="white"/>
</clipPath>
</defs>
</svg>
