<svg width="48" height="48" viewBox="0 0 48 48" fill="none" xmlns="http://www.w3.org/2000/svg">
<path d="M8.66617 0C7.1942 0 6 1.19353 6 2.66616V45.3333C6 46.806 7.1942 48 8.66617 48H39.3338C40.8065 48 42 46.8058 42 45.3333V14.0333C42 12.9574 41.5615 11.9279 40.7856 11.1825L30.2938 1.10251C29.5574 0.395086 28.576 0 27.5549 0H8.66617Z" fill="#DA1F26"/>
<path d="M40.2121 12.6845C40.645 13.1005 40.3506 13.8319 39.7502 13.8319H31.0983C29.6083 13.8319 28.4006 12.6236 28.4006 11.1337V2.90155C28.4006 2.31407 29.1055 2.01383 29.5291 2.42084L40.2121 12.6845Z" fill="#CA2027"/>
<path d="M33.9107 32.0669C33.8469 32.0758 32.8943 32.9807 33.5985 34.0104C34.4236 32.8407 33.9389 32.0634 33.9107 32.0669ZM33.3056 37.2195C32.5819 38.6304 31.6958 40.1353 30.7957 41.4804C32.1679 41.2166 33.6408 41.0341 35.0042 40.9612C34.3593 39.8743 33.7597 38.5528 33.3056 37.2195ZM37.1176 41.9752C37.5439 42.4392 37.6288 42.651 37.9558 42.7082C38.0987 42.7331 38.5083 42.7986 38.7466 42.5726C38.8624 42.4627 38.9135 42.3884 38.9349 42.3485C38.8678 42.2957 38.7826 42.1995 38.2385 42.1044C37.929 42.0503 37.5384 41.9957 37.1176 41.9752ZM28.259 43.1874C26.8122 43.6801 26.1654 44.1802 26.0631 44.5082C26.0461 44.5628 26.0016 44.7053 26.2465 44.9703C26.3436 44.9576 26.9218 44.8123 28.259 43.1874ZM26.0379 45.9837C25.8248 45.9464 25.6335 45.8429 25.4836 45.6842C24.9369 45.1025 24.9514 44.565 25.0602 44.2161C25.3591 43.2576 26.7879 42.448 29.3081 41.8096C30.6091 39.9889 31.9538 37.7004 32.8675 35.7519C32.5078 34.3394 32.239 32.5415 32.8622 31.6232C33.0807 31.3015 33.322 31.0674 33.6967 31.0133C33.8453 30.9927 34.2088 30.997 34.3384 31.0196C34.6597 31.0758 34.895 31.5109 34.9957 31.7847C35.1838 32.293 35.0823 32.829 34.9393 33.3382C34.8005 33.8327 34.6188 34.317 34.4251 34.7933C34.2832 35.1434 34.132 35.4902 33.9757 35.8347C34.4793 37.6519 35.32 39.5611 36.2161 40.9242C37.0462 40.9223 37.7503 40.9708 38.3129 41.0692C39.2703 41.2366 39.8098 41.5574 39.9596 42.0502C40.0845 42.4584 39.9193 42.8818 39.4713 43.3072C39.0406 43.7161 38.524 43.8814 37.9756 43.7856C37.2304 43.6553 36.4532 43.0422 35.6616 41.9612C33.8568 42.0145 31.7073 42.2958 29.9332 42.7131C29.2167 43.69 28.5618 44.4634 27.9839 45.0139C27.1919 45.7694 26.5736 46.0773 26.0379 45.9837Z" fill="#BF2026"/>
<path d="M30 28.8347C30 30.583 28.5558 32 26.7745 32H3.22552C1.44354 32 0 30.583 0 28.8347V19.1653C0 17.417 1.44371 16 3.22552 16H26.7745C28.5558 16 30 17.417 30 19.1653V28.8347Z" fill="#BF2026"/>
<path d="M8.29015 25.8254V28H6.99815V21.8059H9.57682C10.3283 21.8059 10.9273 21.9955 11.3739 22.3748C11.8241 22.7505 12.0492 23.245 12.0492 23.8582C12.0492 24.4572 11.8347 24.9322 11.4058 25.2831C10.9805 25.634 10.3921 25.8148 9.64062 25.8254H8.29015ZM8.29015 24.7833H9.57682C9.94546 24.7833 10.2343 24.7053 10.4435 24.5494C10.6561 24.3934 10.7625 24.1666 10.7625 23.8688C10.7625 23.5604 10.6544 23.3141 10.4382 23.1298C10.2255 22.9419 9.94014 22.848 9.58214 22.848H8.29015V24.7833ZM13.0275 28V21.8059H15.0425C15.6238 21.8059 16.1431 21.9282 16.6004 22.1727C17.0612 22.4173 17.4192 22.7629 17.6744 23.2095C17.9296 23.6526 18.0607 24.1559 18.0678 24.7195V25.0438C18.0678 25.6216 17.9402 26.1356 17.685 26.5857C17.4333 27.0359 17.0736 27.385 16.6057 27.6331C16.1413 27.8777 15.6114 28 15.0159 28H13.0275ZM14.3194 22.848V26.9685H15.0106C16.1697 26.9685 16.7599 26.3518 16.7811 25.1183V24.762C16.7811 23.5144 16.23 22.8763 15.1276 22.848H14.3194ZM23.0603 25.4745H20.4125V28H19.1206V21.8059H23.4166V22.848H20.4125V24.4377H23.0603V25.4745Z" fill="white"/>
</svg>
