<svg width="48" height="48" viewBox="0 0 48 48" fill="none" xmlns="http://www.w3.org/2000/svg">
<path d="M8.66617 0C7.1942 0 6 1.19353 6 2.66616V45.3333C6 46.806 7.1942 48 8.66617 48H39.3338C40.8065 48 42 46.8058 42 45.3333V14.0333C42 12.9574 41.5615 11.9279 40.7856 11.1825L30.2938 1.10251C29.5574 0.395086 28.576 0 27.5549 0H8.66617Z" fill="#396183"/>
<path d="M40.2121 12.6845C40.645 13.1005 40.3506 13.8319 39.7502 13.8319H31.0983C29.6083 13.8319 28.4006 12.6236 28.4006 11.1337V2.90155C28.4006 2.31407 29.1055 2.01383 29.5291 2.42084L40.2121 12.6845Z" fill="#355670"/>
<path d="M30 28.8347C30 30.583 28.5558 32 26.7745 32H3.22552C1.44354 32 0 30.583 0 28.8347V19.1653C0 17.417 1.44371 16 3.22552 16H26.7745C28.5558 16 30 17.417 30 19.1653V28.8347Z" fill="#355670"/>
<path d="M3.54221 28V21.8059H5.55729C6.1386 21.8059 6.65788 21.9282 7.11513 22.1727C7.57592 22.4173 7.93392 22.7629 8.18913 23.2095C8.44434 23.6526 8.57548 24.1559 8.58257 24.7195V25.0438C8.58257 25.6216 8.45497 26.1356 8.19976 26.5857C7.9481 27.0359 7.58832 27.385 7.12044 27.6331C6.65611 27.8777 6.12619 28 5.53071 28H3.54221ZM4.8342 22.848V26.9685H5.52539C6.68446 26.9685 7.27463 26.3518 7.2959 25.1183V24.762C7.2959 23.5144 6.74472 22.8763 5.64236 22.848H4.8342ZM15.0425 25.0438C15.0425 25.9796 14.7856 26.7204 14.2716 27.2663C13.7612 27.8121 13.0859 28.0851 12.2459 28.0851C11.4094 28.0851 10.7306 27.8121 10.2095 27.2663C9.68848 26.7169 9.42795 25.9672 9.42795 25.0173V24.7727C9.42795 24.163 9.54492 23.626 9.77886 23.1617C10.0163 22.6938 10.3478 22.3376 10.7731 22.093C11.1985 21.8449 11.6858 21.7208 12.2352 21.7208C13.0859 21.7208 13.7665 21.9991 14.2769 22.5556C14.7873 23.1085 15.0425 23.8582 15.0425 24.8046V25.0438ZM13.7559 24.762C13.7559 24.1134 13.6229 23.6189 13.3571 23.2786C13.0913 22.9384 12.7173 22.7682 12.2352 22.7682C11.7603 22.7682 11.3881 22.9384 11.1187 23.2786C10.8493 23.6189 10.7146 24.1134 10.7146 24.762V25.0438C10.7146 25.6748 10.8493 26.1675 11.1187 26.5219C11.3916 26.8728 11.7674 27.0483 12.2459 27.0483C12.7279 27.0483 13.1001 26.8764 13.3624 26.5326C13.6247 26.1852 13.7559 25.6889 13.7559 25.0438V24.762ZM20.9389 22.848H18.8866V28H17.5946V22.848H15.5689V21.8059H20.9389V22.848ZM24.0705 23.9486L25.3572 21.8059H26.8672L24.8734 24.879L26.9788 28H25.4476L24.0918 25.8254L22.7626 28H21.2526L23.2996 24.879L21.3005 21.8059H22.7998L24.0705 23.9486Z" fill="white"/>
</svg>
