<svg width="48" height="48" viewBox="0 0 48 48" fill="none" xmlns="http://www.w3.org/2000/svg">
<path d="M8.66617 0C7.1942 0 6 1.19353 6 2.66616V45.3333C6 46.806 7.1942 48 8.66617 48H39.3338C40.8065 48 42 46.8058 42 45.3333V14.0333C42 12.9574 41.5615 11.9279 40.7856 11.1825L30.2938 1.10251C29.5574 0.395086 28.576 0 27.5549 0H8.66617Z" fill="#D42F3B"/>
<path d="M40.2121 12.6845C40.645 13.1005 40.3506 13.8319 39.7502 13.8319H31.0983C29.6083 13.8319 28.4006 12.6236 28.4006 11.1337V2.90155C28.4006 2.31407 29.1055 2.01383 29.5291 2.42084L40.2121 12.6845Z" fill="#BC2B3B"/>
<path d="M30 28.8347C30 30.583 28.5558 32 26.7745 32H3.22552C1.44354 32 0 30.583 0 28.8347V19.1653C0 17.417 1.44371 16 3.22552 16H26.7745C28.5558 16 30 17.417 30 19.1653V28.8347Z" fill="#BC2B3B"/>
<path d="M7.09386 28V21.8059H9.10894C9.69025 21.8059 10.2095 21.9282 10.6668 22.1727C11.1276 22.4173 11.4856 22.7629 11.7408 23.2095C11.996 23.6526 12.1271 24.1559 12.1342 24.7195V25.0438C12.1342 25.6216 12.0066 26.1356 11.7514 26.5857C11.4997 27.0359 11.14 27.385 10.6721 27.6331C10.2078 27.8777 9.67784 28 9.08236 28H7.09386ZM8.38585 22.848V26.9685H9.07704C10.2361 26.9685 10.8263 26.3518 10.8475 25.1183V24.762C10.8475 23.5144 10.2964 22.8763 9.19401 22.848H8.38585ZM15.3828 23.9486L16.6695 21.8059H18.1795L16.1857 24.879L18.2911 28H16.7599L15.4041 25.8254L14.0749 28H12.5649L14.6119 24.879L12.6127 21.8059H14.1121L15.3828 23.9486ZM22.9646 25.4745H20.3168V28H19.0248V21.8059H23.3209V22.848H20.3168V24.4377H22.9646V25.4745Z" fill="white"/>
</svg>
