<svg width="48" height="48" viewBox="0 0 48 48" fill="none" xmlns="http://www.w3.org/2000/svg">
<path d="M8.66617 0C7.1942 0 6 1.19353 6 2.66616V45.3333C6 46.806 7.1942 48 8.66617 48H39.3338C40.8065 48 42 46.8058 42 45.3333V14.0333C42 12.9574 41.5615 11.9279 40.7856 11.1825L30.2938 1.10251C29.5574 0.395086 28.576 0 27.5549 0H8.66617Z" fill="#A82E6C"/>
<path d="M40.2121 12.6845C40.645 13.1005 40.3506 13.8319 39.7502 13.8319H31.0983C29.6083 13.8319 28.4006 12.6236 28.4006 11.1337V2.90155C28.4006 2.31407 29.1055 2.01383 29.5291 2.42084L40.2121 12.6845Z" fill="#932B63"/>
<path d="M30 28.8347C30 30.583 28.5558 32 26.7745 32H3.22552C1.44354 32 0 30.583 0 28.8347V19.1653C0 17.417 1.44371 16 3.22552 16H26.7745C28.5558 16 30 17.417 30 19.1653V28.8347Z" fill="#932B63"/>
<path d="M8.35927 24.6291L9.79481 21.8059H11.2144L8.98665 25.852V28H7.69998V25.7829L5.50944 21.8059H6.92904L8.35927 24.6291ZM13.5538 21.8059L15.3456 26.288L17.1214 21.8059H18.8122V28H17.5255V26.3252L17.6584 23.2946L15.7869 28H14.8937L13.0275 23.3212L13.1604 26.3252V28H11.8737V21.8059H13.5538ZM21.3643 26.9685H24.3151V28H20.0723V21.8059H21.3643V26.9685Z" fill="white"/>
</svg>
