<svg width="48" height="48" viewBox="0 0 48 48" fill="none" xmlns="http://www.w3.org/2000/svg">
<g clip-path="url(#clip0)">
<path d="M8.66617 0C7.1942 0 6 1.19353 6 2.66616V45.3333C6 46.806 7.1942 48 8.66617 48H39.3338C40.8065 48 42 46.8058 42 45.3333V14.0333C42 12.9574 41.5615 11.9279 40.7856 11.1825L30.2938 1.10251C29.5574 0.395086 28.576 0 27.5549 0H8.66617Z" fill="#2E001F"/>
<path d="M40.2121 12.6845C40.645 13.1005 40.3506 13.8319 39.7502 13.8319H31.0983C29.6083 13.8319 28.4006 12.6236 28.4006 11.1337V2.90155C28.4006 2.31407 29.1055 2.01383 29.5291 2.42084L40.2121 12.6845Z" fill="#C41B8C"/>
<path d="M22.2436 32.6875H20.1623L23.5373 37.6188L19.8811 43H21.9811L24.5873 39.1563L27.1936 43H29.2936L25.6373 37.6188L29.0123 32.6875H26.8936L24.5873 36.1L22.2436 32.6875ZM34.6256 35.9875C34.1756 35.7875 33.6068 35.6875 32.9193 35.6875C32.3818 35.6875 31.8443 35.8125 31.3068 36.0625C30.7693 36.3125 30.3131 36.7188 29.9381 37.2813C29.5756 37.8438 29.3943 38.5563 29.3943 39.4188C29.3943 40.5688 29.7193 41.4813 30.3693 42.1563C31.0318 42.8313 31.9318 43.1687 33.0693 43.1687C33.7193 43.1687 34.3631 42.9812 35.0006 42.6063L35.1318 43H36.4256V32.6875H34.6256V35.9875ZM33.3318 37.0938C33.8193 37.0938 34.2506 37.175 34.6256 37.3375V41.4063C34.2631 41.6438 33.8506 41.7625 33.3881 41.7625C32.7381 41.7625 32.2193 41.5875 31.8318 41.2375C31.4443 40.8875 31.2506 40.3125 31.2506 39.5125C31.2506 37.9 31.9443 37.0938 33.3318 37.0938Z" fill="#FFD9F2"/>
</g>
<defs>
<clipPath id="clip0">
<rect x="6" width="36" height="48" rx="3" fill="white"/>
</clipPath>
</defs>
</svg>
