<svg width="48" height="48" viewBox="0 0 48 48" fill="none" xmlns="http://www.w3.org/2000/svg">
<path d="M8.66617 0C7.1942 0 6 1.19353 6 2.66616V45.3333C6 46.806 7.1942 48 8.66617 48H39.3338C40.8065 48 42 46.8058 42 45.3333V14.0333C42 12.9574 41.5615 11.9279 40.7856 11.1825L30.2938 1.10251C29.5574 0.395086 28.576 0 27.5549 0H8.66617Z" fill="#4A6C96"/>
<path d="M40.2121 12.6845C40.645 13.1005 40.3506 13.8319 39.7502 13.8319H31.0983C29.6083 13.8319 28.4006 12.6236 28.4006 11.1337V2.90155C28.4006 2.31407 29.1055 2.01383 29.5291 2.42084L40.2121 12.6845Z" fill="#3C5B78"/>
<path d="M30 28.8347C30 30.583 28.5558 32 26.7745 32H3.22552C1.44354 32 0 30.583 0 28.8347V19.1653C0 17.417 1.44371 16 3.22552 16H26.7745C28.5558 16 30 17.417 30 19.1653V28.8347Z" fill="#3C5B78"/>
<path d="M6.2857 28V21.8059H8.30078C8.88209 21.8059 9.40137 21.9282 9.85862 22.1727C10.3194 22.4173 10.6774 22.7629 10.9326 23.2095C11.1878 23.6526 11.319 24.1559 11.3261 24.7195V25.0438C11.3261 25.6216 11.1985 26.1356 10.9433 26.5857C10.6916 27.0359 10.3318 27.385 9.86393 27.6331C9.3996 27.8777 8.86968 28 8.2742 28H6.2857ZM7.57769 22.848V26.9685H8.26888C9.42795 26.9685 10.0181 26.3518 10.0394 25.1183V24.762C10.0394 23.5144 9.48821 22.8763 8.38585 22.848H7.57769ZM17.786 25.0438C17.786 25.9796 17.529 26.7204 17.0151 27.2663C16.5047 27.8121 15.8294 28.0851 14.9894 28.0851C14.1529 28.0851 13.4741 27.8121 12.953 27.2663C12.432 26.7169 12.1714 25.9672 12.1714 25.0173V24.7727C12.1714 24.163 12.2884 23.626 12.5224 23.1617C12.7598 22.6938 13.0913 22.3376 13.5166 22.093C13.9419 21.8449 14.4293 21.7208 14.9787 21.7208C15.8294 21.7208 16.51 21.9991 17.0204 22.5556C17.5308 23.1085 17.786 23.8582 17.786 24.8046V25.0438ZM16.4993 24.762C16.4993 24.1134 16.3664 23.6189 16.1006 23.2786C15.8347 22.9384 15.4608 22.7682 14.9787 22.7682C14.5038 22.7682 14.1316 22.9384 13.8622 23.2786C13.5928 23.6189 13.4581 24.1134 13.4581 24.762V25.0438C13.4581 25.6748 13.5928 26.1675 13.8622 26.5219C14.1351 26.8728 14.5109 27.0483 14.9894 27.0483C15.4714 27.0483 15.8436 26.8764 16.1059 26.5326C16.3682 26.1852 16.4993 25.6889 16.4993 25.0438V24.762ZM24.012 25.9371C23.9518 26.6141 23.6859 27.1422 23.2145 27.5215C22.7466 27.8972 22.1281 28.0851 21.3589 28.0851C20.5224 28.0851 19.8596 27.8192 19.3704 27.2875C18.8813 26.7559 18.6367 26.0168 18.6367 25.0704V24.7089C18.6367 24.1098 18.7484 23.5853 18.9717 23.1351C19.195 22.6814 19.5158 22.3322 19.934 22.0877C20.3523 21.8431 20.8379 21.7208 21.3908 21.7208C22.1494 21.7208 22.759 21.914 23.2198 22.3003C23.6806 22.6867 23.9465 23.2237 24.0174 23.9113H22.7254C22.6828 23.5144 22.5499 23.2237 22.3266 23.0394C22.1068 22.8515 21.7949 22.7576 21.3908 22.7576C20.4161 22.7576 19.9287 23.4133 19.9287 24.7248V25.1076C19.9287 25.7634 20.0475 26.2525 20.2849 26.5751C20.5224 26.8941 20.8804 27.0536 21.3589 27.0536C21.7843 27.0536 22.1068 26.9668 22.3266 26.7931C22.5464 26.6194 22.6793 26.3341 22.7254 25.9371H24.012Z" fill="white"/>
</svg>
