<svg width="48" height="48" viewBox="0 0 48 48" fill="none" xmlns="http://www.w3.org/2000/svg">
<path d="M8.66617 0C7.1942 0 6 1.19419 6 2.66666V45.3338C6 46.8065 7.1942 48 8.66617 48H39.3338C40.8065 48 42 46.8065 42 45.3338V14.0333C42 12.9574 41.5615 11.9279 40.7856 11.1825L30.2938 1.10251C29.5574 0.395086 28.576 0 27.5549 0H8.66617Z" fill="#0F9C57"/>
<path d="M39.5739 12.6823C40.0069 13.0982 39.7124 13.8296 39.1121 13.8296H30.4601C28.9701 13.8296 27.7625 12.622 27.7625 11.1319V2.89868C27.7625 2.31119 28.4673 2.01095 28.8909 2.41798L39.5739 12.6823Z" fill="#7EC9A8"/>
<path fill-rule="evenodd" clip-rule="evenodd" d="M34.0999 22.9H14.8999V38.1H34.0999V22.9ZM24.3223 31.4715V28.8143H32.4811V31.4715H24.3223ZM16.5187 31.4715V28.8143H22.7035V31.4715H16.5187ZM32.4811 36.4715H24.3223V33.1H32.4811V36.4715ZM16.5187 36.4715V33.1H22.7035V36.4715H16.5187ZM24.3223 24.5286H32.4811V27.1857H24.3223V24.5286ZM22.7035 27.1857H16.5187V24.5286H22.7035V27.1857Z" fill="white"/>
</svg>
