<svg width="48" height="48" viewBox="0 0 48 48" fill="none" xmlns="http://www.w3.org/2000/svg">
<path d="M8.66617 0C7.1942 0 6 1.19353 6 2.66616V45.3333C6 46.806 7.1942 48 8.66617 48H39.3338C40.8065 48 42 46.8058 42 45.3333V14.0333C42 12.9574 41.5615 11.9279 40.7856 11.1825L30.2938 1.10251C29.5574 0.395086 28.576 0 27.5549 0H8.66617Z" fill="#E07325"/>
<path d="M40.2121 12.6845C40.645 13.1005 40.3506 13.8319 39.7502 13.8319H31.0983C29.6083 13.8319 28.4006 12.6236 28.4006 11.1337V2.90155C28.4006 2.31407 29.1055 2.01383 29.5291 2.42084L40.2121 12.6845Z" fill="#C76428"/>
<path d="M30 28.8347C30 30.583 28.5558 32 26.7745 32H3.22552C1.44354 32 0 30.583 0 28.8347V19.1653C0 17.417 1.44371 16 3.22552 16H26.7745C28.5558 16 30 17.417 30 19.1653V28.8347Z" fill="#C76428"/>
<path d="M6.53027 21.8059H7.82227V26.0594C7.82227 26.6761 7.62023 27.1688 7.21615 27.5374C6.81561 27.9025 6.29988 28.0851 5.66894 28.0851C4.95294 28.0851 4.39468 27.9149 3.99414 27.5747C3.59715 27.2344 3.39865 26.7541 3.39865 26.1338H4.69596C4.69596 26.747 5.02029 27.0536 5.66894 27.0536C5.93479 27.0536 6.14392 26.9703 6.29633 26.8037C6.45229 26.6371 6.53027 26.389 6.53027 26.0594V21.8059ZM12.8467 26.6761H10.284L9.77886 28H8.47624L10.9805 21.8059H12.1661L14.6597 28H13.3518L12.8467 26.6761ZM10.6615 25.6925H12.4692L11.5653 23.3424L10.6615 25.6925ZM17.35 26.3411L17.4511 26.7505L17.5468 26.3518L19.0886 21.8059H20.4551L18.105 28H16.7971L14.4524 21.8059H15.8188L17.35 26.3411ZM24.9265 26.6761H22.3638L21.8587 28H20.5561L23.0603 21.8059H24.246L26.7396 28H25.4316L24.9265 26.6761ZM22.7413 25.6925H24.549L23.6452 23.3424L22.7413 25.6925Z" fill="white"/>
<path opacity="0.8" d="M17.891 39.6451L21.0279 40.836V42.128L16.5777 40.1449V39.1187L21.0279 37.1408V38.4328L17.891 39.6451ZM22.809 43.6646H21.7935L24.8401 35.2587H25.8556L22.809 43.6646ZM30.0559 39.6185L26.7701 38.4116V37.1408L31.3638 39.1187V40.1449L26.7701 42.1227V40.852L30.0559 39.6185Z" fill="#C76428"/>
</svg>
