<svg width="48" height="48" viewBox="0 0 48 48" fill="none" xmlns="http://www.w3.org/2000/svg">
<path d="M8.66617 0C7.1942 0 6 1.19353 6 2.66616V45.3333C6 46.806 7.1942 48 8.66617 48H39.3338C40.8065 48 42 46.8058 42 45.3333V14.0333C42 12.9574 41.5615 11.9279 40.7856 11.1825L30.2938 1.10251C29.5574 0.395086 28.576 0 27.5549 0H8.66617Z" fill="#88A0D2"/>
<path d="M40.2121 12.6845C40.645 13.1005 40.3506 13.8319 39.7502 13.8319H31.0983C29.6083 13.8319 28.4006 12.6236 28.4006 11.1337V2.90155C28.4006 2.31407 29.1055 2.01383 29.5291 2.42084L40.2121 12.6845Z" fill="#6F8BC6"/>
<path d="M30 28.8347C30 30.583 28.5558 32 26.7745 32H3.22552C1.44354 32 0 30.583 0 28.8347V19.1653C0 17.417 1.44371 16 3.22552 16H26.7745C28.5558 16 30 17.417 30 19.1653V28.8347Z" fill="#6F8BC6"/>
<path d="M6.89714 21.8059H8.18913V26.0594C8.18913 26.6761 7.98709 27.1688 7.58301 27.5374C7.18247 27.9025 6.66674 28.0851 6.03581 28.0851C5.31981 28.0851 4.76154 27.9149 4.361 27.5747C3.96401 27.2344 3.76552 26.7541 3.76552 26.1338H5.06283C5.06283 26.747 5.38715 27.0536 6.03581 27.0536C6.30165 27.0536 6.51078 26.9703 6.66319 26.8037C6.81916 26.6371 6.89714 26.389 6.89714 26.0594V21.8059ZM10.7146 25.8254V28H9.42264V21.8059H12.0013C12.7527 21.8059 13.3518 21.9955 13.7984 22.3748C14.2486 22.7505 14.4736 23.245 14.4736 23.8582C14.4736 24.4572 14.2592 24.9322 13.8303 25.2831C13.4049 25.634 12.8166 25.8148 12.0651 25.8254H10.7146ZM10.7146 24.7833H12.0013C12.3699 24.7833 12.6588 24.7053 12.8679 24.5494C13.0806 24.3934 13.187 24.1666 13.187 23.8688C13.187 23.5604 13.0788 23.3141 12.8626 23.1298C12.65 22.9419 12.3646 22.848 12.0066 22.848H10.7146V24.7833ZM19.413 25.3203H16.7439V26.9685H19.8702V28H15.4519V21.8059H19.8543V22.848H16.7439V24.2835H19.413V25.3203ZM25.9261 27.2184L25.8038 27.346C25.2721 27.8387 24.4764 28.0851 23.4166 28.0851C22.5375 28.0851 21.8392 27.8175 21.3217 27.2822C20.8042 26.747 20.5455 26.0097 20.5455 25.0704V24.7248C20.5455 23.7855 20.7918 23.05 21.2845 22.5183C21.7772 21.9867 22.456 21.7208 23.3209 21.7208C24.0829 21.7208 24.6855 21.8945 25.1286 22.2419C25.5717 22.5857 25.8375 23.0979 25.9261 23.7784H24.666C24.6022 23.424 24.4622 23.1652 24.246 23.0022C24.0333 22.8391 23.7356 22.7576 23.3528 22.7576C22.3461 22.7576 21.8428 23.4222 21.8428 24.7514V25.0917C21.8428 25.7403 21.9846 26.2295 22.2681 26.5591C22.5517 26.8888 22.9558 27.0536 23.4804 27.0536C24.005 27.0536 24.3913 26.9526 24.6394 26.7505V25.6872H23.3155V24.7461H25.9261V27.2184Z" fill="white"/>
<path fill-rule="evenodd" clip-rule="evenodd" d="M39 43.6725C39 44.4058 38.4032 45 37.6725 45H28.3275C27.5942 45 27 44.4032 27 43.6725V34.3275C27 33.5942 27.5968 33 28.3275 33H37.6725C38.4058 33 39 33.5968 39 34.3275V43.6725ZM28.3275 44.2493H37.6725C37.9894 44.2493 38.2493 43.9894 38.2493 43.6725V42.1445L36.0827 39.9779L34.2197 41.8409C34.0727 41.9879 33.8364 41.9879 33.6894 41.8409L30.2802 38.4317L27.7507 40.9612V43.6725C27.7507 43.9894 28.0106 44.2493 28.3275 44.2493ZM37.6725 33.7507H28.3275C28.0106 33.7507 27.7507 34.0106 27.7507 34.3275V39.8984L30.0163 37.6351C30.1633 37.4881 30.3996 37.4881 30.5466 37.6351L33.9558 41.0443L35.8188 39.1813C35.9658 39.0343 36.2021 39.0343 36.3491 39.1813L38.2493 41.0815V34.3275C38.2493 34.0106 37.9894 33.7507 37.6725 33.7507ZM35.2504 37.903C34.3743 37.903 33.6639 37.19 33.6639 36.3165C33.6639 35.443 34.3768 34.7301 35.2504 34.7301C36.1239 34.7301 36.8368 35.443 36.8368 36.3165C36.8368 37.19 36.1264 37.903 35.2504 37.903ZM35.2504 35.4808C34.7884 35.4808 34.4147 35.8567 34.4147 36.3165C34.4147 36.7762 34.7907 37.1522 35.2504 37.1522C35.7101 37.1522 36.0861 36.7762 36.0861 36.3165C36.0861 35.8567 35.7124 35.4808 35.2504 35.4808Z" fill="#6F8BC6"/>
</svg>
