<svg width="48" height="48" viewBox="0 0 48 48" fill="none" xmlns="http://www.w3.org/2000/svg">
<path d="M8.66617 0C7.1942 0 6 1.19353 6 2.66616V45.3333C6 46.806 7.1942 48 8.66617 48H39.3338C40.8065 48 42 46.8058 42 45.3333V14.0333C42 12.9574 41.5615 11.9279 40.7856 11.1825L30.2938 1.10251C29.5574 0.395086 28.576 0 27.5549 0H8.66617Z" fill="#8D964E"/>
<path d="M40.2121 12.6845C40.645 13.1005 40.3506 13.8319 39.7502 13.8319H31.0983C29.6083 13.8319 28.4006 12.6236 28.4006 11.1337V2.90155C28.4006 2.31407 29.1055 2.01383 29.5291 2.42084L40.2121 12.6845Z" fill="#73773D"/>
<path d="M30 28.8347C30 30.583 28.5558 32 26.7745 32H3.22552C1.44354 32 0 30.583 0 28.8347V19.1653C0 17.417 1.44371 16 3.22552 16H26.7745C28.5558 16 30 17.417 30 19.1653V28.8347Z" fill="#73773D"/>
<path d="M12.1076 25.0438C12.1076 25.9796 11.8507 26.7204 11.3367 27.2663C10.8263 27.8121 10.151 28.0851 9.31098 28.0851C8.47446 28.0851 7.79568 27.8121 7.27463 27.2663C6.75358 26.7169 6.49306 25.9672 6.49306 25.0173V24.7727C6.49306 24.163 6.61003 23.626 6.84397 23.1617C7.08145 22.6938 7.41287 22.3376 7.83822 22.093C8.26356 21.8449 8.75094 21.7208 9.30035 21.7208C10.151 21.7208 10.8316 21.9991 11.342 22.5556C11.8524 23.1085 12.1076 23.8582 12.1076 24.8046V25.0438ZM10.821 24.762C10.821 24.1134 10.688 23.6189 10.4222 23.2786C10.1564 22.9384 9.78241 22.7682 9.30035 22.7682C8.82538 22.7682 8.4532 22.9384 8.18381 23.2786C7.91442 23.6189 7.77973 24.1134 7.77973 24.762V25.0438C7.77973 25.6748 7.91442 26.1675 8.18381 26.5219C8.45674 26.8728 8.83246 27.0483 9.31098 27.0483C9.79304 27.0483 10.1652 26.8764 10.4275 26.5326C10.6898 26.1852 10.821 25.6889 10.821 25.0438V24.762ZM18.004 22.848H15.9517V28H14.6597V22.848H12.634V21.8059H18.004V22.848ZM22.3 26.373C22.3 26.1391 22.2079 25.953 22.0235 25.8148C21.8392 25.673 21.4759 25.5348 20.9336 25.4001C20.3948 25.2654 19.9695 25.1112 19.6576 24.9375C19.3456 24.7638 19.1152 24.5618 18.9664 24.3314C18.821 24.0974 18.7484 23.8174 18.7484 23.4913C18.7484 22.9738 18.9664 22.5502 19.4023 22.2206C19.8383 21.8874 20.4019 21.7208 21.0931 21.7208C21.8375 21.7208 22.4347 21.898 22.8849 22.2525C23.335 22.607 23.5601 23.0677 23.5601 23.6349H22.2681C22.2681 23.3478 22.1618 23.1227 21.9491 22.9596C21.7364 22.793 21.4511 22.7097 21.0931 22.7097C20.7564 22.7097 20.4905 22.7789 20.2956 22.9171C20.1006 23.0518 20.0031 23.2326 20.0031 23.4594C20.0031 23.665 20.1024 23.8351 20.3009 23.9698C20.5029 24.1045 20.8574 24.2339 21.3643 24.358C22.1476 24.5494 22.7094 24.8028 23.0497 25.1183C23.39 25.4337 23.5601 25.8431 23.5601 26.3465C23.5601 26.8888 23.3404 27.3141 22.9008 27.6225C22.4613 27.9309 21.88 28.0851 21.1569 28.0851C20.6678 28.0851 20.2194 28.0035 19.8117 27.8405C19.4077 27.6739 19.094 27.44 18.8707 27.1387C18.6474 26.8374 18.5357 26.4865 18.5357 26.0859H19.833C19.833 26.7665 20.2867 27.1068 21.1941 27.1068C21.5379 27.1068 21.8073 27.0412 22.0023 26.91C22.2008 26.7789 22.3 26.5999 22.3 26.373Z" fill="white"/>
</svg>
