<svg width="48" height="48" viewBox="0 0 48 48" fill="none" xmlns="http://www.w3.org/2000/svg">
<path d="M8.66617 0C7.1942 0 6 1.19353 6 2.66616V45.3333C6 46.806 7.1942 48 8.66617 48H39.3338C40.8065 48 42 46.8058 42 45.3333V14.0333C42 12.9574 41.5615 11.9279 40.7856 11.1825L30.2938 1.10251C29.5574 0.395086 28.576 0 27.5549 0H8.66617Z" fill="#517AA6"/>
<path d="M40.2121 12.6845C40.645 13.1005 40.3506 13.8319 39.7502 13.8319H31.0983C29.6083 13.8319 28.4006 12.6236 28.4006 11.1337V2.90155C28.4006 2.31407 29.1055 2.01383 29.5291 2.42084L40.2121 12.6845Z" fill="#396183"/>
<path d="M30 28.8347C30 30.583 28.5558 32 26.7745 32H3.22552C1.44354 32 0 30.583 0 28.8347V19.1653C0 17.417 1.44371 16 3.22552 16H26.7745C28.5558 16 30 17.417 30 19.1653V28.8347Z" fill="#396183"/>
<path d="M11.9215 25.0438C11.9215 25.9796 11.6646 26.7204 11.1506 27.2663C10.6402 27.8121 9.96495 28.0851 9.12489 28.0851C8.28837 28.0851 7.60959 27.8121 7.08854 27.2663C6.56749 26.7169 6.30697 25.9672 6.30697 25.0173V24.7727C6.30697 24.163 6.42394 23.626 6.65788 23.1617C6.89536 22.6938 7.22678 22.3376 7.65213 22.093C8.07747 21.8449 8.56485 21.7208 9.11426 21.7208C9.96495 21.7208 10.6455 21.9991 11.1559 22.5556C11.6663 23.1085 11.9215 23.8582 11.9215 24.8046V25.0438ZM10.6349 24.762C10.6349 24.1134 10.502 23.6189 10.2361 23.2786C9.97027 22.9384 9.59632 22.7682 9.11426 22.7682C8.63929 22.7682 8.26711 22.9384 7.99772 23.2786C7.72833 23.6189 7.59364 24.1134 7.59364 24.762V25.0438C7.59364 25.6748 7.72833 26.1675 7.99772 26.5219C8.27065 26.8728 8.64638 27.0483 9.12489 27.0483C9.60695 27.0483 9.97913 26.8764 10.2414 26.5326C10.5037 26.1852 10.6349 25.6889 10.6349 25.0438V24.762ZM12.9796 28V21.8059H14.9947C15.576 21.8059 16.0953 21.9282 16.5525 22.1727C17.0133 22.4173 17.3713 22.7629 17.6265 23.2095C17.8817 23.6526 18.0129 24.1559 18.02 24.7195V25.0438C18.02 25.6216 17.8924 26.1356 17.6372 26.5857C17.3855 27.0359 17.0257 27.385 16.5578 27.6331C16.0935 27.8777 15.5636 28 14.9681 28H12.9796ZM14.2716 22.848V26.9685H14.9628C16.1219 26.9685 16.712 26.3518 16.7333 25.1183V24.762C16.7333 23.5144 16.1821 22.8763 15.0798 22.848H14.2716ZM23.911 22.848H21.8587V28H20.5667V22.848H18.541V21.8059H23.911V22.848Z" fill="white"/>
</svg>
