<svg width="48" height="48" viewBox="0 0 48 48" fill="none" xmlns="http://www.w3.org/2000/svg">
<path d="M8.66617 0C7.1942 0 6 1.19353 6 2.66616V45.3333C6 46.806 7.1942 48 8.66617 48H39.3338C40.8065 48 42 46.8058 42 45.3333V14.0333C42 12.9574 41.5615 11.9279 40.7856 11.1825L30.2938 1.10251C29.5574 0.395086 28.576 0 27.5549 0H8.66617Z" fill="#5B4F3F"/>
<path d="M40.2121 12.6845C40.645 13.1005 40.3506 13.8319 39.7502 13.8319H31.0983C29.6083 13.8319 28.4006 12.6236 28.4006 11.1337V2.90155C28.4006 2.31407 29.1055 2.01383 29.5291 2.42084L40.2121 12.6845Z" fill="#6D6254"/>
<path d="M30 28.8347C30 30.583 28.5558 32 26.7745 32H3.22552C1.44354 32 0 30.583 0 28.8347V19.1653C0 17.417 1.44371 16 3.22552 16H26.7745C28.5558 16 30 17.417 30 19.1653V28.8347Z" fill="#6D6254"/>
<path d="M6.727 28V21.8059H8.74208C9.32339 21.8059 9.84267 21.9282 10.2999 22.1727C10.7607 22.4173 11.1187 22.7629 11.3739 23.2095C11.6291 23.6526 11.7603 24.1559 11.7674 24.7195V25.0438C11.7674 25.6216 11.6398 26.1356 11.3845 26.5857C11.1329 27.0359 10.7731 27.385 10.3052 27.6331C9.84089 27.8777 9.31098 28 8.71549 28H6.727ZM8.01899 22.848V26.9685H8.71018C9.86925 26.9685 10.4594 26.3518 10.4807 25.1183V24.762C10.4807 23.5144 9.92951 22.8763 8.82715 22.848H8.01899ZM16.611 26.6761H14.0483L13.5432 28H12.2406L14.7448 21.8059H15.9304L18.424 28H17.1161L16.611 26.6761ZM14.4258 25.6925H16.2335L15.3296 23.3424L14.4258 25.6925ZM23.6984 22.848H21.6461V28H20.3541V22.848H18.3283V21.8059H23.6984V22.848Z" fill="white"/>
</svg>
