<svg width="48" height="48" viewBox="0 0 48 48" fill="none" xmlns="http://www.w3.org/2000/svg">
<path d="M8.66617 0C7.1942 0 6 1.19353 6 2.66616V45.3333C6 46.806 7.1942 48 8.66617 48H39.3338C40.8065 48 42 46.8058 42 45.3333V14.0333C42 12.9574 41.5615 11.9279 40.7856 11.1825L30.2938 1.10251C29.5574 0.395086 28.576 0 27.5549 0H8.66617Z" fill="#368BCA"/>
<path d="M40.2121 12.6845C40.645 13.1005 40.3506 13.8319 39.7502 13.8319H31.0983C29.6083 13.8319 28.4006 12.6236 28.4006 11.1337V2.90155C28.4006 2.31407 29.1055 2.01383 29.5291 2.42084L40.2121 12.6845Z" fill="#0E81C2"/>
<path d="M30 28.8347C30 30.583 28.5558 32 26.7745 32H3.22552C1.44354 32 0 30.583 0 28.8347V19.1653C0 17.417 1.44371 16 3.22552 16H26.7745C28.5558 16 30 17.417 30 19.1653V28.8347Z" fill="#0E81C2"/>
<path d="M14.9681 25.0438C14.9681 25.6216 14.8706 26.1249 14.6757 26.5538C14.4807 26.9792 14.2078 27.3194 13.8569 27.5747L14.9575 28.3828L14.1227 29.1059L12.7084 28.0372C12.5312 28.0691 12.3504 28.0851 12.1661 28.0851C11.6203 28.0851 11.1329 27.9628 10.704 27.7182C10.2751 27.4701 9.94369 27.1192 9.70974 26.6655C9.4758 26.2082 9.35706 25.6783 9.35352 25.0757V24.7727C9.35352 24.1666 9.46871 23.6331 9.69911 23.1723C9.92951 22.708 10.2574 22.35 10.6827 22.0983C11.1116 21.8466 11.6025 21.7208 12.1555 21.7208C13.0026 21.7208 13.6832 21.9973 14.1972 22.5502C14.7111 23.1032 14.9681 23.8546 14.9681 24.8046V25.0438ZM13.6867 24.762C13.6867 24.1134 13.552 23.6189 13.2827 23.2786C13.0168 22.9384 12.6411 22.7682 12.1555 22.7682C11.6805 22.7682 11.3083 22.9419 11.039 23.2893C10.7731 23.6331 10.6402 24.1276 10.6402 24.7727V25.0438C10.6402 25.6677 10.7731 26.1586 11.039 26.5166C11.3083 26.8711 11.6841 27.0483 12.1661 27.0483C12.6517 27.0483 13.0257 26.8764 13.288 26.5326C13.5538 26.1852 13.6867 25.6889 13.6867 25.0438V24.762ZM20.8485 22.848H18.7962V28H17.5042V22.848H15.4785V21.8059H20.8485V22.848Z" fill="white"/>
</svg>
