<svg width="48" height="48" viewBox="0 0 48 48" fill="none" xmlns="http://www.w3.org/2000/svg">
<path d="M8.66617 0C7.1942 0 6 1.19353 6 2.66616V45.3333C6 46.806 7.1942 48 8.66617 48H39.3338C40.8065 48 42 46.8058 42 45.3333V14.0333C42 12.9574 41.5615 11.9279 40.7856 11.1825L30.2938 1.10251C29.5574 0.395086 28.576 0 27.5549 0H8.66617Z" fill="#9F77AA"/>
<path d="M40.2121 12.6845C40.645 13.1005 40.3506 13.8319 39.7502 13.8319H31.0983C29.6083 13.8319 28.4006 12.6236 28.4006 11.1337V2.90155C28.4006 2.31407 29.1055 2.01383 29.5291 2.42084L40.2121 12.6845Z" fill="#886892"/>
<path d="M30 28.8347C30 30.583 28.5558 32 26.7745 32H3.22552C1.44354 32 0 30.583 0 28.8347V19.1653C0 17.417 1.44371 16 3.22552 16H26.7745C28.5558 16 30 17.417 30 19.1653V28.8347Z" fill="#886892"/>
<path d="M11.1931 22.848H9.14084V28H7.84885V22.848H5.82313V21.8059H11.1931V22.848ZM13.389 28H12.1023V21.8059H13.389V28ZM18.6633 25.4745H16.0155V28H14.7235V21.8059H19.0195V22.848H16.0155V24.4377H18.6633V25.4745ZM23.7994 25.4745H21.1516V28H19.8596V21.8059H24.1556V22.848H21.1516V24.4377H23.7994V25.4745Z" fill="white"/>
</svg>
