<svg width="48" height="48" viewBox="0 0 48 48" fill="none" xmlns="http://www.w3.org/2000/svg">
<path d="M8.66617 0C7.1942 0 6 1.19353 6 2.66616V45.3333C6 46.806 7.1942 48 8.66617 48H39.3338C40.8065 48 42 46.8058 42 45.3333V14.0333C42 12.9574 41.5615 11.9279 40.7856 11.1825L30.2938 1.10251C29.5574 0.395086 28.576 0 27.5549 0H8.66617Z" fill="#A8CE38"/>
<path d="M40.2121 12.6845C40.645 13.1005 40.3506 13.8319 39.7502 13.8319H31.0983C29.6083 13.8319 28.4006 12.6236 28.4006 11.1337V2.90155C28.4006 2.31407 29.1055 2.01383 29.5291 2.42084L40.2121 12.6845Z" fill="#96B73D"/>
<path d="M30 28.8347C30 30.583 28.5558 32 26.7745 32H3.22552C1.44354 32 0 30.583 0 28.8347V19.1653C0 17.417 1.44371 16 3.22552 16H26.7745C28.5558 16 30 17.417 30 19.1653V28.8347Z" fill="#96B73D"/>
<path d="M9.55024 28H8.26356V21.8059H9.55024V28ZM14.3513 26.373C14.3513 26.1391 14.2592 25.953 14.0749 25.8148C13.8906 25.673 13.5272 25.5348 12.9849 25.4001C12.4461 25.2654 12.0208 25.1112 11.7089 24.9375C11.397 24.7638 11.1666 24.5618 11.0177 24.3314C10.8724 24.0974 10.7997 23.8174 10.7997 23.4913C10.7997 22.9738 11.0177 22.5502 11.4537 22.2206C11.8896 21.8874 12.4532 21.7208 13.1444 21.7208C13.8888 21.7208 14.486 21.898 14.9362 22.2525C15.3864 22.607 15.6114 23.0677 15.6114 23.6349H14.3194C14.3194 23.3478 14.2131 23.1227 14.0004 22.9596C13.7878 22.793 13.5024 22.7097 13.1444 22.7097C12.8077 22.7097 12.5418 22.7789 12.3469 22.9171C12.1519 23.0518 12.0545 23.2326 12.0545 23.4594C12.0545 23.665 12.1537 23.8351 12.3522 23.9698C12.5543 24.1045 12.9087 24.2339 13.4156 24.358C14.1989 24.5494 14.7607 24.8028 15.101 25.1183C15.4413 25.4337 15.6114 25.8431 15.6114 26.3465C15.6114 26.8888 15.3917 27.3141 14.9521 27.6225C14.5126 27.9309 13.9313 28.0851 13.2082 28.0851C12.7191 28.0851 12.2707 28.0035 11.8631 27.8405C11.459 27.6739 11.1453 27.44 10.922 27.1387C10.6987 26.8374 10.587 26.4865 10.587 26.0859H11.8843C11.8843 26.7665 12.338 27.1068 13.2454 27.1068C13.5893 27.1068 13.8587 27.0412 14.0536 26.91C14.2521 26.7789 14.3513 26.5999 14.3513 26.373ZM22.0129 25.0438C22.0129 25.9796 21.7559 26.7204 21.242 27.2663C20.7316 27.8121 20.0563 28.0851 19.2163 28.0851C18.3797 28.0851 17.701 27.8121 17.1799 27.2663C16.6589 26.7169 16.3983 25.9672 16.3983 25.0173V24.7727C16.3983 24.163 16.5153 23.626 16.7492 23.1617C16.9867 22.6938 17.3181 22.3376 17.7435 22.093C18.1688 21.8449 18.6562 21.7208 19.2056 21.7208C20.0563 21.7208 20.7369 21.9991 21.2473 22.5556C21.7577 23.1085 22.0129 23.8582 22.0129 24.8046V25.0438ZM20.7262 24.762C20.7262 24.1134 20.5933 23.6189 20.3275 23.2786C20.0616 22.9384 19.6877 22.7682 19.2056 22.7682C18.7306 22.7682 18.3585 22.9384 18.0891 23.2786C17.8197 23.6189 17.685 24.1134 17.685 24.762V25.0438C17.685 25.6748 17.8197 26.1675 18.0891 26.5219C18.362 26.8728 18.7377 27.0483 19.2163 27.0483C19.6983 27.0483 20.0705 26.8764 20.3328 26.5326C20.5951 26.1852 20.7262 25.6889 20.7262 25.0438V24.762Z" fill="white"/>
</svg>
