<svg width="48" height="48" viewBox="0 0 48 48" fill="none" xmlns="http://www.w3.org/2000/svg">
<path d="M8.66617 0C7.1942 0 6 1.19353 6 2.66616V45.3333C6 46.806 7.1942 48 8.66617 48H39.3338C40.8065 48 42 46.8058 42 45.3333V14.0333C42 12.9574 41.5615 11.9279 40.7856 11.1825L30.2938 1.10251C29.5574 0.395086 28.576 0 27.5549 0H8.66617Z" fill="#88A0D2"/>
<path d="M40.2121 12.6845C40.645 13.1005 40.3506 13.8319 39.7502 13.8319H31.0983C29.6083 13.8319 28.4006 12.6236 28.4006 11.1337V2.90155C28.4006 2.31407 29.1055 2.01383 29.5291 2.42084L40.2121 12.6845Z" fill="#6F8BC6"/>
<path d="M30 28.8347C30 30.583 28.5558 32 26.7745 32H3.22552C1.44354 32 0 30.583 0 28.8347V19.1653C0 17.417 1.44371 16 3.22552 16H26.7745C28.5558 16 30 17.417 30 19.1653V28.8347Z" fill="#6F8BC6"/>
<path d="M9.72569 25.7403H8.54004V28H7.24805V21.8059H9.67253C10.4452 21.8059 11.0443 21.9689 11.4696 22.295C11.895 22.6176 12.1076 23.0802 12.1076 23.6827C12.1076 24.5157 11.7089 25.0935 10.9114 25.416L12.3682 27.9415V28H10.9858L9.72569 25.7403ZM8.54004 24.7089H9.67253C10.0553 24.7089 10.3424 24.6256 10.5339 24.459C10.7253 24.2888 10.821 24.0655 10.821 23.7891C10.821 23.502 10.727 23.2733 10.5392 23.1032C10.3549 22.9331 10.066 22.848 9.67253 22.848H8.54004V24.7089ZM18.0412 22.848H15.9889V28H14.6969V22.848H12.6712V21.8059H18.0412V22.848ZM22.8104 25.4745H20.1627V28H18.8707V21.8059H23.1667V22.848H20.1627V24.4377H22.8104V25.4745Z" fill="white"/>
</svg>
