<svg width="48" height="48" viewBox="0 0 48 48" fill="none" xmlns="http://www.w3.org/2000/svg">
<path d="M8.66617 0C7.1942 0 6 1.19353 6 2.66616V45.3333C6 46.806 7.1942 48 8.66617 48H39.3338C40.8065 48 42 46.8058 42 45.3333V14.0333C42 12.9574 41.5615 11.9279 40.7856 11.1825L30.2938 1.10251C29.5574 0.395086 28.576 0 27.5549 0H8.66617Z" fill="#6DA0D5"/>
<path d="M40.2121 12.6845C40.645 13.1005 40.3506 13.8319 39.7502 13.8319H31.0983C29.6083 13.8319 28.4006 12.6236 28.4006 11.1337V2.90155C28.4006 2.31407 29.1055 2.01383 29.5291 2.42084L40.2121 12.6845Z" fill="#588DBF"/>
<path d="M30 28.8347C30 30.583 28.5558 32 26.7745 32H3.22552C1.44354 32 0 30.583 0 28.8347V19.1653C0 17.417 1.44371 16 3.22552 16H26.7745C28.5558 16 30 17.417 30 19.1653V28.8347Z" fill="#588DBF"/>
<path d="M12.0864 25.0438C12.0864 25.9796 11.8294 26.7204 11.3154 27.2663C10.805 27.8121 10.1298 28.0851 9.28971 28.0851C8.4532 28.0851 7.77441 27.8121 7.25336 27.2663C6.73231 26.7169 6.47179 25.9672 6.47179 25.0173V24.7727C6.47179 24.163 6.58876 23.626 6.8227 23.1617C7.06019 22.6938 7.3916 22.3376 7.81695 22.093C8.2423 21.8449 8.72967 21.7208 9.27908 21.7208C10.1298 21.7208 10.8103 21.9991 11.3207 22.5556C11.8312 23.1085 12.0864 23.8582 12.0864 24.8046V25.0438ZM10.7997 24.762C10.7997 24.1134 10.6668 23.6189 10.4009 23.2786C10.1351 22.9384 9.76114 22.7682 9.27908 22.7682C8.80411 22.7682 8.43193 22.9384 8.16254 23.2786C7.89316 23.6189 7.75846 24.1134 7.75846 24.762V25.0438C7.75846 25.6748 7.89316 26.1675 8.16254 26.5219C8.43547 26.8728 8.8112 27.0483 9.28971 27.0483C9.77177 27.0483 10.144 26.8764 10.4063 26.5326C10.6685 26.1852 10.7997 25.6889 10.7997 25.0438V24.762ZM17.9827 22.848H15.9304V28H14.6385V22.848H12.6127V21.8059H17.9827V22.848ZM23.7462 22.848H21.6939V28H20.4019V22.848H18.3762V21.8059H23.7462V22.848Z" fill="white"/>
</svg>
