<svg width="48" height="48" viewBox="0 0 48 48" fill="none" xmlns="http://www.w3.org/2000/svg">
<g clip-path="url(#clip0)">
<path d="M8.66617 0C7.1942 0 6 1.19353 6 2.66616V45.3333C6 46.806 7.1942 48 8.66617 48H39.3338C40.8065 48 42 46.8058 42 45.3333V14.0333C42 12.9574 41.5615 11.9279 40.7856 11.1825L30.2938 1.10251C29.5574 0.395086 28.576 0 27.5549 0H8.66617Z" fill="#2E0013"/>
<path d="M40.2121 12.6845C40.645 13.1005 40.3506 13.8319 39.7502 13.8319H31.0983C29.6083 13.8319 28.4006 12.6236 28.4006 11.1337V2.90155C28.4006 2.31407 29.1055 2.01383 29.5291 2.42084L40.2121 12.6845Z" fill="#FF3F94"/>
<path d="M26.0914 43.0999H27.9289V32.7874H26.0914V43.0999ZM34.8893 36.0874C34.4393 35.8874 33.8705 35.7874 33.183 35.7874C32.6455 35.7874 32.108 35.9124 31.5705 36.1624C31.033 36.4124 30.5768 36.8187 30.2018 37.3812C29.8393 37.9437 29.658 38.6562 29.658 39.5187C29.658 40.6687 29.983 41.5812 30.633 42.2562C31.2955 42.9312 32.1955 43.2687 33.333 43.2687C33.983 43.2687 34.6268 43.0812 35.2643 42.7062L35.3955 43.0999H36.6893V32.7874H34.8893V36.0874ZM33.5955 37.1937C34.083 37.1937 34.5143 37.2749 34.8893 37.4374V41.5062C34.5268 41.7437 34.1143 41.8624 33.6518 41.8624C33.0018 41.8624 32.483 41.6874 32.0955 41.3374C31.708 40.9874 31.5143 40.4124 31.5143 39.6124C31.5143 37.9999 32.208 37.1937 33.5955 37.1937Z" fill="#FFD9FB"/>
</g>
<defs>
<clipPath id="clip0">
<rect x="6" width="36" height="48" rx="3" fill="white"/>
</clipPath>
</defs>
</svg>
