<svg width="48" height="48" viewBox="0 0 48 48" fill="none" xmlns="http://www.w3.org/2000/svg">
<path d="M8.66617 0C7.1942 0 6 1.19353 6 2.66616V45.3333C6 46.806 7.1942 48 8.66617 48H39.3338C40.8065 48 42 46.8058 42 45.3333V14.0333C42 12.9574 41.5615 11.9279 40.7856 11.1825L30.2938 1.10251C29.5574 0.395086 28.576 0 27.5549 0H8.66617Z" fill="#344E5D"/>
<path d="M40.2121 12.6845C40.645 13.1005 40.3506 13.8319 39.7502 13.8319H31.0983C29.6083 13.8319 28.4006 12.6236 28.4006 11.1337V2.90155C28.4006 2.31407 29.1055 2.01383 29.5291 2.42084L40.2121 12.6845Z" fill="#2A4049"/>
<path d="M30 28.8347C30 30.583 28.5558 32 26.7745 32H3.22552C1.44354 32 0 30.583 0 28.8347V19.1653C0 17.417 1.44371 16 3.22552 16H26.7745C28.5558 16 30 17.417 30 19.1653V28.8347Z" fill="#2A4049"/>
<path d="M3.31358 28V21.8059H5.32867C5.90997 21.8059 6.42925 21.9282 6.8865 22.1727C7.34729 22.4173 7.70529 22.7629 7.9605 23.2095C8.21571 23.6526 8.34686 24.1559 8.35395 24.7195V25.0438C8.35395 25.6216 8.22635 26.1356 7.97114 26.5857C7.71947 27.0359 7.3597 27.385 6.89182 27.6331C6.42748 27.8777 5.89757 28 5.30208 28H3.31358ZM4.60558 22.848V26.9685H5.29677C6.45584 26.9685 7.04601 26.3518 7.06727 25.1183V24.762C7.06727 23.5144 6.51609 22.8763 5.41374 22.848H4.60558ZM14.8139 25.0438C14.8139 25.9796 14.5569 26.7204 14.043 27.2663C13.5326 27.8121 12.8573 28.0851 12.0173 28.0851C11.1807 28.0851 10.502 27.8121 9.9809 27.2663C9.45985 26.7169 9.19933 25.9672 9.19933 25.0173V24.7727C9.19933 24.163 9.3163 23.626 9.55024 23.1617C9.78772 22.6938 10.1191 22.3376 10.5445 22.093C10.9698 21.8449 11.4572 21.7208 12.0066 21.7208C12.8573 21.7208 13.5379 21.9991 14.0483 22.5556C14.5587 23.1085 14.8139 23.8582 14.8139 24.8046V25.0438ZM13.5272 24.762C13.5272 24.1134 13.3943 23.6189 13.1285 23.2786C12.8626 22.9384 12.4887 22.7682 12.0066 22.7682C11.5316 22.7682 11.1595 22.9384 10.8901 23.2786C10.6207 23.6189 10.486 24.1134 10.486 24.762V25.0438C10.486 25.6748 10.6207 26.1675 10.8901 26.5219C11.163 26.8728 11.5387 27.0483 12.0173 27.0483C12.4993 27.0483 12.8715 26.8764 13.1338 26.5326C13.3961 26.1852 13.5272 25.6889 13.5272 25.0438V24.762ZM21.0399 25.9371C20.9797 26.6141 20.7138 27.1422 20.2424 27.5215C19.7745 27.8972 19.156 28.0851 18.3868 28.0851C17.5503 28.0851 16.8875 27.8192 16.3983 27.2875C15.9092 26.7559 15.6646 26.0168 15.6646 25.0704V24.7089C15.6646 24.1098 15.7763 23.5853 15.9996 23.1351C16.2229 22.6814 16.5437 22.3322 16.9619 22.0877C17.3802 21.8431 17.8658 21.7208 18.4187 21.7208C19.1773 21.7208 19.7869 21.914 20.2477 22.3003C20.7085 22.6867 20.9744 23.2237 21.0452 23.9113H19.7533C19.7107 23.5144 19.5778 23.2237 19.3545 23.0394C19.1347 22.8515 18.8228 22.7576 18.4187 22.7576C17.444 22.7576 16.9566 23.4133 16.9566 24.7248V25.1076C16.9566 25.7634 17.0753 26.2525 17.3128 26.5751C17.5503 26.8941 17.9083 27.0536 18.3868 27.0536C18.8122 27.0536 19.1347 26.9668 19.3545 26.7931C19.5743 26.6194 19.7072 26.3341 19.7533 25.9371H21.0399ZM24.2992 23.9486L25.5858 21.8059H27.0958L25.102 24.879L27.2075 28H25.6762L24.3204 25.8254L22.9912 28H21.4812L23.5282 24.879L21.5291 21.8059H23.0284L24.2992 23.9486Z" fill="white"/>
</svg>
