<svg width="48" height="48" viewBox="0 0 48 48" fill="none" xmlns="http://www.w3.org/2000/svg">
<g clip-path="url(#clip0)">
<path d="M8.66617 0C7.1942 0 6 1.19353 6 2.66616V45.3333C6 46.806 7.1942 48 8.66617 48H39.3338C40.8065 48 42 46.8058 42 45.3333V14.0333C42 12.9574 41.5615 11.9279 40.7856 11.1825L30.2938 1.10251C29.5574 0.395086 28.576 0 27.5549 0H8.66617Z" fill="#261300"/>
<path d="M40.2121 12.6845C40.645 13.1005 40.3506 13.8319 39.7502 13.8319H31.0983C29.6083 13.8319 28.4006 12.6236 28.4006 11.1337V2.90155C28.4006 2.31407 29.1055 2.01383 29.5291 2.42084L40.2121 12.6845Z" fill="#FF7C00"/>
<path d="M24.2071 43.0999H26.0071L27.0384 40.3812H30.8446L31.8946 43.0999H33.7509L29.8696 32.7874H28.0884L24.2071 43.0999ZM27.6196 38.7312L28.9321 34.8687L30.2446 38.7312H27.6196ZM34.9163 43.0999H36.7163V35.8999H34.9163V43.0999ZM35.8163 34.6812C35.5038 34.6812 35.2351 34.5687 35.0101 34.3437C34.7851 34.1187 34.6726 33.8499 34.6726 33.5374C34.6726 33.2124 34.7851 32.9437 35.0101 32.7312C35.2351 32.5062 35.5038 32.3937 35.8163 32.3937C36.1413 32.3937 36.4101 32.5062 36.6226 32.7312C36.8476 32.9437 36.9601 33.2124 36.9601 33.5374C36.9601 33.8499 36.8476 34.1187 36.6226 34.3437C36.4101 34.5687 36.1413 34.6812 35.8163 34.6812Z" fill="#FFE9D9"/>
</g>
<defs>
<clipPath id="clip0">
<rect x="6" width="36" height="48" rx="3" fill="white"/>
</clipPath>
</defs>
</svg>
