<svg width="48" height="48" viewBox="0 0 48 48" fill="none" xmlns="http://www.w3.org/2000/svg">
<g clip-path="url(#clip0)">
<path d="M8.66617 0C7.1942 0 6 1.19353 6 2.66616V45.3333C6 46.806 7.1942 48 8.66617 48H39.3338C40.8065 48 42 46.8058 42 45.3333V14.0333C42 12.9574 41.5615 11.9279 40.7856 11.1825L30.2938 1.10251C29.5574 0.395086 28.576 0 27.5549 0H8.66617Z" fill="#072600"/>
<path d="M40.2121 12.6845C40.645 13.1005 40.3506 13.8319 39.7502 13.8319H31.0983C29.6083 13.8319 28.4006 12.6236 28.4006 11.1337V2.90155C28.4006 2.31407 29.1055 2.01383 29.5291 2.42084L40.2121 12.6845Z" fill="#35FA00"/>
<path d="M16.3106 43.0999H18.8794C19.4919 43.0999 19.9919 43.0874 20.3794 43.0624C20.7794 43.0374 21.1794 42.9812 21.5794 42.8937C22.9044 42.5187 23.8544 41.8562 24.4294 40.9062C25.0169 39.9562 25.3106 38.8624 25.3106 37.6249C25.3106 36.8124 25.1419 36.0437 24.8044 35.3187C24.4669 34.5937 23.8856 33.9937 23.0606 33.5187C22.2481 33.0312 21.1606 32.7874 19.7981 32.7874H16.3106V43.0999ZM19.8356 34.4374C21.0106 34.4374 21.9044 34.7312 22.5169 35.3187C23.1294 35.8937 23.4356 36.7437 23.4356 37.8687C23.4356 38.3062 23.3919 38.6937 23.3044 39.0312C23.2169 39.3562 23.1106 39.6124 22.9856 39.7999C22.6356 40.4874 22.1419 40.9312 21.5044 41.1312C20.8669 41.3312 20.1481 41.4312 19.3481 41.4312H18.1481V34.4374H19.8356ZM29.7509 41.1312L28.2696 35.8999H26.3571L28.9259 43.0999H30.6509L32.2821 37.9999L33.8759 43.0999H35.5821L38.1696 35.8999H36.2571L34.7759 41.1312L33.2571 35.8999H31.2884L29.7509 41.1312Z" fill="#D9FFDD"/>
</g>
<defs>
<clipPath id="clip0">
<rect x="6" width="36" height="48" rx="3" fill="white"/>
</clipPath>
</defs>
</svg>
