<svg width="48" height="48" viewBox="0 0 48 48" fill="none" xmlns="http://www.w3.org/2000/svg">
<path d="M8.66617 0C7.1942 0 6 1.19353 6 2.66616V45.3333C6 46.806 7.1942 48 8.66617 48H39.3338C40.8065 48 42 46.8058 42 45.3333V14.0333C42 12.9574 41.5615 11.9279 40.7856 11.1825L30.2938 1.10251C29.5574 0.395086 28.576 0 27.5549 0H8.66617Z" fill="#8F8376"/>
<path d="M40.2121 12.6845C40.645 13.1005 40.3506 13.8319 39.7502 13.8319H31.0983C29.6083 13.8319 28.4006 12.6236 28.4006 11.1337V2.90155C28.4006 2.31407 29.1055 2.01383 29.5291 2.42084L40.2121 12.6845Z" fill="#7A6F64"/>
<path fill-rule="evenodd" clip-rule="evenodd" d="M27 38H39V39.3636H27V38ZM39 40.8636H27V42.2273H39V40.8636ZM27 43.7273H35.25V45.0909H27V43.7273Z" fill="#7A6F64"/>
<path d="M30 28.8347C30 30.583 28.5558 32 26.7745 32H3.22552C1.44354 32 0 30.583 0 28.8347V19.1653C0 17.417 1.44371 16 3.22552 16H26.7745C28.5558 16 30 17.417 30 19.1653V28.8347Z" fill="#7A6F64"/>
<path d="M11.8258 22.848H9.77355V28H8.48155V22.848H6.45584V21.8059H11.8258V22.848ZM14.9575 23.9486L16.2441 21.8059H17.7541L15.7603 24.879L17.8658 28H16.3345L14.9787 25.8254L13.6495 28H12.1395L14.1865 24.879L12.1874 21.8059H13.6867L14.9575 23.9486ZM23.5335 22.848H21.4812V28H20.1892V22.848H18.1635V21.8059H23.5335V22.848Z" fill="white"/>
</svg>
