<svg width="48" height="48" viewBox="0 0 48 48" fill="none" xmlns="http://www.w3.org/2000/svg">
<path d="M8.66617 0C7.1942 0 6 1.19353 6 2.66616V45.3333C6 46.806 7.1942 48 8.66617 48H39.3338C40.8065 48 42 46.8058 42 45.3333V14.0333C42 12.9574 41.5615 11.9279 40.7856 11.1825L30.2938 1.10251C29.5574 0.395086 28.576 0 27.5549 0H8.66617Z" fill="#F37C2A"/>
<path d="M40.2121 12.6845C40.645 13.1005 40.3506 13.8319 39.7502 13.8319H31.0983C29.6083 13.8319 28.4006 12.6236 28.4006 11.1337V2.90155C28.4006 2.31407 29.1055 2.01383 29.5291 2.42084L40.2121 12.6845Z" fill="#DC6326"/>
<path d="M30 28.8347C30 30.583 28.5558 32 26.7745 32H3.22552C1.44354 32 0 30.583 0 28.8347V19.1653C0 17.417 1.44371 16 3.22552 16H26.7745C28.5558 16 30 17.417 30 19.1653V28.8347Z" fill="#DC6326"/>
<path d="M11.3739 22.848H9.32161V28H8.02962V22.848H6.00391V21.8059H11.3739V22.848ZM17.4032 27.2184L17.2809 27.346C16.7492 27.8387 15.9535 28.0851 14.8937 28.0851C14.0146 28.0851 13.3163 27.8175 12.7988 27.2822C12.2813 26.747 12.0226 26.0097 12.0226 25.0704V24.7248C12.0226 23.7855 12.2689 23.05 12.7616 22.5183C13.2543 21.9867 13.9331 21.7208 14.798 21.7208C15.56 21.7208 16.1626 21.8945 16.6057 22.2419C17.0488 22.5857 17.3146 23.0979 17.4032 23.7784H16.1431C16.0793 23.424 15.9393 23.1652 15.7231 23.0022C15.5104 22.8391 15.2127 22.7576 14.8299 22.7576C13.8232 22.7576 13.3199 23.4222 13.3199 24.7514V25.0917C13.3199 25.7403 13.4617 26.2295 13.7452 26.5591C14.0288 26.8888 14.4329 27.0536 14.9575 27.0536C15.4821 27.0536 15.8684 26.9526 16.1165 26.7505V25.6872H14.7926V24.7461H17.4032V27.2184ZM22.3213 26.6761H19.7586L19.2535 28H17.9508L20.4551 21.8059H21.6407L24.1343 28H22.8264L22.3213 26.6761ZM20.1361 25.6925H21.9438L21.0399 23.3424L20.1361 25.6925Z" fill="white"/>
</svg>
