<svg width="48" height="48" viewBox="0 0 48 48" fill="none" xmlns="http://www.w3.org/2000/svg">
<path d="M8.66617 0C7.1942 0 6 1.19353 6 2.66616V45.3333C6 46.806 7.1942 48 8.66617 48H39.3338C40.8065 48 42 46.8058 42 45.3333V14.0333C42 12.9574 41.5615 11.9279 40.7856 11.1825L30.2938 1.10251C29.5574 0.395086 28.576 0 27.5549 0H8.66617Z" fill="#ACC337"/>
<path d="M40.2121 12.6845C40.645 13.1005 40.3506 13.8319 39.7502 13.8319H31.0983C29.6083 13.8319 28.4006 12.6236 28.4006 11.1337V2.90155C28.4006 2.31407 29.1055 2.01383 29.5291 2.42084L40.2121 12.6845Z" fill="#A1B13A"/>
<path d="M30 28.8347C30 30.583 28.5558 32 26.7745 32H3.22552C1.44354 32 0 30.583 0 28.8347V19.1653C0 17.417 1.44371 16 3.22552 16H26.7745C28.5558 16 30 17.417 30 19.1653V28.8347Z" fill="#A1B13A"/>
<path d="M11.895 25.0438C11.895 25.9796 11.638 26.7204 11.124 27.2663C10.6136 27.8121 9.93837 28.0851 9.09831 28.0851C8.26179 28.0851 7.58301 27.8121 7.06196 27.2663C6.54091 26.7169 6.28038 25.9672 6.28038 25.0173V24.7727C6.28038 24.163 6.39735 23.626 6.63129 23.1617C6.86878 22.6938 7.2002 22.3376 7.62554 22.093C8.05089 21.8449 8.53827 21.7208 9.08767 21.7208C9.93837 21.7208 10.6189 21.9991 11.1293 22.5556C11.6398 23.1085 11.895 23.8582 11.895 24.8046V25.0438ZM10.6083 24.762C10.6083 24.1134 10.4754 23.6189 10.2095 23.2786C9.94369 22.9384 9.56973 22.7682 9.08767 22.7682C8.6127 22.7682 8.24052 22.9384 7.97114 23.2786C7.70175 23.6189 7.56706 24.1134 7.56706 24.762V25.0438C7.56706 25.6748 7.70175 26.1675 7.97114 26.5219C8.24407 26.8728 8.61979 27.0483 9.09831 27.0483C9.58037 27.0483 9.95255 26.8764 10.2148 26.5326C10.4771 26.1852 10.6083 25.6889 10.6083 25.0438V24.762ZM12.953 28V21.8059H14.9681C15.5494 21.8059 16.0687 21.9282 16.5259 22.1727C16.9867 22.4173 17.3447 22.7629 17.5999 23.2095C17.8551 23.6526 17.9863 24.1559 17.9934 24.7195V25.0438C17.9934 25.6216 17.8658 26.1356 17.6106 26.5857C17.3589 27.0359 16.9991 27.385 16.5313 27.6331C16.0669 27.8777 15.537 28 14.9415 28H12.953ZM14.245 22.848V26.9685H14.9362C16.0953 26.9685 16.6854 26.3518 16.7067 25.1183V24.762C16.7067 23.5144 16.1555 22.8763 15.0532 22.848H14.245ZM22.5127 26.373C22.5127 26.1391 22.4205 25.953 22.2362 25.8148C22.0519 25.673 21.6886 25.5348 21.1463 25.4001C20.6075 25.2654 20.1821 25.1112 19.8702 24.9375C19.5583 24.7638 19.3279 24.5618 19.179 24.3314C19.0337 24.0974 18.961 23.8174 18.961 23.4913C18.961 22.9738 19.179 22.5502 19.615 22.2206C20.051 21.8874 20.6146 21.7208 21.3058 21.7208C22.0501 21.7208 22.6474 21.898 23.0975 22.2525C23.5477 22.607 23.7728 23.0677 23.7728 23.6349H22.4808C22.4808 23.3478 22.3745 23.1227 22.1618 22.9596C21.9491 22.793 21.6638 22.7097 21.3058 22.7097C20.969 22.7097 20.7032 22.7789 20.5082 22.9171C20.3133 23.0518 20.2158 23.2326 20.2158 23.4594C20.2158 23.665 20.3151 23.8351 20.5136 23.9698C20.7156 24.1045 21.0701 24.2339 21.5769 24.358C22.3603 24.5494 22.9221 24.8028 23.2624 25.1183C23.6026 25.4337 23.7728 25.8431 23.7728 26.3465C23.7728 26.8888 23.553 27.3141 23.1135 27.6225C22.674 27.9309 22.0927 28.0851 21.3696 28.0851C20.8804 28.0851 20.432 28.0035 20.0244 27.8405C19.6203 27.6739 19.3066 27.44 19.0833 27.1387C18.86 26.8374 18.7484 26.4865 18.7484 26.0859H20.0457C20.0457 26.7665 20.4994 27.1068 21.4068 27.1068C21.7506 27.1068 22.02 27.0412 22.215 26.91C22.4134 26.7789 22.5127 26.5999 22.5127 26.373Z" fill="white"/>
</svg>
