<svg width="48" height="48" viewBox="0 0 48 48" fill="none" xmlns="http://www.w3.org/2000/svg">
<path d="M8.66617 0C7.1942 0 6 1.19353 6 2.66616V45.3333C6 46.806 7.1942 48 8.66617 48H39.3338C40.8065 48 42 46.8058 42 45.3333V14.0333C42 12.9574 41.5615 11.9279 40.7856 11.1825L30.2938 1.10251C29.5574 0.395086 28.576 0 27.5549 0H8.66617Z" fill="#1FA85B"/>
<path d="M40.2121 12.6845C40.645 13.1005 40.3506 13.8319 39.7502 13.8319H31.0983C29.6083 13.8319 28.4006 12.6236 28.4006 11.1337V2.90155C28.4006 2.31407 29.1055 2.01383 29.5291 2.42084L40.2121 12.6845Z" fill="#208E4D"/>
<path d="M30 28.8347C30 30.583 28.5558 32 26.7745 32H3.22552C1.44354 32 0 30.583 0 28.8347V19.1653C0 17.417 1.44371 16 3.22552 16H26.7745C28.5558 16 30 17.417 30 19.1653V28.8347Z" fill="#208E4D"/>
<path d="M13.7452 27.2184L13.6229 27.346C13.0913 27.8387 12.2955 28.0851 11.2357 28.0851C10.3566 28.0851 9.65835 27.8175 9.14084 27.2822C8.62334 26.747 8.36458 26.0097 8.36458 25.0704V24.7248C8.36458 23.7855 8.61093 23.05 9.10362 22.5183C9.59632 21.9867 10.2751 21.7208 11.14 21.7208C11.9021 21.7208 12.5046 21.8945 12.9477 22.2419C13.3908 22.5857 13.6566 23.0979 13.7452 23.7784H12.4851C12.4213 23.424 12.2813 23.1652 12.0651 23.0022C11.8524 22.8391 11.5547 22.7576 11.1719 22.7576C10.1652 22.7576 9.66189 23.4222 9.66189 24.7514V25.0917C9.66189 25.7403 9.80367 26.2295 10.0872 26.5591C10.3708 26.8888 10.7749 27.0536 11.2995 27.0536C11.8241 27.0536 12.2104 26.9526 12.4586 26.7505V25.6872H11.1347V24.7461H13.7452V27.2184ZM16.2388 28H14.9521V21.8059H16.2388V28ZM21.5131 25.4745H18.8653V28H17.5734V21.8059H21.8694V22.848H18.8653V24.4377H21.5131V25.4745Z" fill="white"/>
</svg>
