<svg width="48" height="48" viewBox="0 0 48 48" fill="none" xmlns="http://www.w3.org/2000/svg">
<path d="M8.66617 0C7.1942 0 6 1.19353 6 2.66616V45.3333C6 46.806 7.1942 48 8.66617 48H39.3338C40.8065 48 42 46.8058 42 45.3333V14.0333C42 12.9574 41.5615 11.9279 40.7856 11.1825L30.2938 1.10251C29.5574 0.395086 28.576 0 27.5549 0H8.66617Z" fill="#E79E2D"/>
<path d="M40.2121 12.6845C40.645 13.1005 40.3506 13.8319 39.7502 13.8319H31.0983C29.6083 13.8319 28.4006 12.6236 28.4006 11.1337V2.90155C28.4006 2.31407 29.1055 2.01383 29.5291 2.42084L40.2121 12.6845Z" fill="#D58A29"/>
<path d="M30 28.8347C30 30.583 28.5558 32 26.7745 32H3.22552C1.44354 32 0 30.583 0 28.8347V19.1653C0 17.417 1.44371 16 3.22552 16H26.7745C28.5558 16 30 17.417 30 19.1653V28.8347Z" fill="#D58A29"/>
<path d="M11.0762 25.3203H8.40712V26.9685H11.5334V28H7.11513V21.8059H11.5175V22.848H8.40712V24.2835H11.0762V25.3203ZM13.6814 25.8254V28H12.3894V21.8059H14.9681C15.7195 21.8059 16.3186 21.9955 16.7652 22.3748C17.2154 22.7505 17.4404 23.245 17.4404 23.8582C17.4404 24.4572 17.226 24.9322 16.7971 25.2831C16.3717 25.634 15.7833 25.8148 15.0319 25.8254H13.6814ZM13.6814 24.7833H14.9681C15.3367 24.7833 15.6256 24.7053 15.8347 24.5494C16.0474 24.3934 16.1538 24.1666 16.1538 23.8688C16.1538 23.5604 16.0456 23.3141 15.8294 23.1298C15.6168 22.9419 15.3314 22.848 14.9734 22.848H13.6814V24.7833ZM21.8853 26.373C21.8853 26.1391 21.7931 25.953 21.6088 25.8148C21.4245 25.673 21.0612 25.5348 20.5189 25.4001C19.9801 25.2654 19.5548 25.1112 19.2428 24.9375C18.9309 24.7638 18.7005 24.5618 18.5516 24.3314C18.4063 24.0974 18.3337 23.8174 18.3337 23.4913C18.3337 22.9738 18.5516 22.5502 18.9876 22.2206C19.4236 21.8874 19.9872 21.7208 20.6784 21.7208C21.4227 21.7208 22.02 21.898 22.4702 22.2525C22.9203 22.607 23.1454 23.0677 23.1454 23.6349H21.8534C21.8534 23.3478 21.7471 23.1227 21.5344 22.9596C21.3217 22.793 21.0364 22.7097 20.6784 22.7097C20.3417 22.7097 20.0758 22.7789 19.8809 22.9171C19.6859 23.0518 19.5884 23.2326 19.5884 23.4594C19.5884 23.665 19.6877 23.8351 19.8862 23.9698C20.0882 24.1045 20.4427 24.2339 20.9495 24.358C21.7329 24.5494 22.2947 24.8028 22.635 25.1183C22.9753 25.4337 23.1454 25.8431 23.1454 26.3465C23.1454 26.8888 22.9256 27.3141 22.4861 27.6225C22.0466 27.9309 21.4653 28.0851 20.7422 28.0851C20.253 28.0851 19.8047 28.0035 19.397 27.8405C18.9929 27.6739 18.6793 27.44 18.4559 27.1387C18.2326 26.8374 18.121 26.4865 18.121 26.0859H19.4183C19.4183 26.7665 19.872 27.1068 20.7794 27.1068C21.1232 27.1068 21.3926 27.0412 21.5876 26.91C21.7861 26.7789 21.8853 26.5999 21.8853 26.373Z" fill="white"/>
<g opacity="0.8">
<path d="M23.8333 43.4999L22.7 42.9332L23.2666 40.6666L24.3999 38.3999L26.6666 36.7H29.4999H32.3332L34.5999 38.3999L35.7332 40.6666L36.2999 42.3666L35.1665 43.4999H23.8333Z" fill="#E9AE57"/>
<path d="M36.8901 37.267C37.502 37.267 37.9999 36.7691 37.9999 36.1572C37.9999 35.5452 37.502 35.0474 36.8901 35.0474C36.4119 35.0474 36.0034 35.3513 35.8477 35.7762H30.6571V35.6351C30.6571 35.2849 30.3722 35 30.0221 35H28.9778C28.6277 35 28.3429 35.2849 28.3429 35.635V35.7761H23.1523C22.9965 35.3512 22.588 35.0473 22.1099 35.0473C21.4979 35.0473 21 35.5451 21 36.1571C21 36.769 21.4979 37.2669 22.1099 37.2669C22.588 37.2669 22.9965 36.9629 23.1523 36.5381H26.3164C25.5195 36.9436 24.7998 37.5009 24.2018 38.1866C23.1702 39.3694 22.5677 40.8612 22.4831 42.4228H22.3312C21.9811 42.4228 21.6962 42.7076 21.6962 43.0577V44.102C21.6962 44.4521 21.9811 44.737 22.3312 44.737H23.3755C23.7256 44.737 24.0104 44.4521 24.0104 44.102V43.0577C24.0104 42.7076 23.7256 42.4228 23.3755 42.4228H23.2462C23.33 41.0455 23.8655 39.7315 24.776 38.6874C25.7057 37.6215 26.9646 36.9027 28.3428 36.645V36.6793C28.3428 37.0294 28.6277 37.3143 28.9778 37.3143H30.0221C30.3722 37.3143 30.657 37.0294 30.657 36.6793V36.645C32.0353 36.9027 33.2943 37.6216 34.2239 38.6875C35.1344 39.7315 35.6699 41.0456 35.7537 42.4228H35.6244C35.2743 42.4228 34.9894 42.7077 34.9894 43.0578V44.1021C34.9894 44.4522 35.2743 44.737 35.6244 44.737H36.6687C37.0188 44.737 37.3037 44.4522 37.3037 44.1021V43.0578C37.3037 42.7077 37.0188 42.4228 36.6687 42.4228H36.5168C36.4322 40.8613 35.8297 39.3695 34.7982 38.1867C34.2002 37.5011 33.4804 36.9437 32.6836 36.5382H35.8477C36.0035 36.963 36.412 37.267 36.8901 37.267ZM36.8901 35.8093C37.0819 35.8093 37.2379 35.9653 37.2379 36.1571C37.2379 36.3489 37.0818 36.505 36.8901 36.505C36.6983 36.505 36.5423 36.3489 36.5423 36.1571C36.5423 35.9653 36.6983 35.8093 36.8901 35.8093ZM22.1099 36.505C21.918 36.505 21.762 36.3489 21.762 36.1571C21.762 35.9653 21.918 35.8093 22.1099 35.8093C22.3017 35.8093 22.4577 35.9653 22.4577 36.1571C22.4577 36.3489 22.3017 36.505 22.1099 36.505ZM23.2485 43.1847V43.975H22.4582V43.1847H23.2485ZM29.8951 36.5523H29.1048V35.762H29.8951V36.5523ZM36.5418 43.1847V43.975H35.7514V43.1847H36.5418Z" fill="#D58A29"/>
</g>
</svg>
