<svg width="48" height="48" viewBox="0 0 48 48" fill="none" xmlns="http://www.w3.org/2000/svg">
<path d="M8.66617 0C7.1942 0 6 1.19353 6 2.66616V45.3333C6 46.806 7.1942 48 8.66617 48H39.3338C40.8065 48 42 46.8058 42 45.3333V14.0333C42 12.9574 41.5615 11.9279 40.7856 11.1825L30.2938 1.10251C29.5574 0.395086 28.576 0 27.5549 0H8.66617Z" fill="#27805A"/>
<path d="M40.2121 12.6845C40.645 13.1005 40.3506 13.8319 39.7502 13.8319H31.0983C29.6083 13.8319 28.4006 12.6236 28.4006 11.1337V2.90155C28.4006 2.31407 29.1055 2.01383 29.5291 2.42084L40.2121 12.6845Z" fill="#1C6044"/>
<path d="M30 28.8347C30 30.583 28.5558 32 26.7745 32H3.22552C1.44354 32 0 30.583 0 28.8347V19.1653C0 17.417 1.44371 16 3.22552 16H26.7745C28.5558 16 30 17.417 30 19.1653V28.8347Z" fill="#1C6044"/>
<path d="M11.4749 25.0438C11.4749 25.9796 11.218 26.7204 10.704 27.2663C10.1936 27.8121 9.51834 28.0851 8.67828 28.0851C7.84176 28.0851 7.16298 27.8121 6.64193 27.2663C6.12088 26.7169 5.86035 25.9672 5.86035 25.0173V24.7727C5.86035 24.163 5.97732 23.626 6.21126 23.1617C6.44875 22.6938 6.78016 22.3376 7.20551 22.093C7.63086 21.8449 8.11824 21.7208 8.66764 21.7208C9.51834 21.7208 10.1989 21.9991 10.7093 22.5556C11.2197 23.1085 11.4749 23.8582 11.4749 24.8046V25.0438ZM10.1883 24.762C10.1883 24.1134 10.0553 23.6189 9.7895 23.2786C9.52365 22.9384 9.1497 22.7682 8.66764 22.7682C8.19267 22.7682 7.82049 22.9384 7.55111 23.2786C7.28172 23.6189 7.14703 24.1134 7.14703 24.762V25.0438C7.14703 25.6748 7.28172 26.1675 7.55111 26.5219C7.82404 26.8728 8.19976 27.0483 8.67828 27.0483C9.16034 27.0483 9.53252 26.8764 9.79481 26.5326C10.0571 26.1852 10.1883 25.6889 10.1883 25.0438V24.762ZM17.7329 27.2184L17.6106 27.346C17.0789 27.8387 16.2831 28.0851 15.2233 28.0851C14.3443 28.0851 13.646 27.8175 13.1285 27.2822C12.611 26.747 12.3522 26.0097 12.3522 25.0704V24.7248C12.3522 23.7855 12.5986 23.05 13.0913 22.5183C13.5839 21.9867 14.2627 21.7208 15.1276 21.7208C15.8897 21.7208 16.4923 21.8945 16.9353 22.2419C17.3784 22.5857 17.6442 23.0979 17.7329 23.7784H16.4728C16.409 23.424 16.269 23.1652 16.0527 23.0022C15.8401 22.8391 15.5423 22.7576 15.1595 22.7576C14.1529 22.7576 13.6495 23.4222 13.6495 24.7514V25.0917C13.6495 25.7403 13.7913 26.2295 14.0749 26.5591C14.3584 26.8888 14.7625 27.0536 15.2871 27.0536C15.8117 27.0536 16.1981 26.9526 16.4462 26.7505V25.6872H15.1223V24.7461H17.7329V27.2184ZM24.0599 27.2184L23.9376 27.346C23.4059 27.8387 22.6102 28.0851 21.5503 28.0851C20.6713 28.0851 19.973 27.8175 19.4555 27.2822C18.938 26.747 18.6793 26.0097 18.6793 25.0704V24.7248C18.6793 23.7855 18.9256 23.05 19.4183 22.5183C19.911 21.9867 20.5898 21.7208 21.4546 21.7208C22.2167 21.7208 22.8193 21.8945 23.2624 22.2419C23.7054 22.5857 23.9713 23.0979 24.0599 23.7784H22.7998C22.736 23.424 22.596 23.1652 22.3798 23.0022C22.1671 22.8391 21.8694 22.7576 21.4865 22.7576C20.4799 22.7576 19.9766 23.4222 19.9766 24.7514V25.0917C19.9766 25.7403 20.1183 26.2295 20.4019 26.5591C20.6855 26.8888 21.0896 27.0536 21.6141 27.0536C22.1387 27.0536 22.5251 26.9526 22.7732 26.7505V25.6872H21.4493V24.7461H24.0599V27.2184Z" fill="white"/>
<path opacity="0.3" d="M30.6888 35.2655V42.4638C30.4317 42.4339 30.1457 42.4406 29.8432 42.4931C28.7402 42.6839 27.8462 43.3892 27.8462 44.0682C27.8462 44.7472 28.7402 45.1429 29.8432 44.952C30.9461 44.7612 31.84 44.0559 31.84 43.3769V37.5653L36.8488 36.6982V41.3972C36.5919 41.3673 36.306 41.3742 36.0032 41.4266C34.9 41.6175 34.0062 42.3228 34.0062 43.0018C34.0062 43.6808 34.9 44.0765 36.0032 43.8856C37.1059 43.6948 38 42.9895 38 42.3105V34L30.6888 35.2655Z" fill="#1C6044"/>
</svg>
