<svg width="48" height="48" viewBox="0 0 48 48" fill="none" xmlns="http://www.w3.org/2000/svg">
<path d="M8.66617 0C7.1942 0 6 1.19353 6 2.66616V45.3333C6 46.806 7.1942 48 8.66617 48H39.3338C40.8065 48 42 46.8058 42 45.3333V14.0333C42 12.9574 41.5615 11.9279 40.7856 11.1825L30.2938 1.10251C29.5574 0.395086 28.576 0 27.5549 0H8.66617Z" fill="#A53460"/>
<path d="M40.2121 12.6845C40.645 13.1005 40.3506 13.8319 39.7502 13.8319H31.0983C29.6083 13.8319 28.4006 12.6236 28.4006 11.1337V2.90155C28.4006 2.31407 29.1055 2.01383 29.5291 2.42084L40.2121 12.6845Z" fill="#8E2852"/>
<path d="M30 28.8347C30 30.583 28.5558 32 26.7745 32H3.22552C1.44354 32 0 30.583 0 28.8347V19.1653C0 17.417 1.44371 16 3.22552 16H26.7745C28.5558 16 30 17.417 30 19.1653V28.8347Z" fill="#8E2852"/>
<path d="M10.4647 26.373C10.4647 26.1391 10.3726 25.953 10.1883 25.8148C10.0039 25.673 9.64062 25.5348 9.09831 25.4001C8.55953 25.2654 8.13419 25.1112 7.82227 24.9375C7.51034 24.7638 7.27995 24.5618 7.13108 24.3314C6.98575 24.0974 6.91309 23.8174 6.91309 23.4913C6.91309 22.9738 7.13108 22.5502 7.56706 22.2206C8.00304 21.8874 8.56662 21.7208 9.25781 21.7208C10.0022 21.7208 10.5994 21.898 11.0496 22.2525C11.4997 22.607 11.7248 23.0677 11.7248 23.6349H10.4328C10.4328 23.3478 10.3265 23.1227 10.1138 22.9596C9.90115 22.793 9.61581 22.7097 9.25781 22.7097C8.92108 22.7097 8.65524 22.7789 8.46029 22.9171C8.26534 23.0518 8.16786 23.2326 8.16786 23.4594C8.16786 23.665 8.26711 23.8351 8.4656 23.9698C8.66764 24.1045 9.0221 24.2339 9.52897 24.358C10.3123 24.5494 10.8741 24.8028 11.2144 25.1183C11.5547 25.4337 11.7248 25.8431 11.7248 26.3465C11.7248 26.8888 11.5051 27.3141 11.0655 27.6225C10.626 27.9309 10.0447 28.0851 9.32161 28.0851C8.83246 28.0851 8.38408 28.0035 7.97645 27.8405C7.57237 27.6739 7.25868 27.44 7.03537 27.1387C6.81207 26.8374 6.70041 26.4865 6.70041 26.0859H7.99772C7.99772 26.7665 8.45142 27.1068 9.35883 27.1068C9.70265 27.1068 9.97204 27.0412 10.167 26.91C10.3655 26.7789 10.4647 26.5999 10.4647 26.373ZM18.1104 25.0438C18.1104 25.6216 18.0129 26.1249 17.8179 26.5538C17.623 26.9792 17.35 27.3194 16.9991 27.5747L18.0997 28.3828L17.265 29.1059L15.8507 28.0372C15.6735 28.0691 15.4927 28.0851 15.3084 28.0851C14.7625 28.0851 14.2751 27.9628 13.8462 27.7182C13.4174 27.4701 13.0859 27.1192 12.852 26.6655C12.6181 26.2082 12.4993 25.6783 12.4958 25.0757V24.7727C12.4958 24.1666 12.611 23.6331 12.8414 23.1723C13.0718 22.708 13.3996 22.35 13.825 22.0983C14.2539 21.8466 14.7448 21.7208 15.2977 21.7208C16.1449 21.7208 16.8254 21.9973 17.3394 22.5502C17.8534 23.1032 18.1104 23.8546 18.1104 24.8046V25.0438ZM16.829 24.762C16.829 24.1134 16.6943 23.6189 16.4249 23.2786C16.1591 22.9384 15.7833 22.7682 15.2977 22.7682C14.8228 22.7682 14.4506 22.9419 14.1812 23.2893C13.9154 23.6331 13.7824 24.1276 13.7824 24.7727V25.0438C13.7824 25.6677 13.9154 26.1586 14.1812 26.5166C14.4506 26.8711 14.8263 27.0483 15.3084 27.0483C15.794 27.0483 16.1679 26.8764 16.4302 26.5326C16.6961 26.1852 16.829 25.6889 16.829 25.0438V24.762ZM20.4763 26.9685H23.4272V28H19.1844V21.8059H20.4763V26.9685Z" fill="white"/>
<path opacity="0.8" d="M17.891 39.6451L21.0279 40.836V42.128L16.5777 40.1449V39.1187L21.0279 37.1408V38.4328L17.891 39.6451ZM22.809 43.6646H21.7935L24.8401 35.2587H25.8556L22.809 43.6646ZM30.0559 39.6185L26.7701 38.4116V37.1408L31.3638 39.1187V40.1449L26.7701 42.1227V40.852L30.0559 39.6185Z" fill="#8E2852"/>
</svg>
