<svg width="48" height="48" viewBox="0 0 48 48" fill="none" xmlns="http://www.w3.org/2000/svg">
<path d="M8.66617 0C7.1942 0 6 1.19353 6 2.66616V45.3333C6 46.806 7.1942 48 8.66617 48H39.3338C40.8065 48 42 46.8058 42 45.3333V14.0333C42 12.9574 41.5615 11.9279 40.7856 11.1825L30.2938 1.10251C29.5574 0.395086 28.576 0 27.5549 0H8.66617Z" fill="#748838"/>
<path d="M40.2121 12.6845C40.645 13.1005 40.3506 13.8319 39.7502 13.8319H31.0983C29.6083 13.8319 28.4006 12.6236 28.4006 11.1337V2.90155C28.4006 2.31407 29.1055 2.01383 29.5291 2.42084L40.2121 12.6845Z" fill="#647131"/>
<path d="M30 28.8347C30 30.583 28.5558 32 26.7745 32H3.22552C1.44354 32 0 30.583 0 28.8347V19.1653C0 17.417 1.44371 16 3.22552 16H26.7745C28.5558 16 30 17.417 30 19.1653V28.8347Z" fill="#647131"/>
<path d="M12.0119 25.9371C11.9517 26.6141 11.6858 27.1422 11.2144 27.5215C10.7465 27.8972 10.128 28.0851 9.35883 28.0851C8.52232 28.0851 7.85948 27.8192 7.37033 27.2875C6.88118 26.7559 6.63661 26.0168 6.63661 25.0704V24.7089C6.63661 24.1098 6.74826 23.5853 6.97157 23.1351C7.19488 22.6814 7.51566 22.3322 7.93392 22.0877C8.35218 21.8431 8.83778 21.7208 9.39073 21.7208C10.1493 21.7208 10.7589 21.914 11.2197 22.3003C11.6805 22.6867 11.9464 23.2237 12.0173 23.9113H10.7253C10.6827 23.5144 10.5498 23.2237 10.3265 23.0394C10.1067 22.8515 9.79481 22.7576 9.39073 22.7576C8.41598 22.7576 7.9286 23.4133 7.9286 24.7248V25.1076C7.9286 25.7634 8.04734 26.2525 8.28483 26.5751C8.52232 26.8941 8.88032 27.0536 9.35883 27.0536C9.78418 27.0536 10.1067 26.9668 10.3265 26.7931C10.5463 26.6194 10.6792 26.3341 10.7253 25.9371H12.0119ZM16.4355 26.373C16.4355 26.1391 16.3434 25.953 16.1591 25.8148C15.9748 25.673 15.6114 25.5348 15.0691 25.4001C14.5303 25.2654 14.105 25.1112 13.7931 24.9375C13.4812 24.7638 13.2508 24.5618 13.1019 24.3314C12.9566 24.0974 12.8839 23.8174 12.8839 23.4913C12.8839 22.9738 13.1019 22.5502 13.5379 22.2206C13.9738 21.8874 14.5374 21.7208 15.2286 21.7208C15.973 21.7208 16.5702 21.898 17.0204 22.2525C17.4706 22.607 17.6956 23.0677 17.6956 23.6349H16.4036C16.4036 23.3478 16.2973 23.1227 16.0846 22.9596C15.872 22.793 15.5866 22.7097 15.2286 22.7097C14.8919 22.7097 14.626 22.7789 14.4311 22.9171C14.2361 23.0518 14.1387 23.2326 14.1387 23.4594C14.1387 23.665 14.2379 23.8351 14.4364 23.9698C14.6385 24.1045 14.9929 24.2339 15.4998 24.358C16.2831 24.5494 16.8449 24.8028 17.1852 25.1183C17.5255 25.4337 17.6956 25.8431 17.6956 26.3465C17.6956 26.8888 17.4759 27.3141 17.0363 27.6225C16.5968 27.9309 16.0155 28.0851 15.2924 28.0851C14.8033 28.0851 14.3549 28.0035 13.9473 27.8405C13.5432 27.6739 13.2295 27.44 13.0062 27.1387C12.7829 26.8374 12.6712 26.4865 12.6712 26.0859H13.9685C13.9685 26.7665 14.4222 27.1068 15.3296 27.1068C15.6735 27.1068 15.9429 27.0412 16.1378 26.91C16.3363 26.7789 16.4355 26.5999 16.4355 26.373ZM22.1565 26.373C22.1565 26.1391 22.0643 25.953 21.88 25.8148C21.6957 25.673 21.3324 25.5348 20.79 25.4001C20.2513 25.2654 19.8259 25.1112 19.514 24.9375C19.2021 24.7638 18.9717 24.5618 18.8228 24.3314C18.6775 24.0974 18.6048 23.8174 18.6048 23.4913C18.6048 22.9738 18.8228 22.5502 19.2588 22.2206C19.6948 21.8874 20.2584 21.7208 20.9495 21.7208C21.6939 21.7208 22.2912 21.898 22.7413 22.2525C23.1915 22.607 23.4166 23.0677 23.4166 23.6349H22.1246C22.1246 23.3478 22.0182 23.1227 21.8056 22.9596C21.5929 22.793 21.3075 22.7097 20.9495 22.7097C20.6128 22.7097 20.347 22.7789 20.152 22.9171C19.9571 23.0518 19.8596 23.2326 19.8596 23.4594C19.8596 23.665 19.9588 23.8351 20.1573 23.9698C20.3594 24.1045 20.7138 24.2339 21.2207 24.358C22.0041 24.5494 22.5659 24.8028 22.9061 25.1183C23.2464 25.4337 23.4166 25.8431 23.4166 26.3465C23.4166 26.8888 23.1968 27.3141 22.7573 27.6225C22.3177 27.9309 21.7364 28.0851 21.0133 28.0851C20.5242 28.0851 20.0758 28.0035 19.6682 27.8405C19.2641 27.6739 18.9504 27.44 18.7271 27.1387C18.5038 26.8374 18.3921 26.4865 18.3921 26.0859H19.6895C19.6895 26.7665 20.1432 27.1068 21.0506 27.1068C21.3944 27.1068 21.6638 27.0412 21.8587 26.91C22.0572 26.7789 22.1565 26.5999 22.1565 26.373Z" fill="white"/>
<path opacity="0.8" d="M17.891 39.6451L21.0279 40.836V42.128L16.5777 40.1449V39.1187L21.0279 37.1408V38.4328L17.891 39.6451ZM22.809 43.6646H21.7935L24.8401 35.2587H25.8556L22.809 43.6646ZM30.0559 39.6185L26.7701 38.4116V37.1408L31.3638 39.1187V40.1449L26.7701 42.1227V40.852L30.0559 39.6185Z" fill="#647131"/>
</svg>
