<svg width="48" height="48" viewBox="0 0 48 48" fill="none" xmlns="http://www.w3.org/2000/svg">
<path d="M8.66617 0C7.1942 0 6 1.19353 6 2.66616V45.3333C6 46.806 7.1942 48 8.66617 48H39.3338C40.8065 48 42 46.8058 42 45.3333V14.0333C42 12.9574 41.5615 11.9279 40.7856 11.1825L30.2938 1.10251C29.5574 0.395086 28.576 0 27.5549 0H8.66617Z" fill="#6E4095"/>
<path d="M40.2121 12.6845C40.645 13.1005 40.3506 13.8319 39.7502 13.8319H31.0983C29.6083 13.8319 28.4006 12.6236 28.4006 11.1337V2.90155C28.4006 2.31407 29.1055 2.01383 29.5291 2.42084L40.2121 12.6845Z" fill="#59337F"/>
<path d="M30 28.8347C30 30.583 28.5558 32 26.7745 32H3.22552C1.44354 32 0 30.583 0 28.8347V19.1653C0 17.417 1.44371 16 3.22552 16H26.7745C28.5558 16 30 17.417 30 19.1653V28.8347Z" fill="#59337F"/>
<path d="M9.15148 25.4745L8.4337 26.171V28H7.14171V21.8059H8.4337V24.5441L9.01855 23.8316L10.7997 21.8059H12.3947L10.0288 24.576L12.5117 28H10.9698L9.15148 25.4745ZM17.0363 25.3203H14.3673V26.9685H17.4936V28H13.0753V21.8059H17.4776V22.848H14.3673V24.2835H17.0363V25.3203ZM20.5986 24.6291L22.0342 21.8059H23.4538L21.226 25.852V28H19.9393V25.7829L17.7488 21.8059H19.1684L20.5986 24.6291Z" fill="white"/>
</svg>
