<svg width="48" height="48" viewBox="0 0 48 48" fill="none" xmlns="http://www.w3.org/2000/svg">
<path d="M8.66617 0C7.1942 0 6 1.19353 6 2.66616V45.3333C6 46.806 7.1942 48 8.66617 48H39.3338C40.8065 48 42 46.8058 42 45.3333V14.0333C42 12.9574 41.5615 11.9279 40.7856 11.1825L30.2938 1.10251C29.5574 0.395086 28.576 0 27.5549 0H8.66617Z" fill="#49A0AE"/>
<path d="M40.2121 12.6845C40.645 13.1005 40.3506 13.8319 39.7502 13.8319H31.0983C29.6083 13.8319 28.4006 12.6236 28.4006 11.1337V2.90155C28.4006 2.31407 29.1055 2.01383 29.5291 2.42084L40.2121 12.6845Z" fill="#3F929A"/>
<path d="M30 28.8347C30 30.583 28.5558 32 26.7745 32H3.22552C1.44354 32 0 30.583 0 28.8347V19.1653C0 17.417 1.44371 16 3.22552 16H26.7745C28.5558 16 30 17.417 30 19.1653V28.8347Z" fill="#3F929A"/>
<path d="M7.42882 25.8254V28H6.13683V21.8059H8.71549C9.46694 21.8059 10.066 21.9955 10.5126 22.3748C10.9627 22.7505 11.1878 23.245 11.1878 23.8582C11.1878 24.4572 10.9734 24.9322 10.5445 25.2831C10.1191 25.634 9.53074 25.8148 8.7793 25.8254H7.42882ZM7.42882 24.7833H8.71549C9.08413 24.7833 9.37301 24.7053 9.58214 24.5494C9.79481 24.3934 9.90115 24.1666 9.90115 23.8688C9.90115 23.5604 9.79304 23.3141 9.57682 23.1298C9.36415 22.9419 9.07881 22.848 8.72081 22.848H7.42882V24.7833ZM17.5308 28H16.2441L13.4581 23.7731V28H12.1661V21.8059H13.4581L16.2441 26.0381V21.8059H17.5308V28ZM23.9908 27.2184L23.8685 27.346C23.3368 27.8387 22.5411 28.0851 21.4812 28.0851C20.6022 28.0851 19.9039 27.8175 19.3864 27.2822C18.8689 26.747 18.6101 26.0097 18.6101 25.0704V24.7248C18.6101 23.7855 18.8565 23.05 19.3492 22.5183C19.8419 21.9867 20.5207 21.7208 21.3855 21.7208C22.1476 21.7208 22.7502 21.8945 23.1933 22.2419C23.6363 22.5857 23.9022 23.0979 23.9908 23.7784H22.7307C22.6669 23.424 22.5269 23.1652 22.3107 23.0022C22.098 22.8391 21.8002 22.7576 21.4174 22.7576C20.4108 22.7576 19.9074 23.4222 19.9074 24.7514V25.0917C19.9074 25.7403 20.0492 26.2295 20.3328 26.5591C20.6164 26.8888 21.0204 27.0536 21.545 27.0536C22.0696 27.0536 22.456 26.9526 22.7041 26.7505V25.6872H21.3802V24.7461H23.9908V27.2184Z" fill="white"/>
<g opacity="0.86">
<path fill-rule="evenodd" clip-rule="evenodd" d="M39 43.6725C39 44.4058 38.4032 45 37.6725 45H28.3275C27.5942 45 27 44.4032 27 43.6725V34.3275C27 33.5942 27.5968 33 28.3275 33H37.6725C38.4058 33 39 33.5968 39 34.3275V43.6725ZM28.3275 44.2493H37.6725C37.9894 44.2493 38.2493 43.9894 38.2493 43.6725V42.1445L36.0827 39.9779L34.2197 41.8409C34.0727 41.9879 33.8364 41.9879 33.6894 41.8409L30.2802 38.4317L27.7507 40.9612V43.6725C27.7507 43.9894 28.0106 44.2493 28.3275 44.2493ZM37.6725 33.7507H28.3275C28.0106 33.7507 27.7507 34.0106 27.7507 34.3275V39.8984L30.0163 37.6351C30.1633 37.4881 30.3996 37.4881 30.5466 37.6351L33.9558 41.0443L35.8188 39.1813C35.9658 39.0343 36.2021 39.0343 36.3491 39.1813L38.2493 41.0815V34.3275C38.2493 34.0106 37.9894 33.7507 37.6725 33.7507ZM35.2504 37.903C34.3743 37.903 33.6639 37.19 33.6639 36.3165C33.6639 35.443 34.3768 34.7301 35.2504 34.7301C36.1239 34.7301 36.8368 35.443 36.8368 36.3165C36.8368 37.19 36.1264 37.903 35.2504 37.903ZM35.2504 35.4808C34.7884 35.4808 34.4147 35.8567 34.4147 36.3165C34.4147 36.7762 34.7907 37.1522 35.2504 37.1522C35.7101 37.1522 36.0861 36.7762 36.0861 36.3165C36.0861 35.8567 35.7124 35.4808 35.2504 35.4808Z" fill="#3F929A"/>
</g>
</svg>
