<svg width="48" height="48" viewBox="0 0 48 48" fill="none" xmlns="http://www.w3.org/2000/svg">
<path d="M8.66617 0C7.1942 0 6 1.19419 6 2.66666V45.3338C6 46.8065 7.1942 48 8.66617 48H39.3338C40.8065 48 42 46.8065 42 45.3338V14.0333C42 12.9574 41.5615 11.9279 40.7856 11.1825L30.2938 1.10251C29.5574 0.395086 28.576 0 27.5549 0H8.66617Z" fill="#F4B70B"/>
<path d="M39.5739 12.6823C40.0069 13.0982 39.7124 13.8296 39.1121 13.8296H30.4601C28.9701 13.8296 27.7625 12.622 27.7625 11.1319V2.89868C27.7625 2.31119 28.4673 2.01095 28.8909 2.41798L39.5739 12.6823Z" fill="#FADC86"/>
<path fill-rule="evenodd" clip-rule="evenodd" d="M17.4286 22C16.0873 22 15 23.0873 15 24.4286V36.5714C15 37.9127 16.0873 39 17.4286 39H29.5714C30.9127 39 32 37.9127 32 36.5714V24.4286C32 23.0873 30.9127 22 29.5714 22H17.4286ZM30.381 26.8571H16.619V34.1429H30.381V26.8571Z" fill="white"/>
</svg>
