<svg width="48" height="48" viewBox="0 0 48 48" fill="none" xmlns="http://www.w3.org/2000/svg">
<path d="M8.66617 0C7.1942 0 6 1.19353 6 2.66616V45.3333C6 46.806 7.1942 48 8.66617 48H39.3338C40.8065 48 42 46.8058 42 45.3333V14.0333C42 12.9574 41.5615 11.9279 40.7856 11.1825L30.2938 1.10251C29.5574 0.395086 28.576 0 27.5549 0H8.66617Z" fill="#21455F"/>
<path d="M40.2121 12.6845C40.645 13.1005 40.3506 13.8319 39.7502 13.8319H31.0983C29.6083 13.8319 28.4006 12.6236 28.4006 11.1337V2.90155C28.4006 2.31407 29.1055 2.01383 29.5291 2.42084L40.2121 12.6845Z" fill="#163749"/>
<path d="M30 28.8347C30 30.583 28.5558 32 26.7745 32H3.22552C1.44354 32 0 30.583 0 28.8347V19.1653C0 17.417 1.44371 16 3.22552 16H26.7745C28.5558 16 30 17.417 30 19.1653V28.8347Z" fill="#163749"/>
<path d="M6.51432 28V21.8059H8.5294C9.11071 21.8059 9.62999 21.9282 10.0872 22.1727C10.548 22.4173 10.906 22.7629 11.1612 23.2095C11.4164 23.6526 11.5476 24.1559 11.5547 24.7195V25.0438C11.5547 25.6216 11.4271 26.1356 11.1719 26.5857C10.9202 27.0359 10.5604 27.385 10.0926 27.6331C9.62822 27.8777 9.09831 28 8.50282 28H6.51432ZM7.80631 22.848V26.9685H8.4975C9.65658 26.9685 10.2467 26.3518 10.268 25.1183V24.762C10.268 23.5144 9.71683 22.8763 8.61447 22.848H7.80631ZM18.0146 25.0438C18.0146 25.9796 17.7577 26.7204 17.2437 27.2663C16.7333 27.8121 16.0581 28.0851 15.218 28.0851C14.3815 28.0851 13.7027 27.8121 13.1816 27.2663C12.6606 26.7169 12.4001 25.9672 12.4001 25.0173V24.7727C12.4001 24.163 12.517 23.626 12.751 23.1617C12.9885 22.6938 13.3199 22.3376 13.7452 22.093C14.1706 21.8449 14.6579 21.7208 15.2074 21.7208C16.0581 21.7208 16.7386 21.9991 17.249 22.5556C17.7594 23.1085 18.0146 23.8582 18.0146 24.8046V25.0438ZM16.728 24.762C16.728 24.1134 16.5951 23.6189 16.3292 23.2786C16.0634 22.9384 15.6894 22.7682 15.2074 22.7682C14.7324 22.7682 14.3602 22.9384 14.0908 23.2786C13.8214 23.6189 13.6867 24.1134 13.6867 24.762V25.0438C13.6867 25.6748 13.8214 26.1675 14.0908 26.5219C14.3638 26.8728 14.7395 27.0483 15.218 27.0483C15.7 27.0483 16.0722 26.8764 16.3345 26.5326C16.5968 26.1852 16.728 25.6889 16.728 25.0438V24.762ZM23.911 22.848H21.8587V28H20.5667V22.848H18.541V21.8059H23.911V22.848Z" fill="white"/>
</svg>
