<svg width="48" height="48" viewBox="0 0 48 48" fill="none" xmlns="http://www.w3.org/2000/svg">
<path d="M8.66617 0C7.1942 0 6 1.19353 6 2.66616V45.3333C6 46.806 7.1942 48 8.66617 48H39.3338C40.8065 48 42 46.8058 42 45.3333V14.0333C42 12.9574 41.5615 11.9279 40.7856 11.1825L30.2938 1.10251C29.5574 0.395086 28.576 0 27.5549 0H8.66617Z" fill="#B3BD35"/>
<path d="M40.2121 12.6845C40.645 13.1005 40.3506 13.8319 39.7502 13.8319H31.0983C29.6083 13.8319 28.4006 12.6236 28.4006 11.1337V2.90155C28.4006 2.31407 29.1055 2.01383 29.5291 2.42084L40.2121 12.6845Z" fill="#C6CB2D"/>
<path d="M30 28.8347C30 30.583 28.5558 32 26.7745 32H3.22552C1.44354 32 0 30.583 0 28.8347V19.1653C0 17.417 1.44371 16 3.22552 16H26.7745C28.5558 16 30 17.417 30 19.1653V28.8347Z" fill="#C6CB2D"/>
<path d="M10.4009 26.6761H7.83822L7.33312 28H6.03049L8.53472 21.8059H9.72038L12.214 28H10.906L10.4009 26.6761ZM8.21571 25.6925H10.0234L9.11957 23.3424L8.21571 25.6925ZM16.3611 26.373C16.3611 26.1391 16.269 25.953 16.0846 25.8148C15.9003 25.673 15.537 25.5348 14.9947 25.4001C14.4559 25.2654 14.0306 25.1112 13.7186 24.9375C13.4067 24.7638 13.1763 24.5618 13.0275 24.3314C12.8821 24.0974 12.8095 23.8174 12.8095 23.4913C12.8095 22.9738 13.0275 22.5502 13.4634 22.2206C13.8994 21.8874 14.463 21.7208 15.1542 21.7208C15.8985 21.7208 16.4958 21.898 16.946 22.2525C17.3961 22.607 17.6212 23.0677 17.6212 23.6349H16.3292C16.3292 23.3478 16.2229 23.1227 16.0102 22.9596C15.7975 22.793 15.5122 22.7097 15.1542 22.7097C14.8175 22.7097 14.5516 22.7789 14.3567 22.9171C14.1617 23.0518 14.0642 23.2326 14.0642 23.4594C14.0642 23.665 14.1635 23.8351 14.362 23.9698C14.564 24.1045 14.9185 24.2339 15.4253 24.358C16.2087 24.5494 16.7705 24.8028 17.1108 25.1183C17.4511 25.4337 17.6212 25.8431 17.6212 26.3465C17.6212 26.8888 17.4014 27.3141 16.9619 27.6225C16.5224 27.9309 15.9411 28.0851 15.218 28.0851C14.7288 28.0851 14.2805 28.0035 13.8728 27.8405C13.4687 27.6739 13.1551 27.44 12.9317 27.1387C12.7084 26.8374 12.5968 26.4865 12.5968 26.0859H13.8941C13.8941 26.7665 14.3478 27.1068 15.2552 27.1068C15.599 27.1068 15.8684 27.0412 16.0634 26.91C16.2619 26.7789 16.3611 26.5999 16.3611 26.373ZM19.9074 25.8254V28H18.6155V21.8059H21.1941C21.9456 21.8059 22.5446 21.9955 22.9912 22.3748C23.4414 22.7505 23.6664 23.245 23.6664 23.8582C23.6664 24.4572 23.452 24.9322 23.0231 25.2831C22.5978 25.634 22.0094 25.8148 21.2579 25.8254H19.9074ZM19.9074 24.7833H21.1941C21.5628 24.7833 21.8516 24.7053 22.0608 24.5494C22.2734 24.3934 22.3798 24.1666 22.3798 23.8688C22.3798 23.5604 22.2717 23.3141 22.0554 23.1298C21.8428 22.9419 21.5574 22.848 21.1994 22.848H19.9074V24.7833Z" fill="white"/>
</svg>
