<svg width="48" height="48" viewBox="0 0 48 48" fill="none" xmlns="http://www.w3.org/2000/svg">
<path d="M8.66617 0C7.1942 0 6 1.19353 6 2.66616V45.3333C6 46.806 7.1942 48 8.66617 48H39.3338C40.8065 48 42 46.8058 42 45.3333V14.0333C42 12.9574 41.5615 11.9279 40.7856 11.1825L30.2938 1.10251C29.5574 0.395086 28.576 0 27.5549 0H8.66617Z" fill="#396C80"/>
<path d="M40.2121 12.6845C40.645 13.1005 40.3506 13.8319 39.7502 13.8319H31.0983C29.6083 13.8319 28.4006 12.6236 28.4006 11.1337V2.90155C28.4006 2.31407 29.1055 2.01383 29.5291 2.42084L40.2121 12.6845Z" fill="#2D5460"/>
<path d="M30 28.8347C30 30.583 28.5558 32 26.7745 32H3.22552C1.44354 32 0 30.583 0 28.8347V19.1653C0 17.417 1.44371 16 3.22552 16H26.7745C28.5558 16 30 17.417 30 19.1653V28.8347Z" fill="#2D5460"/>
<path d="M10.1085 26.6761H7.54579L7.04069 28H5.73806L8.2423 21.8059H9.42795L11.9215 28H10.6136L10.1085 26.6761ZM7.92329 25.6925H9.73101L8.82715 23.3424L7.92329 25.6925ZM16.393 26.6761H13.8303L13.3252 28H12.0226L14.5268 21.8059H15.7125L18.2061 28H16.8981L16.393 26.6761ZM14.2078 25.6925H16.0155L15.1117 23.3424L14.2078 25.6925ZM23.9801 25.9371C23.9199 26.6141 23.654 27.1422 23.1826 27.5215C22.7147 27.8972 22.0962 28.0851 21.327 28.0851C20.4905 28.0851 19.8277 27.8192 19.3385 27.2875C18.8494 26.7559 18.6048 26.0168 18.6048 25.0704V24.7089C18.6048 24.1098 18.7165 23.5853 18.9398 23.1351C19.1631 22.6814 19.4839 22.3322 19.9021 22.0877C20.3204 21.8431 20.806 21.7208 21.3589 21.7208C22.1175 21.7208 22.7271 21.914 23.1879 22.3003C23.6487 22.6867 23.9146 23.2237 23.9855 23.9113H22.6935C22.6509 23.5144 22.518 23.2237 22.2947 23.0394C22.0749 22.8515 21.763 22.7576 21.3589 22.7576C20.3842 22.7576 19.8968 23.4133 19.8968 24.7248V25.1076C19.8968 25.7634 20.0156 26.2525 20.253 26.5751C20.4905 26.8941 20.8485 27.0536 21.327 27.0536C21.7524 27.0536 22.0749 26.9668 22.2947 26.7931C22.5145 26.6194 22.6474 26.3341 22.6935 25.9371H23.9801Z" fill="white"/>
</svg>
