<svg width="48" height="48" viewBox="0 0 48 48" fill="none" xmlns="http://www.w3.org/2000/svg">
<g clip-path="url(#clip0)">
<path d="M8.66617 0C7.1942 0 6 1.19353 6 2.66616V45.3333C6 46.806 7.1942 48 8.66617 48H39.3338C40.8065 48 42 46.8058 42 45.3333V14.0333C42 12.9574 41.5615 11.9279 40.7856 11.1825L30.2938 1.10251C29.5574 0.395086 28.576 0 27.5549 0H8.66617Z" fill="#022326"/>
<path d="M40.2121 12.6845C40.645 13.1005 40.3506 13.8319 39.7502 13.8319H31.0983C29.6083 13.8319 28.4006 12.6236 28.4006 11.1337V2.90155C28.4006 2.31407 29.1055 2.01383 29.5291 2.42084L40.2121 12.6845Z" fill="#3DF0F0"/>
<path d="M24.337 43.0999H31.087V41.4312H26.1745V32.7874H24.337V43.0999ZM32.3427 35.8999V43.0999H34.1239V37.5499C34.4989 37.4124 34.8927 37.3437 35.3052 37.3437C35.9052 37.3437 36.4177 37.4687 36.8427 37.7187L36.9177 37.6999L37.2739 36.0687C36.8614 35.8812 36.4239 35.7874 35.9614 35.7874C35.2114 35.7874 34.5052 35.9999 33.8427 36.4249L33.6177 35.8999H32.3427Z" fill="#D9F4FF"/>
</g>
<defs>
<clipPath id="clip0">
<rect x="6" width="36" height="48" rx="3" fill="white"/>
</clipPath>
</defs>
</svg>
