<svg width="48" height="48" viewBox="0 0 48 48" fill="none" xmlns="http://www.w3.org/2000/svg">
<path d="M8.66617 0C7.1942 0 6 1.19353 6 2.66616V45.3333C6 46.806 7.1942 48 8.66617 48H39.3338C40.8065 48 42 46.8058 42 45.3333V14.0333C42 12.9574 41.5615 11.9279 40.7856 11.1825L30.2938 1.10251C29.5574 0.395086 28.576 0 27.5549 0H8.66617Z" fill="#A11D2A"/>
<path d="M40.2121 12.6845C40.645 13.1005 40.3506 13.8319 39.7502 13.8319H31.0983C29.6083 13.8319 28.4006 12.6236 28.4006 11.1337V2.90155C28.4006 2.31407 29.1055 2.01383 29.5291 2.42084L40.2121 12.6845Z" fill="#7F1325"/>
<path d="M30 28.8347C30 30.583 28.5558 32 26.7745 32H3.22552C1.44354 32 0 30.583 0 28.8347V19.1653C0 17.417 1.44371 16 3.22552 16H26.7745C28.5558 16 30 17.417 30 19.1653V28.8347Z" fill="#7F1325"/>
<path d="M12.1608 25.7403H10.9752V28H9.68316V21.8059H12.1076C12.8804 21.8059 13.4794 21.9689 13.9047 22.295C14.3301 22.6176 14.5428 23.0802 14.5428 23.6827C14.5428 24.5157 14.144 25.0935 13.3465 25.416L14.8033 27.9415V28H13.4209L12.1608 25.7403ZM10.9752 24.7089H12.1076C12.4905 24.7089 12.7776 24.6256 12.969 24.459C13.1604 24.2888 13.2561 24.0655 13.2561 23.7891C13.2561 23.502 13.1621 23.2733 12.9743 23.1032C12.79 22.9331 12.5011 22.848 12.1076 22.848H10.9752V24.7089ZM15.6168 28V21.8059H17.9083C18.6952 21.8059 19.296 21.953 19.7107 22.2472C20.129 22.5378 20.3381 22.9596 20.3381 23.5126C20.3381 23.7926 20.2584 24.0496 20.0989 24.2835C19.9429 24.5139 19.7036 24.6912 19.3811 24.8152C19.7214 24.8967 19.9907 25.0651 20.1892 25.3203C20.3877 25.572 20.487 25.8733 20.487 26.2242C20.487 26.8019 20.2867 27.2432 19.8862 27.5481C19.4856 27.8494 18.8937 28 18.1104 28H15.6168ZM16.9087 25.3044V26.9685H18.121C18.4825 26.9685 18.7519 26.8941 18.9291 26.7452C19.1064 26.5928 19.195 26.4014 19.195 26.171C19.195 25.611 18.876 25.3221 18.238 25.3044H16.9087ZM16.9087 24.4005H18.0359C18.3585 24.3934 18.6066 24.3261 18.7803 24.1985C18.9575 24.0709 19.0461 23.8848 19.0461 23.6402C19.0461 23.3602 18.954 23.1581 18.7696 23.0341C18.5889 22.91 18.3195 22.848 17.9615 22.848H16.9087V24.4005Z" fill="white"/>
</svg>
