<svg width="48" height="48" viewBox="0 0 48 48" fill="none" xmlns="http://www.w3.org/2000/svg">
<g clip-path="url(#clip0)">
<path d="M8.66617 0C7.1942 0 6 1.19353 6 2.66616V45.3333C6 46.806 7.1942 48 8.66617 48H39.3338C40.8065 48 42 46.8058 42 45.3333V14.0333C42 12.9574 41.5615 11.9279 40.7856 11.1825L30.2938 1.10251C29.5574 0.395086 28.576 0 27.5549 0H8.66617Z" fill="#002620"/>
<path d="M40.2121 12.6845C40.645 13.1005 40.3506 13.8319 39.7502 13.8319H31.0983C29.6083 13.8319 28.4006 12.6236 28.4006 11.1337V2.90155C28.4006 2.31407 29.1055 2.01383 29.5291 2.42084L40.2121 12.6845Z" fill="#00E4BB"/>
<path d="M20.5084 43.0999H22.3084L23.3396 40.3812H27.1459L28.1959 43.0999H30.0521L26.1709 32.7874H24.3896L20.5084 43.0999ZM23.9209 38.7312L25.2334 34.8687L26.5459 38.7312H23.9209ZM37.6113 43.1187V35.8999H35.8488V41.2999C35.3488 41.5874 34.8238 41.7312 34.2738 41.7312C33.7738 41.7312 33.4301 41.5812 33.2426 41.2812C33.0551 40.9812 32.9613 40.6374 32.9613 40.2499V35.8999H31.1801V40.0062C31.1801 40.9187 31.3426 41.6937 31.6676 42.3312C32.0051 42.9562 32.7176 43.2687 33.8051 43.2687C34.2301 43.2687 34.6051 43.2124 34.9301 43.0999C35.2676 42.9874 35.6738 42.8187 36.1488 42.5937L36.3738 43.1187H37.6113Z" fill="#D9FFF6"/>
</g>
<defs>
<clipPath id="clip0">
<rect x="6" width="36" height="48" rx="3" fill="white"/>
</clipPath>
</defs>
</svg>
