<svg width="48" height="48" viewBox="0 0 48 48" fill="none" xmlns="http://www.w3.org/2000/svg">
<path d="M8.66617 0C7.1942 0 6 1.19353 6 2.66616V45.3333C6 46.806 7.1942 48 8.66617 48H39.3338C40.8065 48 42 46.8058 42 45.3333V14.0333C42 12.9574 41.5615 11.9279 40.7856 11.1825L30.2938 1.10251C29.5574 0.395086 28.576 0 27.5549 0H8.66617Z" fill="#51B748"/>
<path d="M40.2121 12.6845C40.645 13.1005 40.3506 13.8319 39.7502 13.8319H31.0983C29.6083 13.8319 28.4006 12.6236 28.4006 11.1337V2.90155C28.4006 2.31407 29.1055 2.01383 29.5291 2.42084L40.2121 12.6845Z" fill="#38AA49"/>
<path d="M30 28.8347C30 30.583 28.5558 32 26.7745 32H3.22552C1.44354 32 0 30.583 0 28.8347V19.1653C0 17.417 1.44371 16 3.22552 16H26.7745C28.5558 16 30 17.417 30 19.1653V28.8347Z" fill="#38AA49"/>
<path d="M8.8112 21.8059L10.603 26.288L12.3788 21.8059H14.0696V28H12.7829V26.3252L12.9158 23.2946L11.0443 28H10.151L8.28483 23.3212L8.41775 26.3252V28H7.13108V21.8059H8.8112ZM16.6961 28H15.4094V21.8059H16.6961V28ZM18.0306 28V21.8059H20.0457C20.627 21.8059 21.1463 21.9282 21.6035 22.1727C22.0643 22.4173 22.4223 22.7629 22.6775 23.2095C22.9327 23.6526 23.0639 24.1559 23.071 24.7195V25.0438C23.071 25.6216 22.9434 26.1356 22.6882 26.5857C22.4365 27.0359 22.0767 27.385 21.6088 27.6331C21.1445 27.8777 20.6146 28 20.0191 28H18.0306ZM19.3226 22.848V26.9685H20.0138C21.1729 26.9685 21.763 26.3518 21.7843 25.1183V24.762C21.7843 23.5144 21.2331 22.8763 20.1308 22.848H19.3226Z" fill="white"/>
<path opacity="0.8" d="M30.6888 35.2655V42.4638C30.4317 42.4339 30.1457 42.4406 29.8432 42.4931C28.7402 42.6839 27.8462 43.3892 27.8462 44.0682C27.8462 44.7472 28.7402 45.1429 29.8432 44.952C30.9461 44.7612 31.84 44.0559 31.84 43.3769V37.5653L36.8488 36.6982V41.3972C36.5919 41.3673 36.306 41.3742 36.0032 41.4266C34.9 41.6175 34.0062 42.3228 34.0062 43.0018C34.0062 43.6808 34.9 44.0765 36.0032 43.8856C37.1059 43.6948 38 42.9895 38 42.3105V34L30.6888 35.2655Z" fill="#38AA49"/>
</svg>
