<svg width="48" height="48" viewBox="0 0 48 48" fill="none" xmlns="http://www.w3.org/2000/svg">
<path d="M8.66617 0C7.1942 0 6 1.19353 6 2.66616V45.3333C6 46.806 7.1942 48 8.66617 48H39.3338C40.8065 48 42 46.8058 42 45.3333V14.0333C42 12.9574 41.5615 11.9279 40.7856 11.1825L30.2938 1.10251C29.5574 0.395086 28.576 0 27.5549 0H8.66617Z" fill="#A14443"/>
<path d="M40.2121 12.6845C40.645 13.1005 40.3506 13.8319 39.7502 13.8319H31.0983C29.6083 13.8319 28.4006 12.6236 28.4006 11.1337V2.90155C28.4006 2.31407 29.1055 2.01383 29.5291 2.42084L40.2121 12.6845Z" fill="#883637"/>
<path d="M30 28.8347C30 30.583 28.5558 32 26.7745 32H3.22552C1.44354 32 0 30.583 0 28.8347V19.1653C0 17.417 1.44371 16 3.22552 16H26.7745C28.5558 16 30 17.417 30 19.1653V28.8347Z" fill="#883637"/>
<path d="M9.72038 28H8.4337V21.8059H9.72038V28ZM16.2229 25.9371C16.1626 26.6141 15.8968 27.1422 15.4253 27.5215C14.9575 27.8972 14.3389 28.0851 13.5698 28.0851C12.7333 28.0851 12.0704 27.8192 11.5813 27.2875C11.0921 26.7559 10.8475 26.0168 10.8475 25.0704V24.7089C10.8475 24.1098 10.9592 23.5853 11.1825 23.1351C11.4058 22.6814 11.7266 22.3322 12.1449 22.0877C12.5631 21.8431 13.0487 21.7208 13.6017 21.7208C14.3602 21.7208 14.9699 21.914 15.4307 22.3003C15.8915 22.6867 16.1573 23.2237 16.2282 23.9113H14.9362C14.8937 23.5144 14.7607 23.2237 14.5374 23.0394C14.3177 22.8515 14.0058 22.7576 13.6017 22.7576C12.6269 22.7576 12.1395 23.4133 12.1395 24.7248V25.1076C12.1395 25.7634 12.2583 26.2525 12.4958 26.5751C12.7333 26.8941 13.0913 27.0536 13.5698 27.0536C13.9951 27.0536 14.3177 26.9668 14.5374 26.7931C14.7572 26.6194 14.8901 26.3341 14.9362 25.9371H16.2229ZM20.6465 26.373C20.6465 26.1391 20.5543 25.953 20.37 25.8148C20.1857 25.673 19.8224 25.5348 19.2801 25.4001C18.7413 25.2654 18.3159 25.1112 18.004 24.9375C17.6921 24.7638 17.4617 24.5618 17.3128 24.3314C17.1675 24.0974 17.0948 23.8174 17.0948 23.4913C17.0948 22.9738 17.3128 22.5502 17.7488 22.2206C18.1848 21.8874 18.7484 21.7208 19.4396 21.7208C20.1839 21.7208 20.7812 21.898 21.2313 22.2525C21.6815 22.607 21.9066 23.0677 21.9066 23.6349H20.6146C20.6146 23.3478 20.5082 23.1227 20.2956 22.9596C20.0829 22.793 19.7976 22.7097 19.4396 22.7097C19.1028 22.7097 18.837 22.7789 18.642 22.9171C18.4471 23.0518 18.3496 23.2326 18.3496 23.4594C18.3496 23.665 18.4489 23.8351 18.6474 23.9698C18.8494 24.1045 19.2038 24.2339 19.7107 24.358C20.4941 24.5494 21.0559 24.8028 21.3962 25.1183C21.7364 25.4337 21.9066 25.8431 21.9066 26.3465C21.9066 26.8888 21.6868 27.3141 21.2473 27.6225C20.8078 27.9309 20.2265 28.0851 19.5034 28.0851C19.0142 28.0851 18.5658 28.0035 18.1582 27.8405C17.7541 27.6739 17.4404 27.44 17.2171 27.1387C16.9938 26.8374 16.8822 26.4865 16.8822 26.0859H18.1795C18.1795 26.7665 18.6332 27.1068 19.5406 27.1068C19.8844 27.1068 20.1538 27.0412 20.3487 26.91C20.5472 26.7789 20.6465 26.5999 20.6465 26.373Z" fill="white"/>
</svg>
