<svg width="48" height="48" viewBox="0 0 48 48" fill="none" xmlns="http://www.w3.org/2000/svg">
<path d="M8.66617 0C7.1942 0 6 1.19353 6 2.66616V45.3333C6 46.806 7.1942 48 8.66617 48H39.3338C40.8065 48 42 46.8058 42 45.3333V14.0333C42 12.9574 41.5615 11.9279 40.7856 11.1825L30.2938 1.10251C29.5574 0.395086 28.576 0 27.5549 0H8.66617Z" fill="#3CB881"/>
<path d="M40.2121 12.6845C40.645 13.1005 40.3506 13.8319 39.7502 13.8319H31.0983C29.6083 13.8319 28.4006 12.6236 28.4006 11.1337V2.90155C28.4006 2.31407 29.1055 2.01383 29.5291 2.42084L40.2121 12.6845Z" fill="#22A56F"/>
<path d="M30 28.8347C30 30.583 28.5558 32 26.7745 32H3.22552C1.44354 32 0 30.583 0 28.8347V19.1653C0 17.417 1.44371 16 3.22552 16H26.7745C28.5558 16 30 17.417 30 19.1653V28.8347Z" fill="#22A56F"/>
<path d="M7.03006 21.8059L8.82183 26.288L10.5977 21.8059H12.2884V28H11.0017V26.3252L11.1347 23.2946L9.26313 28H8.3699L6.50369 23.3212L6.63661 26.3252V28H5.34993V21.8059H7.03006ZM14.8405 25.8254V28H13.5485V21.8059H16.1272C16.8786 21.8059 17.4776 21.9955 17.9243 22.3748C18.3744 22.7505 18.5995 23.245 18.5995 23.8582C18.5995 24.4572 18.3851 24.9322 17.9562 25.2831C17.5308 25.634 16.9424 25.8148 16.191 25.8254H14.8405ZM14.8405 24.7833H16.1272C16.4958 24.7833 16.7847 24.7053 16.9938 24.5494C17.2065 24.3934 17.3128 24.1666 17.3128 23.8688C17.3128 23.5604 17.2047 23.3141 16.9885 23.1298C16.7758 22.9419 16.4905 22.848 16.1325 22.848H14.8405V24.7833ZM24.7777 27.2184L24.6554 27.346C24.1237 27.8387 23.3279 28.0851 22.2681 28.0851C21.3891 28.0851 20.6908 27.8175 20.1733 27.2822C19.6558 26.747 19.397 26.0097 19.397 25.0704V24.7248C19.397 23.7855 19.6434 23.05 20.1361 22.5183C20.6288 21.9867 21.3075 21.7208 22.1724 21.7208C22.9345 21.7208 23.5371 21.8945 23.9801 22.2419C24.4232 22.5857 24.6891 23.0979 24.7777 23.7784H23.5176C23.4538 23.424 23.3138 23.1652 23.0975 23.0022C22.8849 22.8391 22.5871 22.7576 22.2043 22.7576C21.1977 22.7576 20.6943 23.4222 20.6943 24.7514V25.0917C20.6943 25.7403 20.8361 26.2295 21.1197 26.5591C21.4032 26.8888 21.8073 27.0536 22.3319 27.0536C22.8565 27.0536 23.2429 26.9526 23.491 26.7505V25.6872H22.1671V24.7461H24.7777V27.2184Z" fill="white"/>
<path d="M38.625 45.25C38.8321 45.25 39 45.0821 39 44.875V34.375C39 34.1679 38.8321 34 38.625 34H27.375C27.1679 34 27 34.1679 27 34.375V44.875C27 45.0821 27.1679 45.25 27.375 45.25H38.625ZM30.75 44.5H29.625V43.375H30.75V44.5ZM32.625 44.5H31.5V43.375H32.625V44.5ZM34.5 44.5H33.375V43.375H34.5V44.5ZM36.375 44.5H35.25V43.375H36.375V44.5ZM38.25 44.5H37.125V43.375H38.25V44.5ZM27.75 34.9H38.25V42.625H27.75V34.9ZM27.75 43.375H28.875V44.5H27.75V43.375Z" fill="#22A56F"/>
<path d="M35.0739 38.432L32.0739 36.557C31.9581 36.4849 31.8126 36.481 31.6932 36.5471C31.574 36.6132 31.5 36.7387 31.5 36.8751V40.6251C31.5 40.7615 31.574 40.8869 31.6932 40.953C31.8126 41.0191 31.9581 41.0153 32.0739 40.9431L35.0739 39.0681C35.1841 38.9997 35.2513 38.8792 35.2513 38.7494C35.2513 38.6195 35.1841 38.4991 35.0739 38.4306V38.432ZM32.25 39.9502V37.5539L34.1675 38.7501L32.25 39.9502Z" fill="#22A56F"/>
</svg>
