<svg width="48" height="48" viewBox="0 0 48 48" fill="none" xmlns="http://www.w3.org/2000/svg">
<path d="M8.66617 0C7.1942 0 6 1.19353 6 2.66616V45.3333C6 46.806 7.1942 48 8.66617 48H39.3338C40.8065 48 42 46.8058 42 45.3333V14.0333C42 12.9574 41.5615 11.9279 40.7856 11.1825L30.2938 1.10251C29.5574 0.395086 28.576 0 27.5549 0H8.66617Z" fill="#E23A37"/>
<path d="M40.2121 12.6845C40.645 13.1005 40.3506 13.8319 39.7502 13.8319H31.0983C29.6083 13.8319 28.4006 12.6236 28.4006 11.1337V2.90155C28.4006 2.31407 29.1055 2.01383 29.5291 2.42084L40.2121 12.6845Z" fill="#C93332"/>
<path d="M30 28.8347C30 30.583 28.5558 32 26.7745 32H3.22552C1.44354 32 0 30.583 0 28.8347V19.1653C0 17.417 1.44371 16 3.22552 16H26.7745C28.5558 16 30 17.417 30 19.1653V28.8347Z" fill="#C93332"/>
<path d="M8.00836 25.8254V28H6.71636V21.8059H9.29503C10.0465 21.8059 10.6455 21.9955 11.0921 22.3748C11.5423 22.7505 11.7674 23.245 11.7674 23.8582C11.7674 24.4572 11.5529 24.9322 11.124 25.2831C10.6987 25.634 10.1103 25.8148 9.35883 25.8254H8.00836ZM8.00836 24.7833H9.29503C9.66366 24.7833 9.95255 24.7053 10.1617 24.5494C10.3743 24.3934 10.4807 24.1666 10.4807 23.8688C10.4807 23.5604 10.3726 23.3141 10.1564 23.1298C9.94369 22.9419 9.65835 22.848 9.30035 22.848H8.00836V24.7833ZM14.0377 25.8254V28H12.7457V21.8059H15.3243C16.0758 21.8059 16.6748 21.9955 17.1214 22.3748C17.5716 22.7505 17.7967 23.245 17.7967 23.8582C17.7967 24.4572 17.5822 24.9322 17.1533 25.2831C16.728 25.634 16.1396 25.8148 15.3881 25.8254H14.0377ZM14.0377 24.7833H15.3243C15.693 24.7833 15.9818 24.7053 16.191 24.5494C16.4036 24.3934 16.51 24.1666 16.51 23.8688C16.51 23.5604 16.4019 23.3141 16.1857 23.1298C15.973 22.9419 15.6876 22.848 15.3296 22.848H14.0377V24.7833ZM23.709 22.848H21.6567V28H20.3647V22.848H18.339V21.8059H23.709V22.848Z" fill="white"/>
</svg>
