<svg width="48" height="48" viewBox="0 0 48 48" fill="none" xmlns="http://www.w3.org/2000/svg">
<path d="M8.66617 0C7.1942 0 6 1.19353 6 2.66616V45.3333C6 46.806 7.1942 48 8.66617 48H39.3338C40.8065 48 42 46.8058 42 45.3333V14.0333C42 12.9574 41.5615 11.9279 40.7856 11.1825L30.2938 1.10251C29.5574 0.395086 28.576 0 27.5549 0H8.66617Z" fill="#344E5D"/>
<path d="M40.2121 12.6845C40.645 13.1005 40.3506 13.8319 39.7502 13.8319H31.0983C29.6083 13.8319 28.4006 12.6236 28.4006 11.1337V2.90155C28.4006 2.31407 29.1055 2.01383 29.5291 2.42084L40.2121 12.6845Z" fill="#283E49"/>
<path d="M30 28.8347C30 30.583 28.5558 32 26.7745 32H3.22552C1.44354 32 0 30.583 0 28.8347V19.1653C0 17.417 1.44371 16 3.22552 16H26.7745C28.5558 16 30 17.417 30 19.1653V28.8347Z" fill="#283E49"/>
<path d="M5.53602 28V21.8059H7.82758C8.61447 21.8059 9.21528 21.953 9.62999 22.2472C10.0482 22.5378 10.2574 22.9596 10.2574 23.5126C10.2574 23.7926 10.1776 24.0496 10.0181 24.2835C9.86216 24.5139 9.6229 24.6912 9.30035 24.8152C9.64063 24.8967 9.91001 25.0651 10.1085 25.3203C10.307 25.572 10.4063 25.8733 10.4063 26.2242C10.4063 26.8019 10.206 27.2432 9.80545 27.5481C9.40491 27.8494 8.81297 28 8.02962 28H5.53602ZM6.82802 25.3044V26.9685H8.04026C8.4018 26.9685 8.67119 26.8941 8.84842 26.7452C9.02564 26.5928 9.11426 26.4014 9.11426 26.171C9.11426 25.611 8.79525 25.3221 8.15723 25.3044H6.82802ZM6.82802 24.4005H7.95519C8.27774 24.3934 8.52586 24.3261 8.69954 24.1985C8.87677 24.0709 8.96539 23.8848 8.96539 23.6402C8.96539 23.3602 8.87323 23.1581 8.68891 23.0341C8.50814 22.91 8.23875 22.848 7.88075 22.848H6.82802V24.4005ZM13.171 21.8059L14.9628 26.288L16.7386 21.8059H18.4294V28H17.1427V26.3252L17.2756 23.2946L15.4041 28H14.5109L12.6446 23.3212L12.7776 26.3252V28H11.4909V21.8059H13.171ZM20.9814 25.8254V28H19.6895V21.8059H22.2681C23.0196 21.8059 23.6186 21.9955 24.0652 22.3748C24.5154 22.7505 24.7405 23.245 24.7405 23.8582C24.7405 24.4572 24.526 24.9322 24.0971 25.2831C23.6718 25.634 23.0834 25.8148 22.3319 25.8254H20.9814ZM20.9814 24.7833H22.2681C22.6368 24.7833 22.9256 24.7053 23.1348 24.5494C23.3474 24.3934 23.4538 24.1666 23.4538 23.8688C23.4538 23.5604 23.3457 23.3141 23.1294 23.1298C22.9168 22.9419 22.6314 22.848 22.2734 22.848H20.9814V24.7833Z" fill="white"/>
<g opacity="0.5">
<path fill-rule="evenodd" clip-rule="evenodd" d="M39 43.6725C39 44.4058 38.4032 45 37.6725 45H28.3275C27.5942 45 27 44.4032 27 43.6725V34.3275C27 33.5942 27.5968 33 28.3275 33H37.6725C38.4058 33 39 33.5968 39 34.3275V43.6725ZM28.3275 44.2493H37.6725C37.9894 44.2493 38.2493 43.9894 38.2493 43.6725V42.1445L36.0827 39.9779L34.2197 41.8409C34.0727 41.9879 33.8364 41.9879 33.6894 41.8409L30.2802 38.4317L27.7507 40.9612V43.6725C27.7507 43.9894 28.0106 44.2493 28.3275 44.2493ZM37.6725 33.7507H28.3275C28.0106 33.7507 27.7507 34.0106 27.7507 34.3275V39.8984L30.0163 37.6351C30.1633 37.4881 30.3996 37.4881 30.5466 37.6351L33.9558 41.0443L35.8188 39.1813C35.9658 39.0343 36.2021 39.0343 36.3491 39.1813L38.2493 41.0815V34.3275C38.2493 34.0106 37.9894 33.7507 37.6725 33.7507ZM35.2504 37.903C34.3743 37.903 33.6639 37.19 33.6639 36.3165C33.6639 35.443 34.3768 34.7301 35.2504 34.7301C36.1239 34.7301 36.8368 35.443 36.8368 36.3165C36.8368 37.19 36.1264 37.903 35.2504 37.903ZM35.2504 35.4808C34.7884 35.4808 34.4147 35.8567 34.4147 36.3165C34.4147 36.7762 34.7907 37.1522 35.2504 37.1522C35.7101 37.1522 36.0861 36.7762 36.0861 36.3165C36.0861 35.8567 35.7124 35.4808 35.2504 35.4808Z" fill="#283E49"/>
</g>
</svg>
