<svg width="48" height="48" viewBox="0 0 48 48" fill="none" xmlns="http://www.w3.org/2000/svg">
<path d="M18.2959 4C17.0283 4 16 4.96974 16 6.16625V40.8333C16 42.0299 17.0283 43 18.2959 43H44.7041C45.9722 43 47 42.0297 47 40.8333V15.4021V7.00001C47 5.34315 45.6569 4 44 4.00001L34.5611 4.00002L18.2959 4Z" fill="#AF9946"/>
<path d="M14.444 2C13.0947 2 12 3.09407 12 4.44398V43.5556C12 44.9055 13.0947 46 14.444 46H42.556C43.9059 46 45 44.9053 45 43.5556V14.8639V5C45 3.34314 43.6569 2 42 2L31.7586 2L14.444 2Z" fill="#D3B74E"/>
<path d="M8.66617 0C7.1942 0 6 1.19353 6 2.66616V45.3333C6 46.806 7.1942 48 8.66617 48H39.3338C40.8065 48 42 46.8058 42 45.3333V14.0333V3.00001C42 1.34315 40.6569 2.44688e-06 39 5.46526e-06L27.5549 2.63155e-05L8.66617 0Z" fill="#E6C654"/>
<path d="M36.9036 39.9052L36.9036 37.8104L34.3106 37.8104L34.3106 39.9052L36.9036 39.9052Z" fill="#D0B54E"/>
<path d="M41.9858 39.9052L41.9858 37.8104L39.3928 37.8104L39.3928 39.9052L41.9858 39.9052Z" fill="#D0B54E"/>
<path d="M34.3105 42.0001L34.3105 39.9053L31.7176 39.9053L31.7176 42.0001L34.3105 42.0001Z" fill="#D0B54E"/>
<path d="M39.3928 42.0001L39.3928 39.9053L36.7998 39.9053L36.7998 42.0001L39.3928 42.0001Z" fill="#D0B54E"/>
<path d="M31.7175 39.9052L31.7175 37.8104L29.1245 37.8104L29.1245 39.9052L31.7175 39.9052Z" fill="#D0B54E"/>
<path d="M29.1248 42.0001L29.1248 39.9053L26.5318 39.9053L26.5318 42.0001L29.1248 42.0001Z" fill="#D0B54E"/>
<path d="M26.5305 39.9052L26.5305 37.8104L23.9375 37.8104L23.9375 39.9052L26.5305 39.9052Z" fill="#D0B54E"/>
<path d="M23.9387 42.0001L23.9387 39.9053L21.3457 39.9053L21.3457 42.0001L23.9387 42.0001Z" fill="#D0B54E"/>
<path fill-rule="evenodd" clip-rule="evenodd" d="M16.6615 38.318C15.6845 38.1622 14.7998 38.9171 14.7998 39.9065C14.7998 40.8959 15.6845 41.6507 16.6615 41.4951L20.1921 40.9328L20.1921 38.8803L16.6615 38.318ZM16.451 40.7778C15.9689 40.7778 15.5781 40.3871 15.5781 39.9051C15.5781 39.4229 15.9689 39.0322 16.451 39.0322C16.933 39.0322 17.3238 39.4229 17.3238 39.9051C17.3238 40.3871 16.933 40.7778 16.451 40.7778Z" fill="#D0B54E"/>
<path d="M30 28.8347C30 30.583 28.5558 32 26.7745 32H3.22552C1.44354 32 0 30.583 0 28.8347V19.1653C0 17.417 1.44371 16 3.22552 16H26.7745C28.5558 16 30 17.417 30 19.1653V28.8347Z" fill="#D0B54E"/>
<path d="M9.80013 26.9685H13.1763V28H8.14659V27.2503L11.443 22.848H8.15191V21.8059H13.0859V22.5396L9.80013 26.9685ZM15.4626 28H14.1759V21.8059H15.4626V28ZM18.0891 25.8254V28H16.7971V21.8059H19.3758C20.1272 21.8059 20.7262 21.9955 21.1729 22.3748C21.623 22.7505 21.8481 23.245 21.8481 23.8582C21.8481 24.4572 21.6336 24.9322 21.2048 25.2831C20.7794 25.634 20.191 25.8148 19.4396 25.8254H18.0891ZM18.0891 24.7833H19.3758C19.7444 24.7833 20.0333 24.7053 20.2424 24.5494C20.4551 24.3934 20.5614 24.1666 20.5614 23.8688C20.5614 23.5604 20.4533 23.3141 20.2371 23.1298C20.0244 22.9419 19.7391 22.848 19.3811 22.848H18.0891V24.7833Z" fill="white"/>
</svg>
