<svg width="48" height="48" viewBox="0 0 48 48" fill="none" xmlns="http://www.w3.org/2000/svg">
<path d="M8.66617 0C7.1942 0 6 1.19353 6 2.66616V45.3333C6 46.806 7.1942 48 8.66617 48H39.3338C40.8065 48 42 46.8058 42 45.3333V14.0333C42 12.9574 41.5615 11.9279 40.7856 11.1825L30.2938 1.10251C29.5574 0.395086 28.576 0 27.5549 0H8.66617Z" fill="#837C72"/>
<path d="M40.2121 12.6845C40.645 13.1005 40.3506 13.8319 39.7502 13.8319H31.0983C29.6083 13.8319 28.4006 12.6236 28.4006 11.1337V2.90155C28.4006 2.31407 29.1055 2.01383 29.5291 2.42084L40.2121 12.6845Z" fill="#6D6254"/>
<g opacity="0.5">
<g clip-path="url(#clip0)">
<path fill-rule="evenodd" clip-rule="evenodd" d="M38.1752 36.7469L39.2333 36.9129H39.2333C39.669 36.9958 40.001 37.39 40.001 37.8465V39.1535C40.001 39.6099 39.669 40.0041 39.2126 40.0664L38.1752 40.2531C38.1628 40.2861 38.1504 40.3194 38.138 40.3528C38.0253 40.6551 37.9077 40.9708 37.7395 41.2697L38.362 42.1411C38.6317 42.5145 38.5902 43.0124 38.2582 43.3236L37.3246 44.2572C37.1586 44.444 36.9304 44.5269 36.6815 44.5269C36.474 44.5269 36.2873 44.4854 36.142 44.361L35.2707 43.7385C34.9387 43.9253 34.6068 44.0498 34.2541 44.1742L34.0674 45.2116C34.0051 45.668 33.6109 46 33.1545 46H31.8267C31.3703 46 30.9968 45.668 30.9138 45.2116L30.7478 44.1742C30.3951 44.0498 30.0632 43.9253 29.752 43.7593L28.8806 44.3817C28.7147 44.5062 28.5279 44.5477 28.3412 44.5477C28.0923 44.5477 27.864 44.4647 27.6773 44.278L26.7437 43.3444C26.4325 43.0332 26.391 42.5353 26.6607 42.1618L27.2624 41.2905C27.0964 40.9792 26.9512 40.6265 26.8475 40.2739L25.7686 40.1079C25.3329 40.0249 25.001 39.6307 25.001 39.195V37.8672C25.001 37.4108 25.3329 37.0373 25.7686 36.9543L26.806 36.7884C26.9304 36.4149 27.0549 36.083 27.2209 35.751L26.5985 34.8797C26.3495 34.5062 26.391 34.0083 26.7022 33.6763L27.6358 32.7427C27.8225 32.5768 28.0508 32.473 28.2997 32.473C28.4864 32.473 28.6732 32.5353 28.8391 32.639L29.6898 33.2614C30.0217 33.0954 30.3537 32.9502 30.7064 32.8465L30.8931 31.7676C30.9761 31.3319 31.3495 31 31.8059 31H33.1337C33.5902 31 33.9636 31.3319 34.0466 31.7676L34.2126 32.805C34.586 32.9295 34.9387 33.0747 35.2707 33.2407L36.142 32.6183C36.308 32.5145 36.4947 32.4523 36.6815 32.4523C36.9304 32.4523 37.1586 32.556 37.3454 32.722L38.279 33.6556C38.5902 33.9875 38.6316 34.4855 38.3619 34.8589L37.7603 35.7303C37.9262 36.0415 38.0715 36.3942 38.1752 36.7469ZM39.0881 39.2365C39.1296 39.2365 39.1503 39.195 39.1503 39.1535H39.1503V37.8465C39.1503 37.805 39.1296 37.7635 39.0881 37.7635L37.781 37.5353C37.615 37.5145 37.4698 37.39 37.4283 37.2241C37.3246 36.7676 37.1379 36.3112 36.8889 35.917C36.8059 35.7718 36.8059 35.5851 36.9096 35.4398L37.6773 34.361C37.698 34.3195 37.698 34.278 37.6773 34.2573L36.7437 33.3237C36.7229 33.3029 36.6814 33.3029 36.6814 33.3029C36.6607 33.3029 36.6399 33.3029 36.6399 33.3237L35.5611 34.0913C35.4159 34.195 35.2291 34.195 35.0839 34.112C34.669 33.8631 34.2125 33.6763 33.7561 33.5519C33.5901 33.5104 33.4657 33.3859 33.4449 33.2199L33.2167 31.9129C33.2167 31.8714 33.1752 31.8506 33.1337 31.8506H31.8059C31.7852 31.8506 31.7437 31.8714 31.7437 31.9129L31.5154 33.2407C31.4739 33.4066 31.3495 33.5311 31.2042 33.5726C30.7478 33.6971 30.2914 33.8838 29.8972 34.1328C29.7519 34.2158 29.5652 34.195 29.42 34.112L28.3412 33.3444C28.3412 33.3237 28.3204 33.3237 28.2997 33.3237C28.2789 33.3237 28.2582 33.3237 28.2374 33.3444L27.3038 34.278C27.2831 34.2988 27.2831 34.361 27.3038 34.3818L28.0715 35.4813C28.1752 35.6058 28.1752 35.7925 28.0922 35.9378C27.864 36.3527 27.6773 36.7884 27.5528 37.2448C27.532 37.4108 27.3868 37.5353 27.2208 37.5768L25.9138 37.7842C25.8723 37.7842 25.8515 37.8257 25.8515 37.8672V39.195C25.8515 39.2365 25.8723 39.2573 25.9138 39.278L27.2416 39.4855C27.4076 39.527 27.532 39.6515 27.5735 39.7967C27.698 40.2531 27.8847 40.7095 28.1337 41.1037C28.2167 41.249 28.2167 41.4357 28.113 41.5809L27.3453 42.6597C27.3246 42.6805 27.3246 42.7427 27.3453 42.7635L28.2789 43.6971C28.2997 43.7178 28.3204 43.7178 28.3412 43.7178C28.3619 43.7178 28.3827 43.7178 28.3827 43.6971L29.4823 42.9295C29.5652 42.8672 29.6482 42.8465 29.7312 42.8465C29.7935 42.8465 29.8764 42.8672 29.9387 42.9087C30.3536 43.1369 30.7893 43.3236 31.225 43.4274C31.391 43.4689 31.5155 43.5934 31.5362 43.7593L31.7644 45.0871C31.7644 45.1286 31.8059 45.1494 31.8474 45.1494H33.1545C33.1959 45.1494 33.2374 45.1286 33.2374 45.0871L33.4657 43.7593C33.4864 43.6141 33.6109 43.4689 33.7769 43.4274C34.2333 43.3029 34.669 43.1369 35.0839 42.888C35.2291 42.805 35.4159 42.805 35.5404 42.9087L36.6192 43.6763C36.6296 43.6763 36.6399 43.6815 36.6503 43.6867C36.6607 43.6919 36.6711 43.6971 36.6814 43.6971C36.6814 43.6971 36.7229 43.6971 36.7437 43.6763L37.6773 42.7427C37.698 42.7012 37.698 42.6598 37.6773 42.6183L36.9096 41.5394C36.8059 41.3942 36.8059 41.2282 36.8889 41.083C37.1379 40.6681 37.3038 40.2324 37.4283 39.7759C37.4698 39.61 37.5943 39.4855 37.7603 39.4647L39.0881 39.2365ZM29.2533 38.4896C29.2533 36.7054 30.7056 35.2531 32.4898 35.2531C34.274 35.2531 35.7263 36.7054 35.7263 38.4896C35.7263 40.2739 34.274 41.7261 32.4898 41.7261C30.7056 41.7261 29.2533 40.2739 29.2533 38.4896ZM30.1039 38.4896C30.1039 39.8174 31.1828 40.8755 32.4898 40.8755C33.8176 40.8755 34.8964 39.8174 34.8964 38.4896C34.8964 37.1826 33.8176 36.1037 32.4898 36.1037C31.1828 36.1037 30.1039 37.1826 30.1039 38.4896Z" fill="#6D6254"/>
</g>
</g>
<path d="M30 28.8347C30 30.583 28.5558 32 26.7745 32H3.22552C1.44354 32 0 30.583 0 28.8347V19.1653C0 17.417 1.44371 16 3.22552 16H26.7745C28.5558 16 30 17.417 30 19.1653V28.8347Z" fill="#6D6254"/>
<path d="M11.342 25.3203H8.67296V26.9685H11.7993V28H7.38097V21.8059H11.7833V22.848H8.67296V24.2835H11.342V25.3203ZM14.9575 23.9486L16.2441 21.8059H17.7541L15.7603 24.879L17.8658 28H16.3345L14.9787 25.8254L13.6495 28H12.1395L14.1865 24.879L12.1874 21.8059H13.6867L14.9575 23.9486ZM22.5605 25.3203H19.8915V26.9685H23.0178V28H18.5995V21.8059H23.0018V22.848H19.8915V24.2835H22.5605V25.3203Z" fill="white"/>
<defs>
<clipPath id="clip0">
<path d="M25 31H40V46H25V31Z" fill="white"/>
</clipPath>
</defs>
</svg>
