<svg width="48" height="48" viewBox="0 0 48 48" fill="none" xmlns="http://www.w3.org/2000/svg">
<path d="M8.66617 0C7.1942 0 6 1.19353 6 2.66616V45.3333C6 46.806 7.1942 48 8.66617 48H39.3338C40.8065 48 42 46.8058 42 45.3333V14.0333C42 12.9574 41.5615 11.9279 40.7856 11.1825L30.2938 1.10251C29.5574 0.395086 28.576 0 27.5549 0H8.66617Z" fill="#CB7429"/>
<path d="M40.2121 12.6845C40.645 13.1005 40.3506 13.8319 39.7502 13.8319H31.0983C29.6083 13.8319 28.4006 12.6236 28.4006 11.1337V2.90155C28.4006 2.31407 29.1055 2.01383 29.5291 2.42084L40.2121 12.6845Z" fill="#B56027"/>
<path d="M30 28.8347C30 30.583 28.5558 32 26.7745 32H3.22552C1.44354 32 0 30.583 0 28.8347V19.1653C0 17.417 1.44371 16 3.22552 16H26.7745C28.5558 16 30 17.417 30 19.1653V28.8347Z" fill="#B56027"/>
<path d="M11.9535 25.0438C11.9535 25.9796 11.6965 26.7204 11.1825 27.2663C10.6721 27.8121 9.99685 28.0851 9.15679 28.0851C8.32028 28.0851 7.64149 27.8121 7.12044 27.2663C6.59939 26.7169 6.33887 25.9672 6.33887 25.0173V24.7727C6.33887 24.163 6.45584 23.626 6.68978 23.1617C6.92726 22.6938 7.25868 22.3376 7.68403 22.093C8.10937 21.8449 8.59675 21.7208 9.14616 21.7208C9.99685 21.7208 10.6774 21.9991 11.1878 22.5556C11.6982 23.1085 11.9535 23.8582 11.9535 24.8046V25.0438ZM10.6668 24.762C10.6668 24.1134 10.5339 23.6189 10.268 23.2786C10.0022 22.9384 9.62822 22.7682 9.14616 22.7682C8.67119 22.7682 8.29901 22.9384 8.02962 23.2786C7.76024 23.6189 7.62554 24.1134 7.62554 24.762V25.0438C7.62554 25.6748 7.76024 26.1675 8.02962 26.5219C8.30255 26.8728 8.67828 27.0483 9.15679 27.0483C9.63885 27.0483 10.011 26.8764 10.2733 26.5326C10.5356 26.1852 10.6668 25.6889 10.6668 25.0438V24.762ZM17.8498 22.848H15.7975V28H14.5055V22.848H12.4798V21.8059H17.8498V22.848ZM19.9712 25.8254V28H18.6793V21.8059H21.2579C22.0094 21.8059 22.6084 21.9955 23.055 22.3748C23.5052 22.7505 23.7303 23.245 23.7303 23.8582C23.7303 24.4572 23.5158 24.9322 23.0869 25.2831C22.6616 25.634 22.0732 25.8148 21.3217 25.8254H19.9712ZM19.9712 24.7833H21.2579C21.6266 24.7833 21.9154 24.7053 22.1246 24.5494C22.3372 24.3934 22.4436 24.1666 22.4436 23.8688C22.4436 23.5604 22.3355 23.3141 22.1192 23.1298C21.9066 22.9419 21.6212 22.848 21.2632 22.848H19.9712V24.7833Z" fill="white"/>
</svg>
